<svg width="24" height="24" viewBox="0 0 24 24" fill="none" xmlns="http://www.w3.org/2000/svg">
<mask id="mask0_7_139" style="mask-type:alpha" maskUnits="userSpaceOnUse" x="0" y="0" width="24" height="24">
<rect width="24" height="24" fill="#D9D9D9"/>
</mask>
<g mask="url(#mask0_7_139)">
<path d="M6.8655 21.5C6.218 21.5 5.66192 21.2827 5.19725 20.848C4.73242 20.4135 4.5 19.8757 4.5 19.2345V5.58275C4.5 5.00709 4.68625 4.4965 5.05875 4.051C5.43108 3.6055 5.90508 3.3225 6.48075 3.202L15.8077 1.3V16.6078L6.6405 18.5173C6.46483 18.5571 6.31417 18.6427 6.1885 18.774C6.06283 18.9055 6 19.059 6 19.2345C6 19.4563 6.08625 19.6394 6.25875 19.7838C6.43108 19.9279 6.63333 20 6.8655 20H18V4.5H19.5V21.5H6.8655ZM8.69225 16.579L14.3077 15.4115V3.14425L8.69225 4.29225V16.579ZM7.19225 16.8828V4.59625L6.7885 4.68075C6.56033 4.72692 6.37183 4.83175 6.223 4.99525C6.07433 5.15875 6 5.35459 6 5.58275V17.229C6.1025 17.1763 6.20767 17.1311 6.3155 17.0933C6.42317 17.0554 6.5315 17.025 6.6405 17.002L7.19225 16.8828Z" fill="black"/>
</g>
</svg>
