<svg width="20" height="20" viewBox="0 0 20 20" fill="none" xmlns="http://www.w3.org/2000/svg">
<mask id="mask0_14_790" style="mask-type:alpha" maskUnits="userSpaceOnUse" x="0" y="0" width="20" height="20">
<rect width="20" height="20" fill="#D9D9D9"/>
</mask>
<g mask="url(#mask0_14_790)">
<path d="M2 16.5V10.5H8V16.5H2ZM3.5 15H6.5V12H3.5V15ZM4.75 8L9 1L13.25 8H4.75ZM7.41667 6.5H10.5833L9 3.89583L7.41667 6.5ZM17.6458 18.7083L15.3958 16.4583C15.1228 16.6389 14.827 16.7743 14.5085 16.8646C14.1901 16.9549 13.8553 17 13.5042 17C12.5292 17 11.7014 16.6597 11.0208 15.9792C10.3403 15.2986 10 14.4722 10 13.5C10 12.5278 10.3403 11.7014 11.0208 11.0208C11.7014 10.3403 12.5278 10 13.5 10C14.4722 10 15.2986 10.3403 15.9792 11.0208C16.6597 11.7014 17 12.5278 17 13.5C17 13.8424 16.9532 14.1748 16.8596 14.4973C16.766 14.8198 16.6322 15.1193 16.4583 15.3958L18.7083 17.6458L17.6458 18.7083ZM13.4952 15.5C14.054 15.5 14.5278 15.3072 14.9167 14.9215C15.3056 14.5356 15.5 14.0634 15.5 13.5048C15.5 12.946 15.3072 12.4722 14.9215 12.0833C14.5356 11.6944 14.0634 11.5 13.5048 11.5C12.946 11.5 12.4722 11.6928 12.0833 12.0785C11.6944 12.4644 11.5 12.9366 11.5 13.4952C11.5 14.054 11.6928 14.5278 12.0785 14.9167C12.4644 15.3056 12.9366 15.5 13.4952 15.5Z" fill="black"/>
</g>
</svg>
