<svg width="102" height="98" viewBox="0 0 102 98" fill="none" xmlns="http://www.w3.org/2000/svg">
<mask id="mask0_209_16976" style="mask-type:alpha" maskUnits="userSpaceOnUse" x="0" y="0" width="147" height="147">
<rect width="147" height="147" fill="#D9D9D9"/>
</mask>
<g mask="url(#mask0_209_16976)">
<path d="M64.6654 103.405L109.145 58.9272L98.2334 47.9282L64.6654 81.4963L48.2488 65.0782L37.3371 76.0772L64.6654 103.405ZM73.5007 137.693C64.5663 137.693 56.2001 136.011 48.402 132.646C40.6048 129.282 33.8224 124.715 28.0547 118.946C22.286 113.178 17.7193 106.396 14.3546 98.5988C10.99 90.8007 9.30762 82.4345 9.30762 73.5001C9.30762 64.5658 10.99 56.1996 14.3546 48.4014C17.7193 40.6043 22.286 33.8219 28.0547 28.0542C33.8224 22.2854 40.6048 17.7187 48.402 14.3541C56.2001 10.9894 64.5663 9.30707 73.5007 9.30707C82.435 9.30707 90.8012 10.9894 98.5994 14.3541C106.397 17.7187 113.179 22.2854 118.947 28.0542C124.715 33.8219 129.282 40.6043 132.647 48.4014C136.011 56.1996 137.694 64.5658 137.694 73.5001C137.694 82.4345 136.011 90.8007 132.647 98.5988C129.282 106.396 124.715 113.178 118.947 118.946C113.179 124.715 106.397 129.282 98.5994 132.646C90.8012 136.011 82.435 137.693 73.5007 137.693Z" fill="#1C1B1F"/>
</g>
</svg>
