<svg width="99" height="127" viewBox="0 0 99 127" fill="none" xmlns="http://www.w3.org/2000/svg">
<mask id="mask0_209_17130" style="mask-type:alpha" maskUnits="userSpaceOnUse" x="0" y="0" width="127" height="127">
<rect x="127" y="127" width="127" height="127" transform="rotate(-180 127 127)" fill="#D9D9D9"/>
</mask>
<g mask="url(#mask0_209_17130)">
<path d="M66.9414 6.2471L67.6664 24.2904L69.2142 24.3644C82.0368 25.212 92.8009 30.2633 101.507 39.5185C110.213 48.7727 114.566 59.8363 114.566 72.7091C114.566 86.1799 109.864 97.5923 100.46 106.946C91.056 116.301 79.6185 120.978 66.1477 120.978C59.4369 120.978 53.1579 119.71 47.3106 117.174C41.4625 114.637 36.3384 111.169 31.9383 106.769C27.5383 102.369 24.0701 97.2448 21.5336 91.3966C18.9971 85.5493 17.7289 79.2703 17.7289 72.5596C17.7289 65.1972 19.0209 58.2113 21.605 51.602C24.19 44.9936 27.7055 38.876 32.1513 33.2492C36.5972 27.6215 41.8113 22.5415 47.7935 18.0091C53.7757 13.4768 60.1584 9.55615 66.9414 6.2471ZM66.2045 42.8403C64.4063 42.8403 62.8906 43.4563 61.6577 44.6884C60.4256 45.9214 59.8096 47.437 59.8096 49.2353C59.8096 51.0345 60.4256 52.5501 61.6577 53.7821C62.8906 55.0151 64.4063 55.6316 66.2045 55.6316C68.0037 55.6316 69.5193 55.0151 70.7514 53.7821C71.9844 52.5501 72.6008 51.0345 72.6008 49.2353C72.6008 47.437 71.9844 45.9214 70.7514 44.6884C69.5193 43.4563 68.0037 42.8403 66.2045 42.8403ZM71.0133 60.3134L61.282 60.3134C61.282 63.0095 60.9799 64.9612 60.3758 66.1686C59.7716 67.3769 58.2079 69.2426 55.6847 71.7659C53.9975 73.453 52.6124 75.2227 51.5294 77.0747C50.4464 78.9268 49.9049 81.0109 49.9049 83.3269C49.9049 88.1238 51.4509 91.734 54.543 94.1576C57.636 96.5812 61.4544 97.7929 65.9982 97.7929C70.078 97.7929 73.578 96.5631 76.4982 94.1033C79.4183 91.6436 81.4573 88.6706 82.6153 85.1842L73.4872 81.6018C72.996 83.1505 72.1705 84.6899 71.0107 86.2201C69.8509 87.7502 68.2299 88.5153 66.1477 88.5153C64.0654 88.5153 62.5039 87.9535 61.4632 86.8299C60.4216 85.7063 59.9008 84.4504 59.9008 83.0623C59.9008 81.7623 60.3546 80.5293 61.2621 79.3634C62.1688 78.1983 63.1147 77.1228 64.0998 76.1368C67.2369 73.3913 69.1736 71.1472 69.91 69.4045C70.6456 67.6618 71.0133 64.6314 71.0133 60.3134Z" fill="#1C1B1F"/>
</g>
</svg>
