<svg width="20" height="20" viewBox="0 0 20 20" fill="none" xmlns="http://www.w3.org/2000/svg">
<mask id="mask0_3_157" style="mask-type:alpha" maskUnits="userSpaceOnUse" x="0" y="0" width="20" height="20">
<rect width="20" height="20" fill="#D9D9D9"/>
</mask>
<g mask="url(#mask0_3_157)">
<path d="M5.95833 12.5C6.38889 12.5 6.77083 12.3715 7.10417 12.1146C7.4375 11.8576 7.66667 11.5278 7.79167 11.125L8.125 10C8.31944 9.375 8.26389 8.80208 7.95833 8.28125C7.65278 7.76042 7.21528 7.5 6.64583 7.5H3.52083L4.04167 10.8542C4.11111 11.3264 4.32639 11.7188 4.6875 12.0312C5.04861 12.3438 5.47222 12.5 5.95833 12.5ZM14.0625 12.5C14.5486 12.5 14.9722 12.3438 15.3333 12.0312C15.6944 11.7188 15.9097 11.3264 15.9792 10.8542L16.5 7.5H13.3542C12.7847 7.5 12.3472 7.76042 12.0417 8.28125C11.7361 8.80208 11.6806 9.375 11.875 10L12.2083 11.125C12.3333 11.5278 12.566 11.8576 12.9062 12.1146C13.2465 12.3715 13.6319 12.5 14.0625 12.5ZM5.95833 14C5.09722 14 4.34375 13.7257 3.69792 13.1771C3.05208 12.6285 2.66667 11.9306 2.54167 11.0833L2 7.5H1V6H6.64583C7.17361 6 7.67014 6.13542 8.13542 6.40625C8.60069 6.67708 8.97222 7.04167 9.25 7.5H10.75C11.0139 7.02778 11.375 6.65972 11.8333 6.39583C12.2917 6.13194 12.7986 6 13.3542 6H19V7.5H18L17.4375 11.0833C17.3125 11.9306 16.9306 12.6285 16.2917 13.1771C15.6528 13.7257 14.9028 14 14.0417 14C13.2778 14 12.5972 13.7743 12 13.3229C11.4028 12.8715 10.9931 12.2778 10.7708 11.5417L10.4375 10.4375C10.4236 10.3819 10.4132 10.3229 10.4062 10.2604C10.3993 10.1979 10.3819 10.1111 10.3542 10H9.66667C9.65278 10.0556 9.63889 10.1146 9.625 10.1771C9.61111 10.2396 9.59028 10.3264 9.5625 10.4375L9.25 11.5417C9.02778 12.2778 8.61458 12.8715 8.01042 13.3229C7.40625 13.7743 6.72222 14 5.95833 14Z" fill="black"/>
</g>
</svg>
