<svg width="20" height="20" viewBox="0 0 20 20" fill="none" xmlns="http://www.w3.org/2000/svg">
<mask id="mask0_26_1044" style="mask-type:alpha" maskUnits="userSpaceOnUse" x="0" y="0" width="20" height="20">
<rect width="20" height="20" fill="#D9D9D9"/>
</mask>
<g mask="url(#mask0_26_1044)">
<path d="M9.50375 16.1693C9.31917 16.1693 9.16083 16.104 9.02875 15.9733C8.89667 15.8426 8.83063 15.6848 8.83063 15.4999V10.8306L3.97458 4.91203C3.80306 4.68897 3.77653 4.45293 3.895 4.2039C4.01347 3.95501 4.21514 3.83057 4.5 3.83057H15.5C15.7849 3.83057 15.9865 3.95501 16.105 4.2039C16.2235 4.45293 16.1969 4.68897 16.0254 4.91203L11.1694 10.8306V15.5547C11.1694 15.7296 11.1108 15.8758 10.9935 15.9933C10.8765 16.1106 10.7306 16.1693 10.556 16.1693H9.50375ZM10 9.52536L13.2454 5.55973H6.73375L10 9.52536Z" fill="black"/>
</g>
</svg>
