<svg width="20" height="20" viewBox="0 0 20 20" fill="none" xmlns="http://www.w3.org/2000/svg">
<mask id="mask0_3_15" style="mask-type:alpha" maskUnits="userSpaceOnUse" x="0" y="0" width="20" height="20">
<rect width="20" height="20" fill="#D9D9D9"/>
</mask>
<g mask="url(#mask0_3_15)">
<path d="M5.41668 13.7689C6.06945 13.7689 6.70487 13.8418 7.32293 13.9877C7.94098 14.1335 8.55556 14.3523 9.16668 14.6439V6.4356C8.59723 6.10226 7.99306 5.85226 7.35418 5.6856C6.71529 5.51893 6.06945 5.4356 5.41668 5.4356C4.91668 5.4356 4.42015 5.48421 3.92709 5.58143C3.43404 5.67865 2.95834 5.82449 2.50001 6.01893V14.2689C2.98612 14.1023 3.46876 13.9773 3.94793 13.8939C4.42709 13.8106 4.91668 13.7689 5.41668 13.7689ZM10.8333 14.6439C11.4445 14.3523 12.059 14.1335 12.6771 13.9877C13.2951 13.8418 13.9306 13.7689 14.5833 13.7689C15.0833 13.7689 15.5729 13.8106 16.0521 13.8939C16.5313 13.9773 17.0139 14.1023 17.5 14.2689V6.01893C17.0417 5.82449 16.566 5.67865 16.0729 5.58143C15.5799 5.48421 15.0833 5.4356 14.5833 5.4356C13.9306 5.4356 13.2847 5.51893 12.6458 5.6856C12.007 5.85226 11.4028 6.10226 10.8333 6.4356V14.6439ZM10.0354 17.5381C9.36084 17.0181 8.63466 16.5966 7.85688 16.2735C7.07911 15.9505 6.2657 15.7889 5.41668 15.7889C4.86015 15.7889 4.31355 15.8673 3.77688 16.0239C3.24022 16.1807 2.72279 16.3902 2.22459 16.6523C1.82306 16.8599 1.42994 16.8503 1.04522 16.6235C0.660633 16.3967 0.468342 16.066 0.468342 15.6314V5.60143C0.468342 5.33879 0.528134 5.09407 0.647717 4.86726C0.7673 4.64046 0.946606 4.47032 1.18563 4.35685C1.84022 4.03143 2.51869 3.79122 3.22105 3.63622C3.92327 3.48136 4.64293 3.40393 5.38001 3.40393C6.20209 3.40393 7.00251 3.5081 7.78126 3.71643C8.56001 3.92476 9.29959 4.24907 10 4.68935C10.7083 4.25699 11.4499 3.93462 12.2246 3.72226C12.9995 3.51004 13.7979 3.40393 14.62 3.40393C15.3571 3.40393 16.0767 3.48136 16.779 3.63622C17.4813 3.79122 18.1598 4.03143 18.8144 4.35685C19.0534 4.47032 19.2327 4.64046 19.3523 4.86726C19.4719 5.09407 19.5317 5.33879 19.5317 5.60143V15.8079C19.5317 16.2137 19.3413 16.5098 18.9606 16.6962C18.5799 16.8825 18.1849 16.8678 17.7754 16.6523C17.2772 16.3902 16.7598 16.1807 16.2231 16.0239C15.6865 15.8673 15.1399 15.7889 14.5833 15.7889C13.75 15.7889 12.9504 15.9525 12.1844 16.2796C11.4184 16.6065 10.7021 17.026 10.0354 17.5381Z" fill="black"/>
<rect x="3" y="2" width="2" height="20.7878" transform="rotate(-30 3 2)" fill="black"/>
<rect x="4.73193" y="1" width="2" height="20.7878" transform="rotate(-30 4.73193 1)" fill="white"/>
</g>
</svg>
