<svg width="20" height="20" viewBox="0 0 20 20" fill="none" xmlns="http://www.w3.org/2000/svg">
<mask id="mask0_3_107" style="mask-type:alpha" maskUnits="userSpaceOnUse" x="0" y="0" width="20" height="20">
<rect width="20" height="20" fill="#D9D9D9"/>
</mask>
<g mask="url(#mask0_3_107)">
<path d="M14 14.5H18V16H12.5L14 14.5ZM4.89583 16L2.4375 13.5416C2.14583 13.25 1.99653 12.8993 1.98958 12.4895C1.98264 12.0798 2.13194 11.7222 2.4375 11.4166L11.4167 2.43746C11.7222 2.1319 12.0764 1.97913 12.4792 1.97913C12.8819 1.97913 13.238 2.13378 13.5473 2.44308L17.5625 6.45829C17.8542 6.74996 18.0035 7.10065 18.0104 7.51038C18.0174 7.9201 17.8681 8.27774 17.5625 8.58329L10.1458 16H4.89583ZM9.52083 14.5L16.5 7.52079L12.4792 3.49996L3.5 12.4791L5.52083 14.5H9.52083Z" fill="black"/>
</g>
</svg>
