<svg width="30" height="30" viewBox="0 0 30 30" fill="none" xmlns="http://www.w3.org/2000/svg">
<mask id="mask0_124_7140" style="mask-type:alpha" maskUnits="userSpaceOnUse" x="0" y="0" width="30" height="30">
<rect width="30" height="30" fill="#D9D9D9"/>
</mask>
<g mask="url(#mask0_124_7140)">
<path d="M15 25C14.3125 25 13.724 24.7552 13.2344 24.2656C12.7448 23.776 12.5 23.1875 12.5 22.5C12.5 21.8125 12.7448 21.224 13.2344 20.7344C13.724 20.2448 14.3125 20 15 20C15.6875 20 16.276 20.2448 16.7656 20.7344C17.2552 21.224 17.5 21.8125 17.5 22.5C17.5 23.1875 17.2552 23.776 16.7656 24.2656C16.276 24.7552 15.6875 25 15 25ZM15 17.5C14.3125 17.5 13.724 17.2552 13.2344 16.7656C12.7448 16.276 12.5 15.6875 12.5 15C12.5 14.3125 12.7448 13.724 13.2344 13.2344C13.724 12.7448 14.3125 12.5 15 12.5C15.6875 12.5 16.276 12.7448 16.7656 13.2344C17.2552 13.724 17.5 14.3125 17.5 15C17.5 15.6875 17.2552 16.276 16.7656 16.7656C16.276 17.2552 15.6875 17.5 15 17.5ZM15 10C14.3125 10 13.724 9.75521 13.2344 9.26562C12.7448 8.77604 12.5 8.1875 12.5 7.5C12.5 6.8125 12.7448 6.22396 13.2344 5.73438C13.724 5.24479 14.3125 5 15 5C15.6875 5 16.276 5.24479 16.7656 5.73438C17.2552 6.22396 17.5 6.8125 17.5 7.5C17.5 8.1875 17.2552 8.77604 16.7656 9.26562C16.276 9.75521 15.6875 10 15 10Z" fill="black"/>
</g>
</svg>
