<svg width="24" height="24" viewBox="0 0 24 24" fill="none" xmlns="http://www.w3.org/2000/svg">
<mask id="mask0_85_7178" style="mask-type:alpha" maskUnits="userSpaceOnUse" x="0" y="0" width="24" height="24">
<rect width="24" height="24" fill="#D9D9D9"/>
</mask>
<g mask="url(#mask0_85_7178)">
<path d="M12 23L9 20H5C4.45 20 3.97917 19.8042 3.5875 19.4125C3.19583 19.0208 3 18.55 3 18V4C3 3.45 3.19583 2.97917 3.5875 2.5875C3.97917 2.19583 4.45 2 5 2H19C19.55 2 20.0208 2.19583 20.4125 2.5875C20.8042 2.97917 21 3.45 21 4V18C21 18.55 20.8042 19.0208 20.4125 19.4125C20.0208 19.8042 19.55 20 19 20H15L12 23ZM5 16.85C5.9 15.9667 6.94583 15.2708 8.1375 14.7625C9.32917 14.2542 10.6167 14 12 14C13.3833 14 14.6708 14.2542 15.8625 14.7625C17.0542 15.2708 18.1 15.9667 19 16.85V4H5V16.85ZM12 12C12.9667 12 13.7917 11.6583 14.475 10.975C15.1583 10.2917 15.5 9.46667 15.5 8.5C15.5 7.53333 15.1583 6.70833 14.475 6.025C13.7917 5.34167 12.9667 5 12 5C11.0333 5 10.2083 5.34167 9.525 6.025C8.84167 6.70833 8.5 7.53333 8.5 8.5C8.5 9.46667 8.84167 10.2917 9.525 10.975C10.2083 11.6583 11.0333 12 12 12ZM7 18H17V17.75C16.3 17.1667 15.525 16.7292 14.675 16.4375C13.825 16.1458 12.9333 16 12 16C11.0667 16 10.175 16.1458 9.325 16.4375C8.475 16.7292 7.7 17.1667 7 17.75V18ZM12 10C11.5833 10 11.2292 9.85417 10.9375 9.5625C10.6458 9.27083 10.5 8.91667 10.5 8.5C10.5 8.08333 10.6458 7.72917 10.9375 7.4375C11.2292 7.14583 11.5833 7 12 7C12.4167 7 12.7708 7.14583 13.0625 7.4375C13.3542 7.72917 13.5 8.08333 13.5 8.5C13.5 8.91667 13.3542 9.27083 13.0625 9.5625C12.7708 9.85417 12.4167 10 12 10Z" fill="black"/>
</g>
</svg>
