<svg width="20" height="20" viewBox="0 0 20 20" fill="none" xmlns="http://www.w3.org/2000/svg">
<mask id="mask0_26_1056" style="mask-type:alpha" maskUnits="userSpaceOnUse" x="0" y="0" width="20" height="20">
<rect width="20" height="20" fill="#D9D9D9"/>
</mask>
<g mask="url(#mask0_26_1056)">
<path d="M1.41667 18.2627V17.1793H18.5833V18.2627H1.41667ZM4.41667 15.5833V11.6281C4.01709 10.8184 3.69709 10.0278 3.45667 9.25642C3.21639 8.48503 3.09626 7.72489 3.09626 6.976C3.09626 6.18697 3.19882 5.39253 3.40396 4.59267C3.6091 3.79267 3.85001 2.92739 4.12667 1.99683C4.16403 1.83544 4.25146 1.69843 4.38896 1.58579C4.52632 1.47301 4.68403 1.41663 4.86209 1.41663C5.05501 1.41663 5.21813 1.4917 5.35146 1.64183C5.48466 1.79197 5.55924 1.97329 5.57521 2.18579L5.58334 4.59767C5.58334 5.24086 5.70216 5.85308 5.9398 6.43433C6.17757 7.01545 6.5032 7.52933 6.91667 7.976C7.33014 8.42253 7.81084 8.77531 8.35876 9.03434C8.90667 9.29336 9.48931 9.42288 10.1067 9.42288C10.8542 9.42288 11.5633 9.48142 12.2342 9.5985C12.905 9.71559 13.4872 9.89746 13.9806 10.1441C14.4901 10.4015 14.8845 10.7308 15.164 11.132C15.4435 11.5333 15.5833 12.024 15.5833 12.6041V15.5833H4.41667ZM5.50001 14.5H14.5V12.6041C14.5 12.133 14.3149 11.7505 13.9448 11.4566C13.5745 11.1629 13.1249 10.9316 12.596 10.7627C12.1688 10.642 11.7362 10.568 11.2981 10.5408C10.8601 10.5136 10.4621 10.5 10.1042 10.5C9.3425 10.5 8.62459 10.3453 7.95042 10.036C7.27626 9.7267 6.68382 9.30552 6.17313 8.77246C5.66244 8.23927 5.25723 7.62121 4.95751 6.91829C4.65778 6.21524 4.50528 5.46468 4.50001 4.66663C4.38889 5.01385 4.30556 5.36267 4.25001 5.71308C4.19445 6.0635 4.16667 6.42197 4.16667 6.7885C4.16667 7.5042 4.28924 8.23843 4.53438 8.99121C4.77966 9.74385 5.10153 10.5283 5.50001 11.3445V14.5ZM10 8.22434C9.27889 8.22434 8.66806 7.97406 8.16751 7.4735C7.66695 6.97295 7.41667 6.36211 7.41667 5.641C7.41667 4.91989 7.66695 4.30906 8.16751 3.8085C8.66806 3.30795 9.27889 3.05767 10 3.05767C10.7211 3.05767 11.332 3.30795 11.8325 3.8085C12.3331 4.30906 12.5833 4.91989 12.5833 5.641C12.5833 6.36211 12.3331 6.97295 11.8325 7.4735C11.332 7.97406 10.7211 8.22434 10 8.22434ZM10.0044 7.141C10.4181 7.141 10.7708 6.99371 11.0625 6.69913C11.3542 6.40454 11.5 6.05038 11.5 5.63663C11.5 5.22288 11.3527 4.87017 11.0581 4.5785C10.7635 4.28683 10.4094 4.141 9.99563 4.141C9.58188 4.141 9.22917 4.28829 8.93751 4.58288C8.64584 4.8776 8.50001 5.23177 8.50001 5.64538C8.50001 6.05913 8.6473 6.41184 8.94188 6.7035C9.23646 6.99517 9.59063 7.141 10.0044 7.141ZM7.45355 15.5833V14.5495C7.45355 13.8605 7.70035 13.2793 8.19396 12.806C8.68757 12.3328 9.27889 12.0962 9.96792 12.0962H12.7115V13.1793H9.96792C9.57098 13.1793 9.23674 13.313 8.96521 13.5804C8.69355 13.8477 8.55771 14.1708 8.55771 14.5495V15.5833H7.45355Z" fill="black"/>
</g>
</svg>
