<svg width="20" height="20" viewBox="0 0 20 20" fill="none" xmlns="http://www.w3.org/2000/svg">
<mask id="mask0_169_9554" style="mask-type:alpha" maskUnits="userSpaceOnUse" x="0" y="0" width="20" height="20">
<rect width="20" height="20" fill="#D9D9D9"/>
</mask>
<g mask="url(#mask0_169_9554)">
<path d="M5.5 13H7V12.5208C7 11.6875 7.29167 10.9792 7.875 10.3958C8.45833 9.8125 9.16667 9.52083 10 9.52083C10.8333 9.52083 11.5417 9.8125 12.125 10.3958C12.7083 10.9792 13 11.6875 13 12.5208V13H14.5V12.5208C14.5 11.2708 14.0625 10.2083 13.1875 9.33333C12.3125 8.45833 11.25 8.02083 10 8.02083C8.75 8.02083 7.6875 8.45833 6.8125 9.33333C5.9375 10.2083 5.5 11.2708 5.5 12.5208V13ZM6.10417 7.75C6.65972 7.68056 7.24306 7.47569 7.85417 7.13542C8.46528 6.79514 8.95139 6.41667 9.3125 6L8.1875 5C7.9375 5.27778 7.58681 5.54167 7.13542 5.79167C6.68403 6.04167 6.27083 6.19444 5.89583 6.25L6.10417 7.75ZM13.8958 7.75L14.1042 6.25C13.7292 6.19444 13.316 6.04167 12.8646 5.79167C12.4132 5.54167 12.0625 5.27778 11.8125 5L10.6875 6C11.0486 6.41667 11.5347 6.79514 12.1458 7.13542C12.7569 7.47569 13.3403 7.68056 13.8958 7.75ZM6.89583 17.375C5.92361 16.9583 5.07292 16.3854 4.34375 15.6562C3.61458 14.9271 3.04167 14.0764 2.625 13.1042C2.20833 12.1319 2 11.0938 2 9.98958C2 8.88542 2.20833 7.85069 2.625 6.88542C3.04167 5.92014 3.61458 5.07292 4.34375 4.34375C5.07292 3.61458 5.92361 3.04167 6.89583 2.625C7.86806 2.20833 8.90625 2 10.0104 2C11.1146 2 12.1493 2.20833 13.1146 2.625C14.0799 3.04167 14.9271 3.61458 15.6562 4.34375C16.3854 5.07292 16.9583 5.92014 17.375 6.88542C17.7917 7.85069 18 8.88542 18 9.98958C18 11.0938 17.7917 12.1319 17.375 13.1042C16.9583 14.0764 16.3854 14.9271 15.6562 15.6562C14.9271 16.3854 14.0799 16.9583 13.1146 17.375C12.1493 17.7917 11.1146 18 10.0104 18C8.90625 18 7.86806 17.7917 6.89583 17.375Z" fill="#990000"/>
</g>
</svg>
