<svg xmlns="http://www.w3.org/2000/svg" style="display:none"><symbol id="account_circle" viewBox="0 0 24 24">
<mask id="account_circle__mask0_5_234" style="mask-type:alpha" maskUnits="userSpaceOnUse" x="0" y="0" width="24" height="24">
<rect width="24" height="24" fill="#D9D9D9"/>
</mask>
<g mask="url(#account_circle__mask0_5_234)">
<path d="M5.85 17.1C6.7 16.45 7.65 15.9375 8.7 15.5625C9.75 15.1875 10.85 15 12 15C13.15 15 14.25 15.1875 15.3 15.5625C16.35 15.9375 17.3 16.45 18.15 17.1C18.7333 16.4167 19.1875 15.6417 19.5125 14.775C19.8375 13.9083 20 12.9833 20 12C20 9.78333 19.2208 7.89583 17.6625 6.3375C16.1042 4.77917 14.2167 4 12 4C9.78333 4 7.89583 4.77917 6.3375 6.3375C4.77917 7.89583 4 9.78333 4 12C4 12.9833 4.1625 13.9083 4.4875 14.775C4.8125 15.6417 5.26667 16.4167 5.85 17.1ZM12 13C11.0167 13 10.1875 12.6625 9.5125 11.9875C8.8375 11.3125 8.5 10.4833 8.5 9.5C8.5 8.51667 8.8375 7.6875 9.5125 7.0125C10.1875 6.3375 11.0167 6 12 6C12.9833 6 13.8125 6.3375 14.4875 7.0125C15.1625 7.6875 15.5 8.51667 15.5 9.5C15.5 10.4833 15.1625 11.3125 14.4875 11.9875C13.8125 12.6625 12.9833 13 12 13ZM12 22C10.6167 22 9.31667 21.7375 8.1 21.2125C6.88333 20.6875 5.825 19.975 4.925 19.075C4.025 18.175 3.3125 17.1167 2.7875 15.9C2.2625 14.6833 2 13.3833 2 12C2 10.6167 2.2625 9.31667 2.7875 8.1C3.3125 6.88333 4.025 5.825 4.925 4.925C5.825 4.025 6.88333 3.3125 8.1 2.7875C9.31667 2.2625 10.6167 2 12 2C13.3833 2 14.6833 2.2625 15.9 2.7875C17.1167 3.3125 18.175 4.025 19.075 4.925C19.975 5.825 20.6875 6.88333 21.2125 8.1C21.7375 9.31667 22 10.6167 22 12C22 13.3833 21.7375 14.6833 21.2125 15.9C20.6875 17.1167 19.975 18.175 19.075 19.075C18.175 19.975 17.1167 20.6875 15.9 21.2125C14.6833 21.7375 13.3833 22 12 22ZM12 20C12.8833 20 13.7167 19.8708 14.5 19.6125C15.2833 19.3542 16 18.9833 16.65 18.5C16 18.0167 15.2833 17.6458 14.5 17.3875C13.7167 17.1292 12.8833 17 12 17C11.1167 17 10.2833 17.1292 9.5 17.3875C8.71667 17.6458 8 18.0167 7.35 18.5C8 18.9833 8.71667 19.3542 9.5 19.6125C10.2833 19.8708 11.1167 20 12 20ZM12 11C12.4333 11 12.7917 10.8583 13.075 10.575C13.3583 10.2917 13.5 9.93333 13.5 9.5C13.5 9.06667 13.3583 8.70833 13.075 8.425C12.7917 8.14167 12.4333 8 12 8C11.5667 8 11.2083 8.14167 10.925 8.425C10.6417 8.70833 10.5 9.06667 10.5 9.5C10.5 9.93333 10.6417 10.2917 10.925 10.575C11.2083 10.8583 11.5667 11 12 11Z" fill="currentColor"/>
</g>
</symbol><symbol id="book_4" viewBox="0 0 24 24">
<mask id="book_4__mask0_7_133" style="mask-type:alpha" maskUnits="userSpaceOnUse" x="0" y="0" width="24" height="24">
<rect width="24" height="24" fill="#D9D9D9"/>
</mask>
<g mask="url(#book_4__mask0_7_133)">
<path d="M6.1155 21.5C5.389 21.5 4.77142 21.2476 4.26275 20.7428C3.75425 20.2379 3.5 19.6249 3.5 18.9038V5.1155C3.5 4.389 3.75425 3.77142 4.26275 3.26275C4.77142 2.75425 5.389 2.5 6.1155 2.5H16.8077V17.8077H6.1155C5.8065 17.8077 5.54333 17.9126 5.326 18.1223C5.10867 18.3321 5 18.5921 5 18.9023C5 19.2122 5.10867 19.4727 5.326 19.6838C5.54333 19.8946 5.8065 20 6.1155 20H19V4.5H20.5V21.5H6.1155ZM8.69225 16.3077H15.3077V4H8.69225V16.3077ZM7.19225 16.3077V4H6.1155C5.79933 4 5.53442 4.10867 5.32075 4.326C5.10692 4.54333 5 4.8065 5 5.1155V16.598C5.173 16.516 5.34983 16.4471 5.5305 16.3913C5.71117 16.3356 5.90617 16.3077 6.1155 16.3077H7.19225Z" fill="currentColor"/>
</g>
</symbol><symbol id="book_5" viewBox="0 0 24 24">
<mask id="book_5__mask0_7_139" style="mask-type:alpha" maskUnits="userSpaceOnUse" x="0" y="0" width="24" height="24">
<rect width="24" height="24" fill="#D9D9D9"/>
</mask>
<g mask="url(#book_5__mask0_7_139)">
<path d="M6.8655 21.5C6.218 21.5 5.66192 21.2827 5.19725 20.848C4.73242 20.4135 4.5 19.8757 4.5 19.2345V5.58275C4.5 5.00709 4.68625 4.4965 5.05875 4.051C5.43108 3.6055 5.90508 3.3225 6.48075 3.202L15.8077 1.3V16.6078L6.6405 18.5173C6.46483 18.5571 6.31417 18.6427 6.1885 18.774C6.06283 18.9055 6 19.059 6 19.2345C6 19.4563 6.08625 19.6394 6.25875 19.7838C6.43108 19.9279 6.63333 20 6.8655 20H18V4.5H19.5V21.5H6.8655ZM8.69225 16.579L14.3077 15.4115V3.14425L8.69225 4.29225V16.579ZM7.19225 16.8828V4.59625L6.7885 4.68075C6.56033 4.72692 6.37183 4.83175 6.223 4.99525C6.07433 5.15875 6 5.35459 6 5.58275V17.229C6.1025 17.1763 6.20767 17.1311 6.3155 17.0933C6.42317 17.0554 6.5315 17.025 6.6405 17.002L7.19225 16.8828Z" fill="currentColor"/>
</g>
</symbol><symbol id="book_ribbon" viewBox="0 0 24 24">
<mask id="book_ribbon__mask0_9_164" style="mask-type:alpha" maskUnits="userSpaceOnUse" x="0" y="0" width="24" height="24">
<rect width="24" height="24" fill="#D9D9D9"/>
</mask>
<g mask="url(#book_ribbon__mask0_9_164)">
<path d="M11.25 17.1848V7.35375C10.5475 6.89608 9.78725 6.55283 8.96925 6.324C8.15125 6.09517 7.32817 5.98075 6.5 5.98075C5.9 5.98075 5.33942 6.02783 4.81825 6.122C4.29708 6.21633 3.7615 6.3705 3.2115 6.5845C3.13467 6.61017 3.08017 6.64708 3.048 6.69525C3.016 6.74325 3 6.79608 3 6.85375V16.3115C3 16.4013 3.03208 16.4671 3.09625 16.5087C3.16025 16.5504 3.23075 16.5552 3.30775 16.523C3.78208 16.3615 4.28267 16.2372 4.8095 16.15C5.3365 16.0628 5.9 16.0193 6.5 16.0193C7.32817 16.0193 8.13392 16.1132 8.91725 16.301C9.70058 16.4888 10.4782 16.7834 11.25 17.1848ZM12 19.3845C11.1937 18.7897 10.3238 18.3301 9.3905 18.0057C8.45717 17.6814 7.49367 17.5193 6.5 17.5193C5.88983 17.5193 5.2905 17.5868 4.702 17.722C4.1135 17.8573 3.54617 18.0564 3 18.3193C2.64367 18.4833 2.30458 18.4573 1.98275 18.2413C1.66092 18.0253 1.5 17.7192 1.5 17.323V6.4655C1.5 6.25 1.5555 6.04775 1.6665 5.85875C1.77733 5.66958 1.93725 5.53333 2.14625 5.45C2.82308 5.1205 3.5285 4.87658 4.2625 4.71825C4.9965 4.55992 5.74233 4.48075 6.5 4.48075C7.66283 4.48075 8.67275 4.62083 9.52975 4.901C10.3868 5.18117 11.2864 5.60325 12.2288 6.16725C12.3993 6.26092 12.5288 6.37758 12.6173 6.51725C12.7058 6.65708 12.75 6.82892 12.75 7.03275V17.1848C13.5218 16.7834 14.2994 16.4888 15.0828 16.301C15.8661 16.1132 16.6718 16.0193 17.5 16.0193C18.1 16.0193 18.6635 16.0628 19.1905 16.15C19.7173 16.2372 20.2179 16.3615 20.6923 16.523C20.7693 16.5552 20.8398 16.5504 20.9038 16.5087C20.9679 16.4671 21 16.4013 21 16.3115V5.08475C21.1538 5.13592 21.3051 5.19233 21.4538 5.254C21.6026 5.3155 21.7488 5.38725 21.8923 5.46925C22.0947 5.55892 22.2467 5.69517 22.348 5.878C22.4493 6.06067 22.5 6.2565 22.5 6.4655V17.323C22.5 17.7192 22.3327 18.0221 21.998 18.2318C21.6633 18.4413 21.3114 18.464 20.9423 18.3C20.4026 18.0435 19.8433 17.8492 19.2645 17.7172C18.6857 17.5852 18.0975 17.5193 17.5 17.5193C16.5063 17.5193 15.5428 17.6814 14.6095 18.0057C13.6762 18.3301 12.8063 18.7897 12 19.3845ZM15.3462 14V3.5L18.4038 2.5V13L15.3462 14Z" fill="currentColor"/>
</g>
</symbol><symbol id="collapse_content_20" viewBox="0 0 20 20">
<mask id="collapse_content_20__mask0_31_783" style="mask-type:alpha" maskUnits="userSpaceOnUse" x="0" y="0" width="20" height="20">
<rect width="20" height="20" fill="#D9D9D9"/>
</mask>
<g mask="url(#collapse_content_20__mask0_31_783)">
<path d="M9 11V16H7.5V12.5H4V11H9ZM12.5 4V7.5H16V9H11V4H12.5Z" fill="currentColor"/>
</g>
</symbol><symbol id="collapse_content_30" viewBox="0 0 30 30">
<mask id="collapse_content_30__mask0_124_7137" style="mask-type:alpha" maskUnits="userSpaceOnUse" x="0" y="0" width="30" height="30">
<rect width="30" height="30" fill="#D9D9D9"/>
</mask>
<g mask="url(#collapse_content_30__mask0_124_7137)">
<path d="M13.75 16.25V23.75H11.25V18.75H6.25V16.25H13.75ZM18.75 6.25V11.25H23.75V13.75H16.25V6.25H18.75Z" fill="currentColor"/>
</g>
</symbol><symbol id="collapse_content_34" viewBox="0 0 34 34">
<mask id="collapse_content_34__mask0_4_179" style="mask-type:alpha" maskUnits="userSpaceOnUse" x="0" y="0" width="34" height="34">
<rect width="34" height="34" fill="#D9D9D9"/>
</mask>
<g mask="url(#collapse_content_34__mask0_4_179)">
<path d="M15.5833 18.4167V26.9167H12.75V21.25H7.08334V18.4167H15.5833ZM21.25 7.08333V12.75H26.9167V15.5833H18.4167V7.08333H21.25Z" fill="currentColor"/>
</g>
</symbol><symbol id="collapse_content" viewBox="0 0 24 24">
<mask id="collapse_content__mask0_3_237" style="mask-type:alpha" maskUnits="userSpaceOnUse" x="0" y="0" width="24" height="24">
<rect width="24" height="24" fill="#D9D9D9"/>
</mask>
<g mask="url(#collapse_content__mask0_3_237)">
<path d="M11 13V19H9V15H5V13H11ZM15 5V9H19V11H13V5H15Z" fill="currentColor"/>
</g>
</symbol><symbol id="diamond" viewBox="0 0 24 24">
<mask id="diamond__mask0_13_1202" style="mask-type:alpha" maskUnits="userSpaceOnUse" x="0" y="0" width="24" height="24">
<rect width="24" height="24" fill="#D9D9D9"/>
</mask>
<g mask="url(#diamond__mask0_13_1202)">
<path d="M12 21L2 9L5 3H19L22 9L12 21ZM9.625 8H14.375L12.875 5H11.125L9.625 8ZM11 16.675V10H5.45L11 16.675ZM13 16.675L18.55 10H13V16.675ZM16.6 8H19.25L17.75 5H15.1L16.6 8ZM4.75 8H7.4L8.9 5H6.25L4.75 8Z" fill="currentColor"/>
</g>
</symbol><symbol id="expand_content_20" viewBox="0 0 20 20">
<mask id="expand_content_20__mask0_31_777" style="mask-type:alpha" maskUnits="userSpaceOnUse" x="0" y="0" width="20" height="20">
<rect width="20" height="20" fill="#D9D9D9"/>
</mask>
<g mask="url(#expand_content_20__mask0_31_777)">
<path d="M5 15V10H6.5V13.5H10V15H5ZM13.5 10V6.5H10V5H15V10H13.5Z" fill="currentColor"/>
</g>
</symbol><symbol id="expand_content_34" viewBox="0 0 34 34">
<mask id="expand_content_34__mask0_4_185" style="mask-type:alpha" maskUnits="userSpaceOnUse" x="0" y="0" width="34" height="34">
<rect width="34" height="34" fill="#D9D9D9"/>
</mask>
<g mask="url(#expand_content_34__mask0_4_185)">
<path d="M7.08333 26.9167V18.4167H9.91667V24.0833H15.5833V26.9167H7.08333ZM24.0833 15.5833V9.91666H18.4167V7.08333H26.9167V15.5833H24.0833Z" fill="currentColor"/>
</g>
</symbol><symbol id="expand_content" viewBox="0 0 24 24">
<mask id="expand_content__mask0_3_240" style="mask-type:alpha" maskUnits="userSpaceOnUse" x="0" y="0" width="24" height="24">
<rect width="24" height="24" fill="#D9D9D9"/>
</mask>
<g mask="url(#expand_content__mask0_3_240)">
<path d="M5 19V13H7V17H11V19H5ZM17 11V7H13V5H19V11H17Z" fill="currentColor"/>
</g>
</symbol><symbol id="face_4" viewBox="0 0 24 24">
<mask id="face_4__mask0_1_47" style="mask-type:alpha" maskUnits="userSpaceOnUse" x="0" y="0" width="24" height="24">
<rect width="24" height="24" fill="#D9D9D9"/>
</mask>
<g mask="url(#face_4__mask0_1_47)">
<path d="M10 15.25C9.65 15.25 9.35417 15.1292 9.1125 14.8875C8.87083 14.6458 8.75 14.35 8.75 14C8.75 13.65 8.87083 13.3542 9.1125 13.1125C9.35417 12.8708 9.65 12.75 10 12.75C10.35 12.75 10.6458 12.8708 10.8875 13.1125C11.1292 13.3542 11.25 13.65 11.25 14C11.25 14.35 11.1292 14.6458 10.8875 14.8875C10.6458 15.1292 10.35 15.25 10 15.25ZM16 15.25C15.65 15.25 15.3542 15.1292 15.1125 14.8875C14.8708 14.6458 14.75 14.35 14.75 14C14.75 13.65 14.8708 13.3542 15.1125 13.1125C15.3542 12.8708 15.65 12.75 16 12.75C16.35 12.75 16.6458 12.8708 16.8875 13.1125C17.1292 13.3542 17.25 13.65 17.25 14C17.25 14.35 17.1292 14.6458 16.8875 14.8875C16.6458 15.1292 16.35 15.25 16 15.25ZM13 21C15.2333 21 17.125 20.225 18.675 18.675C20.225 17.125 21 15.2333 21 13C21 12.6 20.975 12.2125 20.925 11.8375C20.875 11.4625 20.7833 11.1 20.65 10.75C20.3 10.8333 19.95 10.8958 19.6 10.9375C19.25 10.9792 18.8833 11 18.5 11C16.9833 11 15.55 10.675 14.2 10.025C12.85 9.375 11.7 8.46667 10.75 7.3C10.2167 8.6 9.45417 9.72917 8.4625 10.6875C7.47083 11.6458 6.31667 12.3667 5 12.85V13C5 15.2333 5.775 17.125 7.325 18.675C8.875 20.225 10.7667 21 13 21ZM11.65 5.125C12.35 6.29167 13.3 7.22917 14.5 7.9375C15.7 8.64583 17.0333 9 18.5 9C18.7333 9 18.9583 8.9875 19.175 8.9625C19.3917 8.9375 19.6167 8.90833 19.85 8.875C19.15 7.70833 18.2 6.77083 17 6.0625C15.8 5.35417 14.4667 5 13 5C12.7667 5 12.5417 5.0125 12.325 5.0375C12.1083 5.0625 11.8833 5.09167 11.65 5.125ZM5.425 10.475C6.275 9.99167 7.01667 9.36667 7.65 8.6C8.28333 7.83333 8.75833 6.975 9.075 6.025C8.225 6.50833 7.48333 7.13333 6.85 7.9C6.21667 8.66667 5.74167 9.525 5.425 10.475ZM4.175 8.325C4.64167 7.44167 5.22917 6.64583 5.9375 5.9375C6.64583 5.22917 7.44167 4.64167 8.325 4.175C8.04167 3.825 7.7 3.54167 7.3 3.325C6.9 3.10833 6.45833 3 5.975 3C5.14167 3 4.4375 3.2875 3.8625 3.8625C3.2875 4.4375 3 5.14167 3 5.975C3 6.45833 3.10833 6.9 3.325 7.3C3.54167 7.7 3.825 8.04167 4.175 8.325ZM13 23C11.6167 23 10.3167 22.7375 9.1 22.2125C7.88333 21.6875 6.825 20.975 5.925 20.075C5.025 19.175 4.3125 18.1167 3.7875 16.9C3.2625 15.6833 3 14.3833 3 13C3 12.5167 3.03333 12.0375 3.1 11.5625C3.16667 11.0875 3.26667 10.6333 3.4 10.2C2.68333 9.76667 2.10417 9.17917 1.6625 8.4375C1.22083 7.69583 1 6.875 1 5.975C1 4.59167 1.48333 3.41667 2.45 2.45C3.41667 1.48333 4.59167 1 5.975 1C6.85833 1 7.67083 1.2125 8.4125 1.6375C9.15417 2.0625 9.75 2.65 10.2 3.4C10.6333 3.26667 11.0875 3.16667 11.5625 3.1C12.0375 3.03333 12.5167 3 13 3C14.3833 3 15.6833 3.2625 16.9 3.7875C18.1167 4.3125 19.175 5.025 20.075 5.925C20.975 6.825 21.6875 7.88333 22.2125 9.1C22.7375 10.3167 23 11.6167 23 13C23 14.3833 22.7375 15.6833 22.2125 16.9C21.6875 18.1167 20.975 19.175 20.075 20.075C19.175 20.975 18.1167 21.6875 16.9 22.2125C15.6833 22.7375 14.3833 23 13 23Z" fill="currentColor"/>
</g>
</symbol><symbol id="face" viewBox="0 0 24 24">
<mask id="face__mask0_1_44" style="mask-type:alpha" maskUnits="userSpaceOnUse" x="0" y="0" width="24" height="24">
<rect width="24" height="24" fill="#D9D9D9"/>
</mask>
<g mask="url(#face__mask0_1_44)">
<path d="M9 14.25C8.65 14.25 8.35417 14.1292 8.1125 13.8875C7.87083 13.6458 7.75 13.35 7.75 13C7.75 12.65 7.87083 12.3542 8.1125 12.1125C8.35417 11.8708 8.65 11.75 9 11.75C9.35 11.75 9.64583 11.8708 9.8875 12.1125C10.1292 12.3542 10.25 12.65 10.25 13C10.25 13.35 10.1292 13.6458 9.8875 13.8875C9.64583 14.1292 9.35 14.25 9 14.25ZM15 14.25C14.65 14.25 14.3542 14.1292 14.1125 13.8875C13.8708 13.6458 13.75 13.35 13.75 13C13.75 12.65 13.8708 12.3542 14.1125 12.1125C14.3542 11.8708 14.65 11.75 15 11.75C15.35 11.75 15.6458 11.8708 15.8875 12.1125C16.1292 12.3542 16.25 12.65 16.25 13C16.25 13.35 16.1292 13.6458 15.8875 13.8875C15.6458 14.1292 15.35 14.25 15 14.25ZM12 20C14.2333 20 16.125 19.225 17.675 17.675C19.225 16.125 20 14.2333 20 12C20 11.6 19.975 11.2125 19.925 10.8375C19.875 10.4625 19.7833 10.1 19.65 9.75C19.3 9.83333 18.95 9.89583 18.6 9.9375C18.25 9.97917 17.8833 10 17.5 10C15.9833 10 14.55 9.675 13.2 9.025C11.85 8.375 10.7 7.46667 9.75 6.3C9.21667 7.6 8.45417 8.72917 7.4625 9.6875C6.47083 10.6458 5.31667 11.3667 4 11.85V12C4 14.2333 4.775 16.125 6.325 17.675C7.875 19.225 9.76667 20 12 20ZM12 22C10.6167 22 9.31667 21.7375 8.1 21.2125C6.88333 20.6875 5.825 19.975 4.925 19.075C4.025 18.175 3.3125 17.1167 2.7875 15.9C2.2625 14.6833 2 13.3833 2 12C2 10.6167 2.2625 9.31667 2.7875 8.1C3.3125 6.88333 4.025 5.825 4.925 4.925C5.825 4.025 6.88333 3.3125 8.1 2.7875C9.31667 2.2625 10.6167 2 12 2C13.3833 2 14.6833 2.2625 15.9 2.7875C17.1167 3.3125 18.175 4.025 19.075 4.925C19.975 5.825 20.6875 6.88333 21.2125 8.1C21.7375 9.31667 22 10.6167 22 12C22 13.3833 21.7375 14.6833 21.2125 15.9C20.6875 17.1167 19.975 18.175 19.075 19.075C18.175 19.975 17.1167 20.6875 15.9 21.2125C14.6833 21.7375 13.3833 22 12 22ZM10.65 4.125C11.35 5.29167 12.3 6.22917 13.5 6.9375C14.7 7.64583 16.0333 8 17.5 8C17.7333 8 17.9583 7.9875 18.175 7.9625C18.3917 7.9375 18.6167 7.90833 18.85 7.875C18.15 6.70833 17.2 5.77083 16 5.0625C14.8 4.35417 13.4667 4 12 4C11.7667 4 11.5417 4.0125 11.325 4.0375C11.1083 4.0625 10.8833 4.09167 10.65 4.125ZM4.425 9.475C5.275 8.99167 6.01667 8.36667 6.65 7.6C7.28333 6.83333 7.75833 5.975 8.075 5.025C7.225 5.50833 6.48333 6.13333 5.85 6.9C5.21667 7.66667 4.74167 8.525 4.425 9.475Z" fill="currentColor"/>
</g>
</symbol><symbol id="language_korean_latin_20" viewBox="0 0 20 20">
<mask id="language_korean_latin_20__mask0_67_2924" style="mask-type:alpha" maskUnits="userSpaceOnUse" x="0" y="0" width="20" height="20">
<rect width="20" height="20" fill="#D9D9D9"/>
</mask>
<g mask="url(#language_korean_latin_20__mask0_67_2924)">
<path d="M5.60417 10.2187C5.85417 10.0729 5.97917 9.84721 5.97917 9.54166C5.97917 9.2361 5.85417 9.01041 5.60417 8.86457C5.35417 8.71874 5.06076 8.64582 4.72396 8.64582C4.38729 8.64582 4.0991 8.71874 3.85938 8.86457C3.61979 9.01041 3.5 9.2361 3.5 9.54166C3.5 9.84721 3.61979 10.0729 3.85938 10.2187C4.0991 10.3646 4.38729 10.4375 4.72396 10.4375C5.06076 10.4375 5.35417 10.3646 5.60417 10.2187ZM1.875 7.45832V6.52082H4.16667V5.41666H5.25V6.52082H7.54167V7.45832H1.875ZM4.73458 11.375C4.10597 11.375 3.5625 11.2154 3.10417 10.8962C2.64583 10.5771 2.41667 10.1255 2.41667 9.54166C2.41667 8.95832 2.64222 8.50693 3.09333 8.18749C3.54431 7.86805 4.08625 7.70832 4.71917 7.70832C5.36542 7.70832 5.91403 7.86805 6.365 8.18749C6.81611 8.50693 7.04167 8.95832 7.04167 9.54166C7.04167 10.125 6.81764 10.5764 6.36958 10.8958C5.92153 11.2153 5.37653 11.375 4.73458 11.375ZM3.25 14.5833V11.75H4.33333V13.6667H9.625V14.5833H3.25ZM8.125 12.5V5.41666H9.20833V8.39582H10.5833V9.33332H9.22917V12.5H8.125ZM14.4167 13C14.82 13 15.2125 12.8924 15.5942 12.6771C15.9758 12.4618 16.3194 12.1597 16.625 11.7708V9.72916C16.2917 9.77082 15.9799 9.82374 15.6898 9.88791C15.3995 9.95193 15.1279 10.024 14.875 10.1042C14.2639 10.2986 13.8056 10.5417 13.5 10.8333C13.1944 11.125 13.0417 11.4617 13.0417 11.8433C13.0417 12.1978 13.1701 12.4792 13.4271 12.6875C13.684 12.8958 14.0139 13 14.4167 13ZM14 14.2917C13.25 14.2917 12.6493 14.0753 12.1979 13.6425C11.7465 13.2099 11.5208 12.6207 11.5208 11.875C11.5208 11.1711 11.7465 10.5958 12.1979 10.1492C12.6493 9.70249 13.3542 9.34721 14.3125 9.08332C14.6349 8.99582 14.9888 8.91562 15.3742 8.8427C15.7596 8.76978 16.1765 8.70416 16.625 8.64582C16.5833 8.03471 16.4201 7.5868 16.1354 7.30207C15.8507 7.01735 15.4167 6.87499 14.8333 6.87499C14.4722 6.87499 14.125 6.93749 13.7917 7.06249C13.4583 7.18749 13.0417 7.40971 12.5417 7.72916L11.8542 6.60416C12.3264 6.24305 12.8542 5.9618 13.4375 5.76041C14.0208 5.55902 14.5972 5.45832 15.1667 5.45832C16.125 5.45832 16.8576 5.75693 17.3646 6.35416C17.8715 6.95138 18.125 7.81277 18.125 8.93832V14.1042H16.8958L16.75 13.1042C16.3611 13.4792 15.9306 13.7708 15.4583 13.9792C14.9861 14.1875 14.5 14.2917 14 14.2917Z" fill="#1C1B1F"/>
</g>
</symbol><symbol id="language_korean_latin_30" viewBox="0 0 30 30">
<mask id="language_korean_latin_30__mask0_124_7143" style="mask-type:alpha" maskUnits="userSpaceOnUse" x="0" y="0" width="30" height="30">
<rect width="30" height="30" fill="#D9D9D9"/>
</mask>
<g mask="url(#language_korean_latin_30__mask0_124_7143)">
<path d="M8.14063 15.3594C8.52604 15.1198 8.71875 14.7604 8.71875 14.2812C8.71875 13.8021 8.52604 13.4375 8.14063 13.1875C7.75521 12.9375 7.29167 12.8125 6.75 12.8125C6.20833 12.8125 5.74479 12.9375 5.35938 13.1875C4.97396 13.4375 4.78125 13.8021 4.78125 14.2812C4.78125 14.7604 4.97396 15.1198 5.35938 15.3594C5.74479 15.599 6.20833 15.7188 6.75 15.7188C7.29167 15.7188 7.75521 15.599 8.14063 15.3594ZM2.34375 11V9.625H5.90625V7.875H7.53125V9.625H11.125V11H2.34375ZM6.75 17.0938C5.77083 17.0938 4.93229 16.849 4.23438 16.3594C3.53646 15.8698 3.1875 15.1771 3.1875 14.2812C3.1875 13.3646 3.53646 12.6667 4.23438 12.1875C4.93229 11.7083 5.77083 11.4688 6.75 11.4688C7.75 11.4688 8.59896 11.7083 9.29688 12.1875C9.99479 12.6667 10.3438 13.3646 10.3438 14.2812C10.3438 15.1979 9.99479 15.8958 9.29688 16.375C8.59896 16.8542 7.75 17.0938 6.75 17.0938ZM4.46875 22.125V17.75H6.125V20.75H14.375V22.125H4.46875ZM12.125 18.8438V7.875H13.7188V12.5625H15.875V13.9375H13.75V18.8438H12.125ZM21.9375 19.5625C22.5208 19.5625 23.0885 19.4271 23.6406 19.1563C24.1927 18.8854 24.6979 18.5 25.1562 18V14.6875C24.6771 14.75 24.2344 14.8229 23.8281 14.9062C23.4219 14.9896 23.0417 15.0833 22.6875 15.1875C21.75 15.4792 21.0469 15.8438 20.5781 16.2812C20.1094 16.7188 19.875 17.2292 19.875 17.8125C19.875 18.3542 20.0625 18.7812 20.4375 19.0938C20.8125 19.4062 21.3125 19.5625 21.9375 19.5625ZM21.2188 21.6875C20.0312 21.6875 19.0938 21.349 18.4062 20.6719C17.7188 19.9948 17.375 19.0729 17.375 17.9063C17.375 16.8229 17.7188 15.9375 18.4062 15.25C19.0938 14.5625 20.1979 14.0104 21.7188 13.5938C22.1979 13.4688 22.724 13.3542 23.2969 13.25C23.8698 13.1458 24.4896 13.0521 25.1562 12.9688C25.1146 11.9896 24.8854 11.276 24.4688 10.8281C24.0521 10.3802 23.4062 10.1562 22.5312 10.1562C21.9896 10.1562 21.4531 10.2552 20.9219 10.4531C20.3906 10.651 19.7083 11 18.875 11.5L17.875 9.75C18.5625 9.22917 19.3698 8.80729 20.2969 8.48438C21.224 8.16146 22.1667 8 23.125 8C24.6042 8 25.7292 8.45833 26.5 9.375C27.2708 10.2917 27.6562 11.625 27.6562 13.375V21.4062H25.5625L25.375 20C24.7917 20.5208 24.151 20.9323 23.4531 21.2344C22.7552 21.5365 22.0104 21.6875 21.2188 21.6875Z" fill="#1C1B1F"/>
</g>
</symbol><symbol id="language_korean_latin" viewBox="0 0 24 24">
<mask id="language_korean_latin__mask0_67_2903" style="mask-type:alpha" maskUnits="userSpaceOnUse" x="0" y="0" width="24" height="24">
<rect width="24" height="24" fill="#D9D9D9"/>
</mask>
<g mask="url(#language_korean_latin__mask0_67_2903)">
<path d="M6.5125 12.2875C6.82083 12.0958 6.975 11.8083 6.975 11.425C6.975 11.0417 6.82083 10.75 6.5125 10.55C6.20417 10.35 5.83333 10.25 5.4 10.25C4.96667 10.25 4.59583 10.35 4.2875 10.55C3.97917 10.75 3.825 11.0417 3.825 11.425C3.825 11.8083 3.97917 12.0958 4.2875 12.2875C4.59583 12.4792 4.96667 12.575 5.4 12.575C5.83333 12.575 6.20417 12.4792 6.5125 12.2875ZM1.875 8.79999V7.69999H4.725V6.29999H6.025V7.69999H8.9V8.79999H1.875ZM5.4 13.675C4.61667 13.675 3.94583 13.4792 3.3875 13.0875C2.82917 12.6958 2.55 12.1417 2.55 11.425C2.55 10.6917 2.82917 10.1333 3.3875 9.74999C3.94583 9.36665 4.61667 9.17499 5.4 9.17499C6.2 9.17499 6.87917 9.36665 7.4375 9.74999C7.99583 10.1333 8.275 10.6917 8.275 11.425C8.275 12.1583 7.99583 12.7167 7.4375 13.1C6.87917 13.4833 6.2 13.675 5.4 13.675ZM3.575 17.7V14.2H4.9V16.6H11.5V17.7H3.575ZM9.7 15.075V6.29999H10.975V10.05H12.7V11.15H11V15.075H9.7ZM17.55 15.65C18.0167 15.65 18.4708 15.5417 18.9125 15.325C19.3542 15.1083 19.7583 14.8 20.125 14.4V11.75C19.7417 11.8 19.3875 11.8583 19.0625 11.925C18.7375 11.9917 18.4333 12.0667 18.15 12.15C17.4 12.3833 16.8375 12.675 16.4625 13.025C16.0875 13.375 15.9 13.7833 15.9 14.25C15.9 14.6833 16.05 15.025 16.35 15.275C16.65 15.525 17.05 15.65 17.55 15.65ZM16.975 17.35C16.025 17.35 15.275 17.0792 14.725 16.5375C14.175 15.9958 13.9 15.2583 13.9 14.325C13.9 13.4583 14.175 12.75 14.725 12.2C15.275 11.65 16.1583 11.2083 17.375 10.875C17.7583 10.775 18.1792 10.6833 18.6375 10.6C19.0958 10.5167 19.5917 10.4417 20.125 10.375C20.0917 9.59165 19.9083 9.02082 19.575 8.66249C19.2417 8.30415 18.725 8.12499 18.025 8.12499C17.5917 8.12499 17.1625 8.20415 16.7375 8.36249C16.3125 8.52082 15.7667 8.79999 15.1 9.19999L14.3 7.79999C14.85 7.38332 15.4958 7.04582 16.2375 6.78749C16.9792 6.52915 17.7333 6.39999 18.5 6.39999C19.6833 6.39999 20.5833 6.76665 21.2 7.49999C21.8167 8.23332 22.125 9.29999 22.125 10.7V17.125H20.45L20.3 16C19.8333 16.4167 19.3208 16.7458 18.7625 16.9875C18.2042 17.2292 17.6083 17.35 16.975 17.35Z" fill="#1C1B1F"/>
</g>
</symbol><symbol id="login" viewBox="0 0 24 24">
<mask id="login__mask0_2_1262" style="mask-type:alpha" maskUnits="userSpaceOnUse" x="0" y="0" width="24" height="24">
<rect width="24" height="24" fill="#D9D9D9"/>
</mask>
<g mask="url(#login__mask0_2_1262)">
<path d="M12 21V19H19V5H12V3H19C19.55 3 20.0208 3.19583 20.4125 3.5875C20.8042 3.97917 21 4.45 21 5V19C21 19.55 20.8042 20.0208 20.4125 20.4125C20.0208 20.8042 19.55 21 19 21H12ZM10 17L8.625 15.55L11.175 13H3V11H11.175L8.625 8.45L10 7L15 12L10 17Z" fill="currentColor"/>
</g>
</symbol><symbol id="logout" viewBox="0 0 24 24">
<mask id="logout__mask0_2_1265" style="mask-type:alpha" maskUnits="userSpaceOnUse" x="0" y="0" width="24" height="24">
<rect width="24" height="24" fill="#D9D9D9"/>
</mask>
<g mask="url(#logout__mask0_2_1265)">
<path d="M5 21C4.45 21 3.97917 20.8042 3.5875 20.4125C3.19583 20.0208 3 19.55 3 19V5C3 4.45 3.19583 3.97917 3.5875 3.5875C3.97917 3.19583 4.45 3 5 3H12V5H5V19H12V21H5ZM16 17L14.625 15.55L17.175 13H9V11H17.175L14.625 8.45L16 7L21 12L16 17Z" fill="currentColor"/>
</g>
</symbol><symbol id="more_vert_34" viewBox="0 0 30 30">
<mask id="more_vert_34__mask0_124_7140" style="mask-type:alpha" maskUnits="userSpaceOnUse" x="0" y="0" width="30" height="30">
<rect width="30" height="30" fill="#D9D9D9"/>
</mask>
<g mask="url(#more_vert_34__mask0_124_7140)">
<path d="M15 25C14.3125 25 13.724 24.7552 13.2344 24.2656C12.7448 23.776 12.5 23.1875 12.5 22.5C12.5 21.8125 12.7448 21.224 13.2344 20.7344C13.724 20.2448 14.3125 20 15 20C15.6875 20 16.276 20.2448 16.7656 20.7344C17.2552 21.224 17.5 21.8125 17.5 22.5C17.5 23.1875 17.2552 23.776 16.7656 24.2656C16.276 24.7552 15.6875 25 15 25ZM15 17.5C14.3125 17.5 13.724 17.2552 13.2344 16.7656C12.7448 16.276 12.5 15.6875 12.5 15C12.5 14.3125 12.7448 13.724 13.2344 13.2344C13.724 12.7448 14.3125 12.5 15 12.5C15.6875 12.5 16.276 12.7448 16.7656 13.2344C17.2552 13.724 17.5 14.3125 17.5 15C17.5 15.6875 17.2552 16.276 16.7656 16.7656C16.276 17.2552 15.6875 17.5 15 17.5ZM15 10C14.3125 10 13.724 9.75521 13.2344 9.26562C12.7448 8.77604 12.5 8.1875 12.5 7.5C12.5 6.8125 12.7448 6.22396 13.2344 5.73438C13.724 5.24479 14.3125 5 15 5C15.6875 5 16.276 5.24479 16.7656 5.73438C17.2552 6.22396 17.5 6.8125 17.5 7.5C17.5 8.1875 17.2552 8.77604 16.7656 9.26562C16.276 9.75521 15.6875 10 15 10Z" fill="currentColor"/>
</g>
</symbol><symbol id="more_vert" viewBox="0 0 24 24">
<mask id="more_vert__mask0_4_188" style="mask-type:alpha" maskUnits="userSpaceOnUse" x="0" y="0" width="24" height="24">
<rect width="24" height="24" fill="#D9D9D9"/>
</mask>
<g mask="url(#more_vert__mask0_4_188)">
<path d="M12 20C11.45 20 10.9792 19.8042 10.5875 19.4125C10.1958 19.0208 10 18.55 10 18C10 17.45 10.1958 16.9792 10.5875 16.5875C10.9792 16.1958 11.45 16 12 16C12.55 16 13.0208 16.1958 13.4125 16.5875C13.8042 16.9792 14 17.45 14 18C14 18.55 13.8042 19.0208 13.4125 19.4125C13.0208 19.8042 12.55 20 12 20ZM12 14C11.45 14 10.9792 13.8042 10.5875 13.4125C10.1958 13.0208 10 12.55 10 12C10 11.45 10.1958 10.9792 10.5875 10.5875C10.9792 10.1958 11.45 10 12 10C12.55 10 13.0208 10.1958 13.4125 10.5875C13.8042 10.9792 14 11.45 14 12C14 12.55 13.8042 13.0208 13.4125 13.4125C13.0208 13.8042 12.55 14 12 14ZM12 8C11.45 8 10.9792 7.80417 10.5875 7.4125C10.1958 7.02083 10 6.55 10 6C10 5.45 10.1958 4.97917 10.5875 4.5875C10.9792 4.19583 11.45 4 12 4C12.55 4 13.0208 4.19583 13.4125 4.5875C13.8042 4.97917 14 5.45 14 6C14 6.55 13.8042 7.02083 13.4125 7.4125C13.0208 7.80417 12.55 8 12 8Z" fill="currentColor"/>
</g>
</symbol><symbol id="sell" viewBox="0 0 24 24">
<mask id="sell__mask0_9_206" style="mask-type:alpha" maskUnits="userSpaceOnUse" x="0" y="0" width="24" height="24">
<rect width="24" height="24" fill="#D9D9D9"/>
</mask>
<g mask="url(#sell__mask0_9_206)">
<path d="M21.4 14.25L14.25 21.4C14.05 21.6 13.825 21.75 13.575 21.85C13.325 21.95 13.075 22 12.825 22C12.575 22 12.325 21.95 12.075 21.85C11.825 21.75 11.6 21.6 11.4 21.4L2.575 12.575C2.39167 12.3917 2.25 12.1792 2.15 11.9375C2.05 11.6958 2 11.4417 2 11.175V4C2 3.45 2.19583 2.97917 2.5875 2.5875C2.97917 2.19583 3.45 2 4 2H11.175C11.4417 2 11.7 2.05417 11.95 2.1625C12.2 2.27083 12.4167 2.41667 12.6 2.6L21.4 11.425C21.6 11.625 21.7458 11.85 21.8375 12.1C21.9292 12.35 21.975 12.6 21.975 12.85C21.975 13.1 21.9292 13.3458 21.8375 13.5875C21.7458 13.8292 21.6 14.05 21.4 14.25ZM12.825 20L19.975 12.85L11.15 4H4V11.15L12.825 20ZM6.5 8C6.91667 8 7.27083 7.85417 7.5625 7.5625C7.85417 7.27083 8 6.91667 8 6.5C8 6.08333 7.85417 5.72917 7.5625 5.4375C7.27083 5.14583 6.91667 5 6.5 5C6.08333 5 5.72917 5.14583 5.4375 5.4375C5.14583 5.72917 5 6.08333 5 6.5C5 6.91667 5.14583 7.27083 5.4375 7.5625C5.72917 7.85417 6.08333 8 6.5 8Z" fill="currentColor"/>
</g>
</symbol></svg>
