<svg width="20" height="20" viewBox="0 0 20 20" fill="none" xmlns="http://www.w3.org/2000/svg">
<mask id="mask0_169_9466" style="mask-type:alpha" maskUnits="userSpaceOnUse" x="0" y="0" width="20" height="20">
<rect width="20" height="20" fill="#D9D9D9"/>
</mask>
<g mask="url(#mask0_169_9466)">
<path d="M10 16L8.5 13.75H5.125C4.81563 13.75 4.55078 13.6398 4.33047 13.4195C4.11016 13.1992 4 12.9344 4 12.625V5.125C4 4.81563 4.11016 4.55078 4.33047 4.33047C4.55078 4.11016 4.81563 4 5.125 4H14.875C15.1844 4 15.4492 4.11016 15.6695 4.33047C15.8898 4.55078 16 4.81563 16 5.125V12.625C16 12.9344 15.8898 13.1992 15.6695 13.4195C15.4492 13.6398 15.1844 13.75 14.875 13.75H11.5L10 16ZM10 13.9688L10.9063 12.625H14.875V5.125H5.125V12.625H9.09375L10 13.9688Z" fill="#474554"/>
</g>
</svg>
