<svg width="20" height="20" viewBox="0 0 20 20" fill="none" xmlns="http://www.w3.org/2000/svg">
<mask id="mask0_58_2576" style="mask-type:alpha" maskUnits="userSpaceOnUse" x="0" y="0" width="20" height="20">
<rect width="20" height="20" fill="#D9D9D9"/>
</mask>
<g mask="url(#mask0_58_2576)">
<path d="M2 17V15.5H9.25V6.375C8.93056 6.26389 8.64931 6.08681 8.40625 5.84375C8.16319 5.60069 7.98611 5.31944 7.875 5H5L7.5 10.75C7.48611 11.4306 7.20139 11.9757 6.64583 12.3854C6.09028 12.7951 5.45833 13 4.75 13C4.04167 13 3.40972 12.7951 2.85417 12.3854C2.29861 11.9757 2.01389 11.4306 2 10.75L4.5 5H3V3.5H7.86771C8.02535 3.05556 8.29792 2.69444 8.68542 2.41667C9.07292 2.13889 9.51042 2 9.99792 2C10.4854 2 10.9236 2.13889 11.3125 2.41667C11.7014 2.69444 11.9747 3.05313 12.1323 3.49271H17V5H15.5L18 10.745C18 11.4289 17.7222 11.9757 17.1667 12.3854C16.6111 12.7951 15.9757 13 15.2604 13C14.5451 13 13.9097 12.7951 13.3542 12.3854C12.7986 11.9757 12.5139 11.4306 12.5 10.75L15 5H12.125C12.0139 5.31944 11.8368 5.60069 11.5938 5.84375C11.3507 6.08681 11.0694 6.26389 10.75 6.375V15.5H18V17H2ZM13.5833 10.75H16.9167L15.25 6.9375L13.5833 10.75ZM3.08333 10.75H6.41667L4.75 6.9375L3.08333 10.75ZM9.99563 5C10.2069 5 10.3854 4.92854 10.5312 4.78563C10.6771 4.64271 10.75 4.46563 10.75 4.25438C10.75 4.04313 10.6785 3.86458 10.5356 3.71875C10.3927 3.57292 10.2156 3.5 10.0044 3.5C9.79313 3.5 9.61458 3.57146 9.46875 3.71437C9.32292 3.85729 9.25 4.03437 9.25 4.24562C9.25 4.45687 9.32146 4.63542 9.46438 4.78125C9.60729 4.92708 9.78438 5 9.99563 5Z" fill="#1C1B1F"/>
</g>
</svg>
