<svg width="20" height="20" viewBox="0 0 20 20" fill="none" xmlns="http://www.w3.org/2000/svg">
<mask id="mask0_169_9987" style="mask-type:alpha" maskUnits="userSpaceOnUse" x="0" y="0" width="20" height="20">
<rect width="20" height="20" fill="#D9D9D9"/>
</mask>
<g mask="url(#mask0_169_9987)">
<path d="M10 18.5C9.63889 18.5 9.29861 18.4132 8.97917 18.2396C8.65972 18.066 8.42361 17.8194 8.27083 17.5H8C7.58333 17.5 7.22917 17.3542 6.9375 17.0625C6.64583 16.7708 6.5 16.4167 6.5 16V12.875C5.70833 12.3194 5.09375 11.6111 4.65625 10.75C4.21875 9.88889 4 8.97222 4 8C4 6.33333 4.58333 4.91667 5.75 3.75C6.91667 2.58333 8.33333 2 10 2C11.6667 2 13.0833 2.58333 14.25 3.75C15.4167 4.91667 16 6.33333 16 8C16 8.97222 15.7812 9.88889 15.3438 10.75C14.9062 11.6111 14.2917 12.3194 13.5 12.875V16C13.5 16.4167 13.3542 16.7708 13.0625 17.0625C12.7708 17.3542 12.4167 17.5 12 17.5H11.7083C11.5556 17.8194 11.3229 18.066 11.0104 18.2396C10.6979 18.4132 10.3611 18.5 10 18.5ZM8 16H12V15H8V16ZM8 14H12V13H8V14ZM10.5 11.5V9.20833L12.3542 7.35417L11.6458 6.64583L10 8.29167L8.35417 6.64583L7.64583 7.35417L9.5 9.20833V11.5H10.5Z" fill="#FFBA41"/>
</g>
</svg>
