<svg width="24" height="24" viewBox="0 0 24 24" fill="none" xmlns="http://www.w3.org/2000/svg">
<mask id="mask0_1_47" style="mask-type:alpha" maskUnits="userSpaceOnUse" x="0" y="0" width="24" height="24">
<rect width="24" height="24" fill="#D9D9D9"/>
</mask>
<g mask="url(#mask0_1_47)">
<path d="M10 15.25C9.65 15.25 9.35417 15.1292 9.1125 14.8875C8.87083 14.6458 8.75 14.35 8.75 14C8.75 13.65 8.87083 13.3542 9.1125 13.1125C9.35417 12.8708 9.65 12.75 10 12.75C10.35 12.75 10.6458 12.8708 10.8875 13.1125C11.1292 13.3542 11.25 13.65 11.25 14C11.25 14.35 11.1292 14.6458 10.8875 14.8875C10.6458 15.1292 10.35 15.25 10 15.25ZM16 15.25C15.65 15.25 15.3542 15.1292 15.1125 14.8875C14.8708 14.6458 14.75 14.35 14.75 14C14.75 13.65 14.8708 13.3542 15.1125 13.1125C15.3542 12.8708 15.65 12.75 16 12.75C16.35 12.75 16.6458 12.8708 16.8875 13.1125C17.1292 13.3542 17.25 13.65 17.25 14C17.25 14.35 17.1292 14.6458 16.8875 14.8875C16.6458 15.1292 16.35 15.25 16 15.25ZM13 21C15.2333 21 17.125 20.225 18.675 18.675C20.225 17.125 21 15.2333 21 13C21 12.6 20.975 12.2125 20.925 11.8375C20.875 11.4625 20.7833 11.1 20.65 10.75C20.3 10.8333 19.95 10.8958 19.6 10.9375C19.25 10.9792 18.8833 11 18.5 11C16.9833 11 15.55 10.675 14.2 10.025C12.85 9.375 11.7 8.46667 10.75 7.3C10.2167 8.6 9.45417 9.72917 8.4625 10.6875C7.47083 11.6458 6.31667 12.3667 5 12.85V13C5 15.2333 5.775 17.125 7.325 18.675C8.875 20.225 10.7667 21 13 21ZM11.65 5.125C12.35 6.29167 13.3 7.22917 14.5 7.9375C15.7 8.64583 17.0333 9 18.5 9C18.7333 9 18.9583 8.9875 19.175 8.9625C19.3917 8.9375 19.6167 8.90833 19.85 8.875C19.15 7.70833 18.2 6.77083 17 6.0625C15.8 5.35417 14.4667 5 13 5C12.7667 5 12.5417 5.0125 12.325 5.0375C12.1083 5.0625 11.8833 5.09167 11.65 5.125ZM5.425 10.475C6.275 9.99167 7.01667 9.36667 7.65 8.6C8.28333 7.83333 8.75833 6.975 9.075 6.025C8.225 6.50833 7.48333 7.13333 6.85 7.9C6.21667 8.66667 5.74167 9.525 5.425 10.475ZM4.175 8.325C4.64167 7.44167 5.22917 6.64583 5.9375 5.9375C6.64583 5.22917 7.44167 4.64167 8.325 4.175C8.04167 3.825 7.7 3.54167 7.3 3.325C6.9 3.10833 6.45833 3 5.975 3C5.14167 3 4.4375 3.2875 3.8625 3.8625C3.2875 4.4375 3 5.14167 3 5.975C3 6.45833 3.10833 6.9 3.325 7.3C3.54167 7.7 3.825 8.04167 4.175 8.325ZM13 23C11.6167 23 10.3167 22.7375 9.1 22.2125C7.88333 21.6875 6.825 20.975 5.925 20.075C5.025 19.175 4.3125 18.1167 3.7875 16.9C3.2625 15.6833 3 14.3833 3 13C3 12.5167 3.03333 12.0375 3.1 11.5625C3.16667 11.0875 3.26667 10.6333 3.4 10.2C2.68333 9.76667 2.10417 9.17917 1.6625 8.4375C1.22083 7.69583 1 6.875 1 5.975C1 4.59167 1.48333 3.41667 2.45 2.45C3.41667 1.48333 4.59167 1 5.975 1C6.85833 1 7.67083 1.2125 8.4125 1.6375C9.15417 2.0625 9.75 2.65 10.2 3.4C10.6333 3.26667 11.0875 3.16667 11.5625 3.1C12.0375 3.03333 12.5167 3 13 3C14.3833 3 15.6833 3.2625 16.9 3.7875C18.1167 4.3125 19.175 5.025 20.075 5.925C20.975 6.825 21.6875 7.88333 22.2125 9.1C22.7375 10.3167 23 11.6167 23 13C23 14.3833 22.7375 15.6833 22.2125 16.9C21.6875 18.1167 20.975 19.175 20.075 20.075C19.175 20.975 18.1167 21.6875 16.9 22.2125C15.6833 22.7375 14.3833 23 13 23Z" fill="black"/>
</g>
</svg>
