<svg width="20" height="20" viewBox="0 0 20 20" fill="none" xmlns="http://www.w3.org/2000/svg">
<mask id="mask0_169_9550" style="mask-type:alpha" maskUnits="userSpaceOnUse" x="0" y="0" width="20" height="20">
<rect width="20" height="20" fill="#D9D9D9"/>
</mask>
<g mask="url(#mask0_169_9550)">
<path d="M11.6667 12.4376C12.1528 12.0626 12.5139 11.5834 12.75 11.0001H7.25C7.48611 11.5834 7.84785 12.0626 8.33521 12.4376C8.82257 12.8126 9.37812 13.0001 10.0019 13.0001C10.6256 13.0001 11.1806 12.8126 11.6667 12.4376ZM8.70833 9.70842C8.90278 9.51397 9 9.27786 9 9.00008C9 8.7223 8.90278 8.48619 8.70833 8.29175C8.51389 8.0973 8.27778 8.00008 8 8.00008C7.72222 8.00008 7.48611 8.0973 7.29167 8.29175C7.09722 8.48619 7 8.7223 7 9.00008C7 9.27786 7.09722 9.51397 7.29167 9.70842C7.48611 9.90286 7.72222 10.0001 8 10.0001C8.27778 10.0001 8.51389 9.90286 8.70833 9.70842ZM12.7083 9.70842C12.9028 9.51397 13 9.27786 13 9.00008C13 8.7223 12.9028 8.48619 12.7083 8.29175C12.5139 8.0973 12.2778 8.00008 12 8.00008C11.7222 8.00008 11.4861 8.0973 11.2917 8.29175C11.0972 8.48619 11 8.7223 11 9.00008C11 9.27786 11.0972 9.51397 11.2917 9.70842C11.4861 9.90286 11.7222 10.0001 12 10.0001C12.2778 10.0001 12.5139 9.90286 12.7083 9.70842ZM6.54167 5.45841L8.83333 2.50008C8.98347 2.29939 9.16188 2.15196 9.36854 2.05779C9.57507 1.96376 9.79097 1.91675 10.0163 1.91675C10.2415 1.91675 10.4549 1.96536 10.6562 2.06258C10.8576 2.1598 11.0347 2.30564 11.1875 2.50008L13.4792 5.45841L16.9792 6.60425C17.2986 6.71536 17.5486 6.90078 17.7292 7.1605C17.9097 7.42008 18 7.70689 18 8.02092C18 8.1698 17.979 8.31876 17.9369 8.46779C17.8947 8.61668 17.8254 8.75939 17.7292 8.89592L15.4792 12.0417L15.5625 15.4167C15.5625 15.8473 15.4167 16.2119 15.125 16.5105C14.8333 16.8091 14.4849 16.9584 14.0796 16.9584C14.0543 16.9584 13.9236 16.9376 13.6875 16.8959L10 15.8751L6.31146 16.8967C6.24271 16.924 6.17708 16.9411 6.11458 16.948C6.05208 16.9549 5.98938 16.9584 5.92646 16.9584C5.52382 16.9584 5.17153 16.8091 4.86958 16.5105C4.56764 16.2119 4.42361 15.8473 4.4375 15.4167L4.52083 12.0417L2.27083 8.89592C2.17361 8.75703 2.10417 8.61814 2.0625 8.47925C2.02083 8.34036 2 8.19432 2 8.04112C2 7.72209 2.09153 7.4305 2.27458 7.16633C2.45764 6.90216 2.71333 6.7148 3.04167 6.60425L6.54167 5.45841Z" fill="#8557FF"/>
</g>
</svg>
