<svg width="20" height="20" viewBox="0 0 20 20" fill="none" xmlns="http://www.w3.org/2000/svg">
<mask id="mask0_3_281" style="mask-type:alpha" maskUnits="userSpaceOnUse" x="0" y="0" width="20" height="20">
<rect width="20" height="20" fill="#D9D9D9"/>
</mask>
<g mask="url(#mask0_3_281)">
<path d="M3.5 14.5V5.5V9.70833V9.5V14.5ZM3.5 16C3.09722 16 2.74653 15.8507 2.44792 15.5521C2.14931 15.2535 2 14.9028 2 14.5V5.5C2 5.0875 2.14931 4.73438 2.44792 4.44063C2.74653 4.14688 3.09722 4 3.5 4H8L10 6H16.5C16.9125 6 17.2656 6.14688 17.5594 6.44063C17.8531 6.73438 18 7.0875 18 7.5V10.3958C17.7639 10.2431 17.5243 10.1076 17.2812 9.98958C17.0382 9.87153 16.7778 9.77778 16.5 9.70833V7.5H9.375L7.375 5.5H3.5V14.5H9.52083C9.49306 14.75 9.48611 15 9.5 15.25C9.51389 15.5 9.54167 15.75 9.58333 16H3.5ZM14.4375 16.75L17.125 13.9375L16.3958 13.25L14.4167 15.3125L13.5833 14.5L12.875 15.2083L14.4375 16.75ZM15.0048 11C16.1127 11 17.0556 11.3905 17.8333 12.1715C18.6111 12.9523 19 13.8967 19 15.0048C19 16.1127 18.6095 17.0556 17.8285 17.8333C17.0477 18.6111 16.1033 19 14.9952 19C13.8873 19 12.9444 18.6095 12.1667 17.8285C11.3889 17.0477 11 16.1033 11 14.9952C11 13.8873 11.3905 12.9444 12.1715 12.1667C12.9523 11.3889 13.8967 11 15.0048 11Z" fill="black"/>
</g>
</svg>
