<svg width="30" height="30" viewBox="0 0 30 30" fill="none" xmlns="http://www.w3.org/2000/svg">
<mask id="mask0_124_7143" style="mask-type:alpha" maskUnits="userSpaceOnUse" x="0" y="0" width="30" height="30">
<rect width="30" height="30" fill="#D9D9D9"/>
</mask>
<g mask="url(#mask0_124_7143)">
<path d="M8.14063 15.3594C8.52604 15.1198 8.71875 14.7604 8.71875 14.2812C8.71875 13.8021 8.52604 13.4375 8.14063 13.1875C7.75521 12.9375 7.29167 12.8125 6.75 12.8125C6.20833 12.8125 5.74479 12.9375 5.35938 13.1875C4.97396 13.4375 4.78125 13.8021 4.78125 14.2812C4.78125 14.7604 4.97396 15.1198 5.35938 15.3594C5.74479 15.599 6.20833 15.7188 6.75 15.7188C7.29167 15.7188 7.75521 15.599 8.14063 15.3594ZM2.34375 11V9.625H5.90625V7.875H7.53125V9.625H11.125V11H2.34375ZM6.75 17.0938C5.77083 17.0938 4.93229 16.849 4.23438 16.3594C3.53646 15.8698 3.1875 15.1771 3.1875 14.2812C3.1875 13.3646 3.53646 12.6667 4.23438 12.1875C4.93229 11.7083 5.77083 11.4688 6.75 11.4688C7.75 11.4688 8.59896 11.7083 9.29688 12.1875C9.99479 12.6667 10.3438 13.3646 10.3438 14.2812C10.3438 15.1979 9.99479 15.8958 9.29688 16.375C8.59896 16.8542 7.75 17.0938 6.75 17.0938ZM4.46875 22.125V17.75H6.125V20.75H14.375V22.125H4.46875ZM12.125 18.8438V7.875H13.7188V12.5625H15.875V13.9375H13.75V18.8438H12.125ZM21.9375 19.5625C22.5208 19.5625 23.0885 19.4271 23.6406 19.1563C24.1927 18.8854 24.6979 18.5 25.1562 18V14.6875C24.6771 14.75 24.2344 14.8229 23.8281 14.9062C23.4219 14.9896 23.0417 15.0833 22.6875 15.1875C21.75 15.4792 21.0469 15.8438 20.5781 16.2812C20.1094 16.7188 19.875 17.2292 19.875 17.8125C19.875 18.3542 20.0625 18.7812 20.4375 19.0938C20.8125 19.4062 21.3125 19.5625 21.9375 19.5625ZM21.2188 21.6875C20.0312 21.6875 19.0938 21.349 18.4062 20.6719C17.7188 19.9948 17.375 19.0729 17.375 17.9063C17.375 16.8229 17.7188 15.9375 18.4062 15.25C19.0938 14.5625 20.1979 14.0104 21.7188 13.5938C22.1979 13.4688 22.724 13.3542 23.2969 13.25C23.8698 13.1458 24.4896 13.0521 25.1562 12.9688C25.1146 11.9896 24.8854 11.276 24.4688 10.8281C24.0521 10.3802 23.4062 10.1562 22.5312 10.1562C21.9896 10.1562 21.4531 10.2552 20.9219 10.4531C20.3906 10.651 19.7083 11 18.875 11.5L17.875 9.75C18.5625 9.22917 19.3698 8.80729 20.2969 8.48438C21.224 8.16146 22.1667 8 23.125 8C24.6042 8 25.7292 8.45833 26.5 9.375C27.2708 10.2917 27.6562 11.625 27.6562 13.375V21.4062H25.5625L25.375 20C24.7917 20.5208 24.151 20.9323 23.4531 21.2344C22.7552 21.5365 22.0104 21.6875 21.2188 21.6875Z" fill="#1C1B1F"/>
</g>
</svg>
