<svg width="20" height="20" viewBox="0 0 20 20" fill="none" xmlns="http://www.w3.org/2000/svg">
<mask id="mask0_67_2924" style="mask-type:alpha" maskUnits="userSpaceOnUse" x="0" y="0" width="20" height="20">
<rect width="20" height="20" fill="#D9D9D9"/>
</mask>
<g mask="url(#mask0_67_2924)">
<path d="M5.60417 10.2187C5.85417 10.0729 5.97917 9.84721 5.97917 9.54166C5.97917 9.2361 5.85417 9.01041 5.60417 8.86457C5.35417 8.71874 5.06076 8.64582 4.72396 8.64582C4.38729 8.64582 4.0991 8.71874 3.85938 8.86457C3.61979 9.01041 3.5 9.2361 3.5 9.54166C3.5 9.84721 3.61979 10.0729 3.85938 10.2187C4.0991 10.3646 4.38729 10.4375 4.72396 10.4375C5.06076 10.4375 5.35417 10.3646 5.60417 10.2187ZM1.875 7.45832V6.52082H4.16667V5.41666H5.25V6.52082H7.54167V7.45832H1.875ZM4.73458 11.375C4.10597 11.375 3.5625 11.2154 3.10417 10.8962C2.64583 10.5771 2.41667 10.1255 2.41667 9.54166C2.41667 8.95832 2.64222 8.50693 3.09333 8.18749C3.54431 7.86805 4.08625 7.70832 4.71917 7.70832C5.36542 7.70832 5.91403 7.86805 6.365 8.18749C6.81611 8.50693 7.04167 8.95832 7.04167 9.54166C7.04167 10.125 6.81764 10.5764 6.36958 10.8958C5.92153 11.2153 5.37653 11.375 4.73458 11.375ZM3.25 14.5833V11.75H4.33333V13.6667H9.625V14.5833H3.25ZM8.125 12.5V5.41666H9.20833V8.39582H10.5833V9.33332H9.22917V12.5H8.125ZM14.4167 13C14.82 13 15.2125 12.8924 15.5942 12.6771C15.9758 12.4618 16.3194 12.1597 16.625 11.7708V9.72916C16.2917 9.77082 15.9799 9.82374 15.6898 9.88791C15.3995 9.95193 15.1279 10.024 14.875 10.1042C14.2639 10.2986 13.8056 10.5417 13.5 10.8333C13.1944 11.125 13.0417 11.4617 13.0417 11.8433C13.0417 12.1978 13.1701 12.4792 13.4271 12.6875C13.684 12.8958 14.0139 13 14.4167 13ZM14 14.2917C13.25 14.2917 12.6493 14.0753 12.1979 13.6425C11.7465 13.2099 11.5208 12.6207 11.5208 11.875C11.5208 11.1711 11.7465 10.5958 12.1979 10.1492C12.6493 9.70249 13.3542 9.34721 14.3125 9.08332C14.6349 8.99582 14.9888 8.91562 15.3742 8.8427C15.7596 8.76978 16.1765 8.70416 16.625 8.64582C16.5833 8.03471 16.4201 7.5868 16.1354 7.30207C15.8507 7.01735 15.4167 6.87499 14.8333 6.87499C14.4722 6.87499 14.125 6.93749 13.7917 7.06249C13.4583 7.18749 13.0417 7.40971 12.5417 7.72916L11.8542 6.60416C12.3264 6.24305 12.8542 5.9618 13.4375 5.76041C14.0208 5.55902 14.5972 5.45832 15.1667 5.45832C16.125 5.45832 16.8576 5.75693 17.3646 6.35416C17.8715 6.95138 18.125 7.81277 18.125 8.93832V14.1042H16.8958L16.75 13.1042C16.3611 13.4792 15.9306 13.7708 15.4583 13.9792C14.9861 14.1875 14.5 14.2917 14 14.2917Z" fill="#1C1B1F"/>
</g>
</svg>
