<svg width="24" height="24" viewBox="0 0 24 24" fill="none" xmlns="http://www.w3.org/2000/svg">
<mask id="mask0_67_2903" style="mask-type:alpha" maskUnits="userSpaceOnUse" x="0" y="0" width="24" height="24">
<rect width="24" height="24" fill="#D9D9D9"/>
</mask>
<g mask="url(#mask0_67_2903)">
<path d="M6.5125 12.2875C6.82083 12.0958 6.975 11.8083 6.975 11.425C6.975 11.0417 6.82083 10.75 6.5125 10.55C6.20417 10.35 5.83333 10.25 5.4 10.25C4.96667 10.25 4.59583 10.35 4.2875 10.55C3.97917 10.75 3.825 11.0417 3.825 11.425C3.825 11.8083 3.97917 12.0958 4.2875 12.2875C4.59583 12.4792 4.96667 12.575 5.4 12.575C5.83333 12.575 6.20417 12.4792 6.5125 12.2875ZM1.875 8.79999V7.69999H4.725V6.29999H6.025V7.69999H8.9V8.79999H1.875ZM5.4 13.675C4.61667 13.675 3.94583 13.4792 3.3875 13.0875C2.82917 12.6958 2.55 12.1417 2.55 11.425C2.55 10.6917 2.82917 10.1333 3.3875 9.74999C3.94583 9.36665 4.61667 9.17499 5.4 9.17499C6.2 9.17499 6.87917 9.36665 7.4375 9.74999C7.99583 10.1333 8.275 10.6917 8.275 11.425C8.275 12.1583 7.99583 12.7167 7.4375 13.1C6.87917 13.4833 6.2 13.675 5.4 13.675ZM3.575 17.7V14.2H4.9V16.6H11.5V17.7H3.575ZM9.7 15.075V6.29999H10.975V10.05H12.7V11.15H11V15.075H9.7ZM17.55 15.65C18.0167 15.65 18.4708 15.5417 18.9125 15.325C19.3542 15.1083 19.7583 14.8 20.125 14.4V11.75C19.7417 11.8 19.3875 11.8583 19.0625 11.925C18.7375 11.9917 18.4333 12.0667 18.15 12.15C17.4 12.3833 16.8375 12.675 16.4625 13.025C16.0875 13.375 15.9 13.7833 15.9 14.25C15.9 14.6833 16.05 15.025 16.35 15.275C16.65 15.525 17.05 15.65 17.55 15.65ZM16.975 17.35C16.025 17.35 15.275 17.0792 14.725 16.5375C14.175 15.9958 13.9 15.2583 13.9 14.325C13.9 13.4583 14.175 12.75 14.725 12.2C15.275 11.65 16.1583 11.2083 17.375 10.875C17.7583 10.775 18.1792 10.6833 18.6375 10.6C19.0958 10.5167 19.5917 10.4417 20.125 10.375C20.0917 9.59165 19.9083 9.02082 19.575 8.66249C19.2417 8.30415 18.725 8.12499 18.025 8.12499C17.5917 8.12499 17.1625 8.20415 16.7375 8.36249C16.3125 8.52082 15.7667 8.79999 15.1 9.19999L14.3 7.79999C14.85 7.38332 15.4958 7.04582 16.2375 6.78749C16.9792 6.52915 17.7333 6.39999 18.5 6.39999C19.6833 6.39999 20.5833 6.76665 21.2 7.49999C21.8167 8.23332 22.125 9.29999 22.125 10.7V17.125H20.45L20.3 16C19.8333 16.4167 19.3208 16.7458 18.7625 16.9875C18.2042 17.2292 17.6083 17.35 16.975 17.35Z" fill="#1C1B1F"/>
</g>
</svg>
