<svg width="43" height="40" viewBox="0 0 43 40" fill="none" xmlns="http://www.w3.org/2000/svg">
<g clip-path="url(#clip0_16_680)">
<path d="M17.7277 6.5L21.1111 8.58974L24.4946 6.5H38.2778V9.27778H25.2832L21.1111 11.8547L16.939 9.27778H3.8889V6.5H17.7277Z" fill="white"/>
<path d="M12.3889 14.8335V17.0557H3.8889V14.8335H12.3889Z" fill="white"/>
<path d="M9.63141 16.6625L5.40919 24.0514L3.47972 22.9489L7.70194 15.5601L9.63141 16.6625Z" fill="white"/>
<path d="M6.70193 16.6625L10.9242 24.0514L12.8536 22.9489L8.6314 15.5601L6.70193 16.6625Z" fill="white"/>
<path d="M38.3333 14.8887V19.222H36.1111V17.1109H30.7778V14.8887H38.3333Z" fill="white"/>
<path d="M30.7778 24.1113V18.8891H33V21.8891H38.3333V24.1113H30.7778Z" fill="white"/>
<path d="M38.3333 18.8335V21.0557H30.7778V18.8335H38.3333Z" fill="white"/>
<path d="M24.8889 13.5V24H22.6667V13.5H24.8889Z" fill="#C4100F"/>
<path d="M17.7277 27.9443L21.1111 30.0341L24.4946 27.9443H38.2778V30.7221H25.2832L21.1111 33.299L16.939 30.7221H3.8889V27.9443H17.7277Z" fill="white"/>
<path d="M26.5556 21.8613V24.0836H16.5556V21.8613H26.5556Z" fill="white"/>
<path d="M20.4445 13.5V24.0556H18.2222V13.5H20.4445Z" fill="#C4100F"/>
<path d="M26.5556 14.9722V17.1944H16.5556V14.9722H26.5556Z" fill="white"/>
</g>
<defs>
<clipPath id="clip0_16_680">
<rect width="42.2222" height="40" fill="white"/>
</clipPath>
</defs>
</svg>
