<svg width="24" height="24" viewBox="0 0 24 24" fill="none" xmlns="http://www.w3.org/2000/svg">
<mask id="mask0_3_33" style="mask-type:alpha" maskUnits="userSpaceOnUse" x="0" y="0" width="24" height="24">
<rect width="24" height="24" fill="#D9D9D9"/>
</mask>
<g mask="url(#mask0_3_33)">
<path d="M20.55 22C19.85 22 18.9083 21.7083 17.725 21.125C16.5417 20.5417 15.275 19.75 13.925 18.75C13.6083 18.8333 13.2875 18.8958 12.9625 18.9375C12.6375 18.9792 12.3083 19 11.975 19C10.025 19 8.37499 18.325 7.02499 16.975C5.67499 15.625 4.99999 13.975 4.99999 12.025C4.99999 11.6917 5.02499 11.3583 5.07499 11.025C5.12499 10.6917 5.19166 10.3667 5.27499 10.05C4.29166 8.7 3.50416 7.4375 2.91249 6.2625C2.32083 5.0875 2.02499 4.15 2.02499 3.45C2.02499 3 2.14999 2.64583 2.39999 2.3875C2.64999 2.12917 2.99166 2 3.42499 2C3.85833 2 4.42083 2.15 5.11249 2.45C5.80416 2.75 6.75833 3.25833 7.97499 3.975C7.62499 4.15833 7.29999 4.35 6.99999 4.55C6.69999 4.75 6.40833 4.96667 6.12499 5.2C5.80833 5.01667 5.49999 4.85833 5.19999 4.725C4.89999 4.59167 4.58333 4.45 4.24999 4.3C4.54999 4.93333 4.87083 5.55 5.21249 6.15C5.55416 6.75 5.91666 7.34167 6.29999 7.925C6.93333 7.025 7.74166 6.31667 8.72499 5.8C9.70833 5.28333 10.7917 5.025 11.975 5.025C13.925 5.025 15.5792 5.70417 16.9375 7.0625C18.2958 8.42083 18.975 10.075 18.975 12.025C18.975 13.2083 18.7125 14.2917 18.1875 15.275C17.6625 16.2583 16.95 17.0667 16.05 17.7C16.6333 18.0833 17.2292 18.45 17.8375 18.8C18.4458 19.15 19.0667 19.4667 19.7 19.75C19.5667 19.4333 19.4292 19.125 19.2875 18.825C19.1458 18.525 18.9833 18.2167 18.8 17.9C19.05 17.6167 19.275 17.3167 19.475 17C19.675 16.6833 19.8583 16.3583 20.025 16.025C20.7917 17.325 21.3125 18.2958 21.5875 18.9375C21.8625 19.5792 22 20.1167 22 20.55C22 21.0333 21.8667 21.3958 21.6 21.6375C21.3333 21.8792 20.9833 22 20.55 22ZM11.7 16.975C10.85 16.2417 10.0333 15.4833 9.24999 14.7C8.46666 13.9167 7.71666 13.1 6.99999 12.25C7.03333 12.8833 7.17499 13.4792 7.42499 14.0375C7.67499 14.5958 8.01666 15.0917 8.44999 15.525C8.88333 15.9583 9.37499 16.3 9.92499 16.55C10.475 16.8 11.0667 16.9417 11.7 16.975ZM14.275 16.45C15.075 16.0333 15.725 15.4292 16.225 14.6375C16.725 13.8458 16.975 12.9667 16.975 12C16.975 10.6167 16.4875 9.44167 15.5125 8.475C14.5375 7.50833 13.3583 7.025 11.975 7.025C11.0083 7.025 10.1333 7.275 9.34999 7.775C8.56666 8.275 7.96666 8.925 7.54999 9.725C8.49999 10.9917 9.54166 12.1917 10.675 13.325C11.8083 14.4583 13.0083 15.5 14.275 16.45Z" fill="black"/>
</g>
</svg>
