<svg width="24" height="24" viewBox="0 0 24 24" fill="none" xmlns="http://www.w3.org/2000/svg">
<mask id="mask0_85_7168" style="mask-type:alpha" maskUnits="userSpaceOnUse" x="0" y="0" width="24" height="24">
<rect width="24" height="24" fill="#D9D9D9"/>
</mask>
<g mask="url(#mask0_85_7168)">
<path d="M8 12.9051C8.28333 12.9051 8.52083 12.8067 8.7125 12.6099C8.90417 12.4131 9 12.1692 9 11.8782C9 11.5873 8.90417 11.3434 8.7125 11.1466C8.52083 10.9498 8.28333 10.8514 8 10.8514C7.71667 10.8514 7.47917 10.9498 7.2875 11.1466C7.09583 11.3434 7 11.5873 7 11.8782C7 12.1692 7.09583 12.4131 7.2875 12.6099C7.47917 12.8067 7.71667 12.9051 8 12.9051ZM12 12.9051C12.2833 12.9051 12.5208 12.8067 12.7125 12.6099C12.9042 12.4131 13 12.1692 13 11.8782C13 11.5873 12.9042 11.3434 12.7125 11.1466C12.5208 10.9498 12.2833 10.8514 12 10.8514C11.7167 10.8514 11.4792 10.9498 11.2875 11.1466C11.0958 11.3434 11 11.5873 11 11.8782C11 12.1692 11.0958 12.4131 11.2875 12.6099C11.4792 12.8067 11.7167 12.9051 12 12.9051ZM16 12.9051C16.2833 12.9051 16.5208 12.8067 16.7125 12.6099C16.9042 12.4131 17 12.1692 17 11.8782C17 11.5873 16.9042 11.3434 16.7125 11.1466C16.5208 10.9498 16.2833 10.8514 16 10.8514C15.7167 10.8514 15.4792 10.9498 15.2875 11.1466C15.0958 11.3434 15 11.5873 15 11.8782C15 12.1692 15.0958 12.4131 15.2875 12.6099C15.4792 12.8067 15.7167 12.9051 16 12.9051ZM2 24.2002V5.71724C2 5.15248 2.19583 4.66902 2.5875 4.26684C2.97917 3.86466 3.45 3.66357 4 3.66357H20C20.55 3.66357 21.0208 3.86466 21.4125 4.26684C21.8042 4.66902 22 5.15248 22 5.71724V18.0392C22 18.604 21.8042 19.0875 21.4125 19.4896C21.0208 19.8918 20.55 20.0929 20 20.0929H6L2 24.2002ZM5.15 18.0392H20V5.71724H4V19.1944L5.15 18.0392Z" fill="black"/>
</g>
</svg>
