<svg xmlns="http://www.w3.org/2000/svg" style="display:none"><symbol id="account_circle" viewBox="0 0 24 24">
<mask id="account_circle__mask0_5_234" style="mask-type:alpha" maskUnits="userSpaceOnUse" x="0" y="0" width="24" height="24">
<rect width="24" height="24" fill="#D9D9D9"/>
</mask>
<g mask="url(#account_circle__mask0_5_234)">
<path d="M5.85 17.1C6.7 16.45 7.65 15.9375 8.7 15.5625C9.75 15.1875 10.85 15 12 15C13.15 15 14.25 15.1875 15.3 15.5625C16.35 15.9375 17.3 16.45 18.15 17.1C18.7333 16.4167 19.1875 15.6417 19.5125 14.775C19.8375 13.9083 20 12.9833 20 12C20 9.78333 19.2208 7.89583 17.6625 6.3375C16.1042 4.77917 14.2167 4 12 4C9.78333 4 7.89583 4.77917 6.3375 6.3375C4.77917 7.89583 4 9.78333 4 12C4 12.9833 4.1625 13.9083 4.4875 14.775C4.8125 15.6417 5.26667 16.4167 5.85 17.1ZM12 13C11.0167 13 10.1875 12.6625 9.5125 11.9875C8.8375 11.3125 8.5 10.4833 8.5 9.5C8.5 8.51667 8.8375 7.6875 9.5125 7.0125C10.1875 6.3375 11.0167 6 12 6C12.9833 6 13.8125 6.3375 14.4875 7.0125C15.1625 7.6875 15.5 8.51667 15.5 9.5C15.5 10.4833 15.1625 11.3125 14.4875 11.9875C13.8125 12.6625 12.9833 13 12 13ZM12 22C10.6167 22 9.31667 21.7375 8.1 21.2125C6.88333 20.6875 5.825 19.975 4.925 19.075C4.025 18.175 3.3125 17.1167 2.7875 15.9C2.2625 14.6833 2 13.3833 2 12C2 10.6167 2.2625 9.31667 2.7875 8.1C3.3125 6.88333 4.025 5.825 4.925 4.925C5.825 4.025 6.88333 3.3125 8.1 2.7875C9.31667 2.2625 10.6167 2 12 2C13.3833 2 14.6833 2.2625 15.9 2.7875C17.1167 3.3125 18.175 4.025 19.075 4.925C19.975 5.825 20.6875 6.88333 21.2125 8.1C21.7375 9.31667 22 10.6167 22 12C22 13.3833 21.7375 14.6833 21.2125 15.9C20.6875 17.1167 19.975 18.175 19.075 19.075C18.175 19.975 17.1167 20.6875 15.9 21.2125C14.6833 21.7375 13.3833 22 12 22ZM12 20C12.8833 20 13.7167 19.8708 14.5 19.6125C15.2833 19.3542 16 18.9833 16.65 18.5C16 18.0167 15.2833 17.6458 14.5 17.3875C13.7167 17.1292 12.8833 17 12 17C11.1167 17 10.2833 17.1292 9.5 17.3875C8.71667 17.6458 8 18.0167 7.35 18.5C8 18.9833 8.71667 19.3542 9.5 19.6125C10.2833 19.8708 11.1167 20 12 20ZM12 11C12.4333 11 12.7917 10.8583 13.075 10.575C13.3583 10.2917 13.5 9.93333 13.5 9.5C13.5 9.06667 13.3583 8.70833 13.075 8.425C12.7917 8.14167 12.4333 8 12 8C11.5667 8 11.2083 8.14167 10.925 8.425C10.6417 8.70833 10.5 9.06667 10.5 9.5C10.5 9.93333 10.6417 10.2917 10.925 10.575C11.2083 10.8583 11.5667 11 12 11Z" fill="currentColor"/>
</g>
</symbol><symbol id="add" viewBox="0 0 20 20">
<mask id="add__mask0_26_1047" style="mask-type:alpha" maskUnits="userSpaceOnUse" x="0" y="0" width="20" height="20">
<rect width="20" height="20" fill="#D9D9D9"/>
</mask>
<g mask="url(#add__mask0_26_1047)">
<path d="M9.25 10.75H5V9.25H9.25V5H10.75V9.25H15V10.75H10.75V15H9.25V10.75Z" fill="currentColor"/>
</g>
</symbol><symbol id="arrow_left_alt" viewBox="0 0 20 20">
<mask id="arrow_left_alt__mask0_3_97" style="mask-type:alpha" maskUnits="userSpaceOnUse" x="0" y="0" width="20" height="20">
<rect width="20" height="20" fill="#D9D9D9"/>
</mask>
<g mask="url(#arrow_left_alt__mask0_3_97)">
<path d="M8 14L4 10L8 6L9.0625 7.0625L6.875 9.25H16V10.75H6.875L9.0625 12.9375L8 14Z" fill="currentColor"/>
</g>
</symbol><symbol id="arrow_right_alt" viewBox="0 0 20 20">
<mask id="arrow_right_alt__mask0_3_314" style="mask-type:alpha" maskUnits="userSpaceOnUse" x="0" y="0" width="20" height="20">
<rect width="19.5719" height="20" transform="matrix(-1 0 0 1 20 0)" fill="#D9D9D9"/>
</mask>
<g mask="url(#arrow_right_alt__mask0_3_314)">
<path d="M10.6656 14.7115L11.5252 13.8077L8.4106 10.625H18.2875V9.37503H8.4106L11.5252 6.19232L10.6656 5.28857L6.05504 10L10.6656 14.7115Z" fill="currentColor"/>
<path d="M7.87247 6.06253L4.01151 10L7.87247 13.9375L7.11508 14.7115L2.50448 10L7.11508 5.28857L7.87247 6.06253Z" fill="currentColor"/>
</g>
<mask id="arrow_right_alt__mask1_3_314" style="mask-type:alpha" maskUnits="userSpaceOnUse" x="0" y="0" width="20" height="20">
<path d="M19.5719 0H3.8147e-06V20H19.5719V0Z" fill="#D9D9D9"/>
</mask>
<g mask="url(#arrow_right_alt__mask1_3_314)">
</g>
</symbol><symbol id="azm" viewBox="0 0 24 24">
<mask id="azm__mask0_3_41" style="mask-type:alpha" maskUnits="userSpaceOnUse" x="0" y="0" width="24" height="24">
<rect width="24" height="24" fill="#D9D9D9"/>
</mask>
<g mask="url(#azm__mask0_3_41)">
<path d="M10 23V14H1L11 4H20V13L10 23ZM16 14.175L18 12.175V6H11.825L9.825 8H16V14.175ZM12 18.175L14 16.175V10H7.825L5.825 12H12V18.175Z" fill="currentColor"/>
</g>
</symbol><symbol id="balance" viewBox="0 0 20 20">
<mask id="balance__mask0_58_2576" style="mask-type:alpha" maskUnits="userSpaceOnUse" x="0" y="0" width="20" height="20">
<rect width="20" height="20" fill="#D9D9D9"/>
</mask>
<g mask="url(#balance__mask0_58_2576)">
<path d="M2 17V15.5H9.25V6.375C8.93056 6.26389 8.64931 6.08681 8.40625 5.84375C8.16319 5.60069 7.98611 5.31944 7.875 5H5L7.5 10.75C7.48611 11.4306 7.20139 11.9757 6.64583 12.3854C6.09028 12.7951 5.45833 13 4.75 13C4.04167 13 3.40972 12.7951 2.85417 12.3854C2.29861 11.9757 2.01389 11.4306 2 10.75L4.5 5H3V3.5H7.86771C8.02535 3.05556 8.29792 2.69444 8.68542 2.41667C9.07292 2.13889 9.51042 2 9.99792 2C10.4854 2 10.9236 2.13889 11.3125 2.41667C11.7014 2.69444 11.9747 3.05313 12.1323 3.49271H17V5H15.5L18 10.745C18 11.4289 17.7222 11.9757 17.1667 12.3854C16.6111 12.7951 15.9757 13 15.2604 13C14.5451 13 13.9097 12.7951 13.3542 12.3854C12.7986 11.9757 12.5139 11.4306 12.5 10.75L15 5H12.125C12.0139 5.31944 11.8368 5.60069 11.5938 5.84375C11.3507 6.08681 11.0694 6.26389 10.75 6.375V15.5H18V17H2ZM13.5833 10.75H16.9167L15.25 6.9375L13.5833 10.75ZM3.08333 10.75H6.41667L4.75 6.9375L3.08333 10.75ZM9.99563 5C10.2069 5 10.3854 4.92854 10.5312 4.78563C10.6771 4.64271 10.75 4.46563 10.75 4.25438C10.75 4.04313 10.6785 3.86458 10.5356 3.71875C10.3927 3.57292 10.2156 3.5 10.0044 3.5C9.79313 3.5 9.61458 3.57146 9.46875 3.71437C9.32292 3.85729 9.25 4.03437 9.25 4.24562C9.25 4.45687 9.32146 4.63542 9.46438 4.78125C9.60729 4.92708 9.78438 5 9.99563 5Z" fill="#1C1B1F"/>
</g>
</symbol><symbol id="book_4" viewBox="0 0 24 24">
<mask id="book_4__mask0_7_133" style="mask-type:alpha" maskUnits="userSpaceOnUse" x="0" y="0" width="24" height="24">
<rect width="24" height="24" fill="#D9D9D9"/>
</mask>
<g mask="url(#book_4__mask0_7_133)">
<path d="M6.1155 21.5C5.389 21.5 4.77142 21.2476 4.26275 20.7428C3.75425 20.2379 3.5 19.6249 3.5 18.9038V5.1155C3.5 4.389 3.75425 3.77142 4.26275 3.26275C4.77142 2.75425 5.389 2.5 6.1155 2.5H16.8077V17.8077H6.1155C5.8065 17.8077 5.54333 17.9126 5.326 18.1223C5.10867 18.3321 5 18.5921 5 18.9023C5 19.2122 5.10867 19.4727 5.326 19.6838C5.54333 19.8946 5.8065 20 6.1155 20H19V4.5H20.5V21.5H6.1155ZM8.69225 16.3077H15.3077V4H8.69225V16.3077ZM7.19225 16.3077V4H6.1155C5.79933 4 5.53442 4.10867 5.32075 4.326C5.10692 4.54333 5 4.8065 5 5.1155V16.598C5.173 16.516 5.34983 16.4471 5.5305 16.3913C5.71117 16.3356 5.90617 16.3077 6.1155 16.3077H7.19225Z" fill="currentColor"/>
</g>
</symbol><symbol id="book_5" viewBox="0 0 24 24">
<mask id="book_5__mask0_7_139" style="mask-type:alpha" maskUnits="userSpaceOnUse" x="0" y="0" width="24" height="24">
<rect width="24" height="24" fill="#D9D9D9"/>
</mask>
<g mask="url(#book_5__mask0_7_139)">
<path d="M6.8655 21.5C6.218 21.5 5.66192 21.2827 5.19725 20.848C4.73242 20.4135 4.5 19.8757 4.5 19.2345V5.58275C4.5 5.00709 4.68625 4.4965 5.05875 4.051C5.43108 3.6055 5.90508 3.3225 6.48075 3.202L15.8077 1.3V16.6078L6.6405 18.5173C6.46483 18.5571 6.31417 18.6427 6.1885 18.774C6.06283 18.9055 6 19.059 6 19.2345C6 19.4563 6.08625 19.6394 6.25875 19.7838C6.43108 19.9279 6.63333 20 6.8655 20H18V4.5H19.5V21.5H6.8655ZM8.69225 16.579L14.3077 15.4115V3.14425L8.69225 4.29225V16.579ZM7.19225 16.8828V4.59625L6.7885 4.68075C6.56033 4.72692 6.37183 4.83175 6.223 4.99525C6.07433 5.15875 6 5.35459 6 5.58275V17.229C6.1025 17.1763 6.20767 17.1311 6.3155 17.0933C6.42317 17.0554 6.5315 17.025 6.6405 17.002L7.19225 16.8828Z" fill="currentColor"/>
</g>
</symbol><symbol id="book_ribbon" viewBox="0 0 24 24">
<mask id="book_ribbon__mask0_9_164" style="mask-type:alpha" maskUnits="userSpaceOnUse" x="0" y="0" width="24" height="24">
<rect width="24" height="24" fill="#D9D9D9"/>
</mask>
<g mask="url(#book_ribbon__mask0_9_164)">
<path d="M11.25 17.1848V7.35375C10.5475 6.89608 9.78725 6.55283 8.96925 6.324C8.15125 6.09517 7.32817 5.98075 6.5 5.98075C5.9 5.98075 5.33942 6.02783 4.81825 6.122C4.29708 6.21633 3.7615 6.3705 3.2115 6.5845C3.13467 6.61017 3.08017 6.64708 3.048 6.69525C3.016 6.74325 3 6.79608 3 6.85375V16.3115C3 16.4013 3.03208 16.4671 3.09625 16.5087C3.16025 16.5504 3.23075 16.5552 3.30775 16.523C3.78208 16.3615 4.28267 16.2372 4.8095 16.15C5.3365 16.0628 5.9 16.0193 6.5 16.0193C7.32817 16.0193 8.13392 16.1132 8.91725 16.301C9.70058 16.4888 10.4782 16.7834 11.25 17.1848ZM12 19.3845C11.1937 18.7897 10.3238 18.3301 9.3905 18.0057C8.45717 17.6814 7.49367 17.5193 6.5 17.5193C5.88983 17.5193 5.2905 17.5868 4.702 17.722C4.1135 17.8573 3.54617 18.0564 3 18.3193C2.64367 18.4833 2.30458 18.4573 1.98275 18.2413C1.66092 18.0253 1.5 17.7192 1.5 17.323V6.4655C1.5 6.25 1.5555 6.04775 1.6665 5.85875C1.77733 5.66958 1.93725 5.53333 2.14625 5.45C2.82308 5.1205 3.5285 4.87658 4.2625 4.71825C4.9965 4.55992 5.74233 4.48075 6.5 4.48075C7.66283 4.48075 8.67275 4.62083 9.52975 4.901C10.3868 5.18117 11.2864 5.60325 12.2288 6.16725C12.3993 6.26092 12.5288 6.37758 12.6173 6.51725C12.7058 6.65708 12.75 6.82892 12.75 7.03275V17.1848C13.5218 16.7834 14.2994 16.4888 15.0828 16.301C15.8661 16.1132 16.6718 16.0193 17.5 16.0193C18.1 16.0193 18.6635 16.0628 19.1905 16.15C19.7173 16.2372 20.2179 16.3615 20.6923 16.523C20.7693 16.5552 20.8398 16.5504 20.9038 16.5087C20.9679 16.4671 21 16.4013 21 16.3115V5.08475C21.1538 5.13592 21.3051 5.19233 21.4538 5.254C21.6026 5.3155 21.7488 5.38725 21.8923 5.46925C22.0947 5.55892 22.2467 5.69517 22.348 5.878C22.4493 6.06067 22.5 6.2565 22.5 6.4655V17.323C22.5 17.7192 22.3327 18.0221 21.998 18.2318C21.6633 18.4413 21.3114 18.464 20.9423 18.3C20.4026 18.0435 19.8433 17.8492 19.2645 17.7172C18.6857 17.5852 18.0975 17.5193 17.5 17.5193C16.5063 17.5193 15.5428 17.6814 14.6095 18.0057C13.6762 18.3301 12.8063 18.7897 12 19.3845ZM15.3462 14V3.5L18.4038 2.5V13L15.3462 14Z" fill="currentColor"/>
</g>
</symbol><symbol id="business_center" viewBox="0 0 24 24">
<mask id="business_center__mask0_3_37" style="mask-type:alpha" maskUnits="userSpaceOnUse" x="0" y="0" width="24" height="24">
<rect width="24" height="24" fill="#D9D9D9"/>
</mask>
<g mask="url(#business_center__mask0_3_37)">
<path d="M4 21C3.45 21 2.97917 20.8042 2.5875 20.4125C2.19583 20.0208 2 19.55 2 19V8C2 7.45 2.19583 6.97917 2.5875 6.5875C2.97917 6.19583 3.45 6 4 6H8V4C8 3.45 8.19583 2.97917 8.5875 2.5875C8.97917 2.19583 9.45 2 10 2H14C14.55 2 15.0208 2.19583 15.4125 2.5875C15.8042 2.97917 16 3.45 16 4V6H20C20.55 6 21.0208 6.19583 21.4125 6.5875C21.8042 6.97917 22 7.45 22 8V19C22 19.55 21.8042 20.0208 21.4125 20.4125C21.0208 20.8042 20.55 21 20 21H4ZM10 6H14V4H10V6ZM20 15H15V17H9V15H4V19H20V15ZM11 15H13V13H11V15ZM4 13H9V11H15V13H20V8H4V13Z" fill="currentColor"/>
</g>
</symbol><symbol id="calculate" viewBox="0 0 24 24">
<mask id="calculate__mask0_85_7175" style="mask-type:alpha" maskUnits="userSpaceOnUse" x="0" y="0" width="24" height="24">
<rect width="24" height="24" fill="#D9D9D9"/>
</mask>
<g mask="url(#calculate__mask0_85_7175)">
<path d="M8 18H9.5V16H11.5V14.5H9.5V12.5H8V14.5H6V16H8V18ZM13 17.25H18V15.75H13V17.25ZM13 14.75H18V13.25H13V14.75ZM14.1 10.95L15.5 9.55L16.9 10.95L17.95 9.9L16.55 8.45L17.95 7.05L16.9 6L15.5 7.4L14.1 6L13.05 7.05L14.45 8.45L13.05 9.9L14.1 10.95ZM6.25 9.2H11.25V7.7H6.25V9.2ZM5 21C4.45 21 3.97917 20.8042 3.5875 20.4125C3.19583 20.0208 3 19.55 3 19V5C3 4.45 3.19583 3.97917 3.5875 3.5875C3.97917 3.19583 4.45 3 5 3H19C19.55 3 20.0208 3.19583 20.4125 3.5875C20.8042 3.97917 21 4.45 21 5V19C21 19.55 20.8042 20.0208 20.4125 20.4125C20.0208 20.8042 19.55 21 19 21H5ZM5 19H19V5H5V19Z" fill="currentColor"/>
</g>
</symbol><symbol id="cancel" viewBox="0 0 24 24">
<mask id="cancel__mask0_85_7200" style="mask-type:alpha" maskUnits="userSpaceOnUse" x="0" y="0" width="24" height="24">
<rect width="24" height="24" fill="#D9D9D9"/>
</mask>
<g mask="url(#cancel__mask0_85_7200)">
<path d="M8.4 17L12 13.4L15.6 17L17 15.6L13.4 12L17 8.4L15.6 7L12 10.6L8.4 7L7 8.4L10.6 12L7 15.6L8.4 17ZM12 22C10.6167 22 9.31667 21.7375 8.1 21.2125C6.88333 20.6875 5.825 19.975 4.925 19.075C4.025 18.175 3.3125 17.1167 2.7875 15.9C2.2625 14.6833 2 13.3833 2 12C2 10.6167 2.2625 9.31667 2.7875 8.1C3.3125 6.88333 4.025 5.825 4.925 4.925C5.825 4.025 6.88333 3.3125 8.1 2.7875C9.31667 2.2625 10.6167 2 12 2C13.3833 2 14.6833 2.2625 15.9 2.7875C17.1167 3.3125 18.175 4.025 19.075 4.925C19.975 5.825 20.6875 6.88333 21.2125 8.1C21.7375 9.31667 22 10.6167 22 12C22 13.3833 21.7375 14.6833 21.2125 15.9C20.6875 17.1167 19.975 18.175 19.075 19.075C18.175 19.975 17.1167 20.6875 15.9 21.2125C14.6833 21.7375 13.3833 22 12 22ZM12 20C14.2333 20 16.125 19.225 17.675 17.675C19.225 16.125 20 14.2333 20 12C20 9.76667 19.225 7.875 17.675 6.325C16.125 4.775 14.2333 4 12 4C9.76667 4 7.875 4.775 6.325 6.325C4.775 7.875 4 9.76667 4 12C4 14.2333 4.775 16.125 6.325 17.675C7.875 19.225 9.76667 20 12 20Z" fill="currentColor"/>
</g>
</symbol><symbol id="category_search" viewBox="0 0 20 20">
<mask id="category_search__mask0_14_790" style="mask-type:alpha" maskUnits="userSpaceOnUse" x="0" y="0" width="20" height="20">
<rect width="20" height="20" fill="#D9D9D9"/>
</mask>
<g mask="url(#category_search__mask0_14_790)">
<path d="M2 16.5V10.5H8V16.5H2ZM3.5 15H6.5V12H3.5V15ZM4.75 8L9 1L13.25 8H4.75ZM7.41667 6.5H10.5833L9 3.89583L7.41667 6.5ZM17.6458 18.7083L15.3958 16.4583C15.1228 16.6389 14.827 16.7743 14.5085 16.8646C14.1901 16.9549 13.8553 17 13.5042 17C12.5292 17 11.7014 16.6597 11.0208 15.9792C10.3403 15.2986 10 14.4722 10 13.5C10 12.5278 10.3403 11.7014 11.0208 11.0208C11.7014 10.3403 12.5278 10 13.5 10C14.4722 10 15.2986 10.3403 15.9792 11.0208C16.6597 11.7014 17 12.5278 17 13.5C17 13.8424 16.9532 14.1748 16.8596 14.4973C16.766 14.8198 16.6322 15.1193 16.4583 15.3958L18.7083 17.6458L17.6458 18.7083ZM13.4952 15.5C14.054 15.5 14.5278 15.3072 14.9167 14.9215C15.3056 14.5356 15.5 14.0634 15.5 13.5048C15.5 12.946 15.3072 12.4722 14.9215 12.0833C14.5356 11.6944 14.0634 11.5 13.5048 11.5C12.946 11.5 12.4722 11.6928 12.0833 12.0785C11.6944 12.4644 11.5 12.9366 11.5 13.4952C11.5 14.054 11.6928 14.5278 12.0785 14.9167C12.4644 15.3056 12.9366 15.5 13.4952 15.5Z" fill="currentColor"/>
</g>
</symbol><symbol id="chat" viewBox="0 0 24 24">
<mask id="chat__mask0_85_7171" style="mask-type:alpha" maskUnits="userSpaceOnUse" x="0" y="0" width="24" height="24">
<rect width="24" height="24" fill="#D9D9D9"/>
</mask>
<g mask="url(#chat__mask0_85_7171)">
<path d="M6 14H14V12H6V14ZM6 11H18V9H6V11ZM6 8H18V6H6V8ZM2 22V4C2 3.45 2.19583 2.97917 2.5875 2.5875C2.97917 2.19583 3.45 2 4 2H20C20.55 2 21.0208 2.19583 21.4125 2.5875C21.8042 2.97917 22 3.45 22 4V16C22 16.55 21.8042 17.0208 21.4125 17.4125C21.0208 17.8042 20.55 18 20 18H6L2 22ZM5.15 16H20V4H4V17.125L5.15 16Z" fill="currentColor"/>
</g>
</symbol><symbol id="check_circle" viewBox="0 0 102 98">
<mask id="check_circle__mask0_209_16976" style="mask-type:alpha" maskUnits="userSpaceOnUse" x="0" y="0" width="147" height="147">
<rect width="147" height="147" fill="#D9D9D9"/>
</mask>
<g mask="url(#check_circle__mask0_209_16976)">
<path d="M64.6654 103.405L109.145 58.9272L98.2334 47.9282L64.6654 81.4963L48.2488 65.0782L37.3371 76.0772L64.6654 103.405ZM73.5007 137.693C64.5663 137.693 56.2001 136.011 48.402 132.646C40.6048 129.282 33.8224 124.715 28.0547 118.946C22.286 113.178 17.7193 106.396 14.3546 98.5988C10.99 90.8007 9.30762 82.4345 9.30762 73.5001C9.30762 64.5658 10.99 56.1996 14.3546 48.4014C17.7193 40.6043 22.286 33.8219 28.0547 28.0542C33.8224 22.2854 40.6048 17.7187 48.402 14.3541C56.2001 10.9894 64.5663 9.30707 73.5007 9.30707C82.435 9.30707 90.8012 10.9894 98.5994 14.3541C106.397 17.7187 113.179 22.2854 118.947 28.0542C124.715 33.8219 129.282 40.6043 132.647 48.4014C136.011 56.1996 137.694 64.5658 137.694 73.5001C137.694 82.4345 136.011 90.8007 132.647 98.5988C129.282 106.396 124.715 113.178 118.947 118.946C113.179 124.715 106.397 129.282 98.5994 132.646C90.8012 136.011 82.435 137.693 73.5007 137.693Z" fill="#1C1B1F"/>
</g>
</symbol><symbol id="check_small" viewBox="0 0 24 24">
<mask id="check_small__mask0_85_7187" style="mask-type:alpha" maskUnits="userSpaceOnUse" x="0" y="0" width="24" height="24">
<rect width="24" height="24" fill="#D9D9D9"/>
</mask>
<g mask="url(#check_small__mask0_85_7187)">
<path d="M10 16.4L6 12.4L7.4 11L10 13.6L16.6 7L18 8.4L10 16.4Z" fill="currentColor"/>
</g>
</symbol><symbol id="clear_all" viewBox="0 0 24 24">
<mask id="clear_all__mask0_194_15003" style="mask-type:alpha" maskUnits="userSpaceOnUse" x="0" y="0" width="24" height="24">
<rect width="24" height="24" fill="#D9D9D9"/>
</mask>
<g mask="url(#clear_all__mask0_194_15003)">
<path d="M3 17V15H17V17H3ZM5 13V11H19V13H5ZM7 9V7H21V9H7Z" fill="#474554"/>
</g>
</symbol><symbol id="close" viewBox="0 0 20 20">
<mask id="close__mask0_26_1129" style="mask-type:alpha" maskUnits="userSpaceOnUse" x="0" y="0" width="20" height="20">
<rect width="20" height="20" fill="#D9D9D9"/>
</mask>
<g mask="url(#close__mask0_26_1129)">
<path d="M6.0625 15.3769L4.62312 13.9375L8.56062 10L4.62312 6.06254L6.0625 4.62317L10 8.56067L13.9375 4.62317L15.3769 6.06254L11.4394 10L15.3769 13.9375L13.9375 15.3769L10 11.4394L6.0625 15.3769Z" fill="currentColor"/>
</g>
</symbol><symbol id="collapse_content_20" viewBox="0 0 20 20">
<mask id="collapse_content_20__mask0_31_783" style="mask-type:alpha" maskUnits="userSpaceOnUse" x="0" y="0" width="20" height="20">
<rect width="20" height="20" fill="#D9D9D9"/>
</mask>
<g mask="url(#collapse_content_20__mask0_31_783)">
<path d="M9 11V16H7.5V12.5H4V11H9ZM12.5 4V7.5H16V9H11V4H12.5Z" fill="currentColor"/>
</g>
</symbol><symbol id="collapse_content_30" viewBox="0 0 30 30">
<mask id="collapse_content_30__mask0_124_7137" style="mask-type:alpha" maskUnits="userSpaceOnUse" x="0" y="0" width="30" height="30">
<rect width="30" height="30" fill="#D9D9D9"/>
</mask>
<g mask="url(#collapse_content_30__mask0_124_7137)">
<path d="M13.75 16.25V23.75H11.25V18.75H6.25V16.25H13.75ZM18.75 6.25V11.25H23.75V13.75H16.25V6.25H18.75Z" fill="currentColor"/>
</g>
</symbol><symbol id="collapse_content_34" viewBox="0 0 34 34">
<mask id="collapse_content_34__mask0_4_179" style="mask-type:alpha" maskUnits="userSpaceOnUse" x="0" y="0" width="34" height="34">
<rect width="34" height="34" fill="#D9D9D9"/>
</mask>
<g mask="url(#collapse_content_34__mask0_4_179)">
<path d="M15.5833 18.4167V26.9167H12.75V21.25H7.08334V18.4167H15.5833ZM21.25 7.08333V12.75H26.9167V15.5833H18.4167V7.08333H21.25Z" fill="currentColor"/>
</g>
</symbol><symbol id="collapse_content" viewBox="0 0 24 24">
<mask id="collapse_content__mask0_3_237" style="mask-type:alpha" maskUnits="userSpaceOnUse" x="0" y="0" width="24" height="24">
<rect width="24" height="24" fill="#D9D9D9"/>
</mask>
<g mask="url(#collapse_content__mask0_3_237)">
<path d="M11 13V19H9V15H5V13H11ZM15 5V9H19V11H13V5H15Z" fill="currentColor"/>
</g>
</symbol><symbol id="contact_support" viewBox="0 0 99 127">
<mask id="contact_support__mask0_209_17130" style="mask-type:alpha" maskUnits="userSpaceOnUse" x="0" y="0" width="127" height="127">
<rect x="127" y="127" width="127" height="127" transform="rotate(-180 127 127)" fill="#D9D9D9"/>
</mask>
<g mask="url(#contact_support__mask0_209_17130)">
<path d="M66.9414 6.2471L67.6664 24.2904L69.2142 24.3644C82.0368 25.212 92.8009 30.2633 101.507 39.5185C110.213 48.7727 114.566 59.8363 114.566 72.7091C114.566 86.1799 109.864 97.5923 100.46 106.946C91.056 116.301 79.6185 120.978 66.1477 120.978C59.4369 120.978 53.1579 119.71 47.3106 117.174C41.4625 114.637 36.3384 111.169 31.9383 106.769C27.5383 102.369 24.0701 97.2448 21.5336 91.3966C18.9971 85.5493 17.7289 79.2703 17.7289 72.5596C17.7289 65.1972 19.0209 58.2113 21.605 51.602C24.19 44.9936 27.7055 38.876 32.1513 33.2492C36.5972 27.6215 41.8113 22.5415 47.7935 18.0091C53.7757 13.4768 60.1584 9.55615 66.9414 6.2471ZM66.2045 42.8403C64.4063 42.8403 62.8906 43.4563 61.6577 44.6884C60.4256 45.9214 59.8096 47.437 59.8096 49.2353C59.8096 51.0345 60.4256 52.5501 61.6577 53.7821C62.8906 55.0151 64.4063 55.6316 66.2045 55.6316C68.0037 55.6316 69.5193 55.0151 70.7514 53.7821C71.9844 52.5501 72.6008 51.0345 72.6008 49.2353C72.6008 47.437 71.9844 45.9214 70.7514 44.6884C69.5193 43.4563 68.0037 42.8403 66.2045 42.8403ZM71.0133 60.3134L61.282 60.3134C61.282 63.0095 60.9799 64.9612 60.3758 66.1686C59.7716 67.3769 58.2079 69.2426 55.6847 71.7659C53.9975 73.453 52.6124 75.2227 51.5294 77.0747C50.4464 78.9268 49.9049 81.0109 49.9049 83.3269C49.9049 88.1238 51.4509 91.734 54.543 94.1576C57.636 96.5812 61.4544 97.7929 65.9982 97.7929C70.078 97.7929 73.578 96.5631 76.4982 94.1033C79.4183 91.6436 81.4573 88.6706 82.6153 85.1842L73.4872 81.6018C72.996 83.1505 72.1705 84.6899 71.0107 86.2201C69.8509 87.7502 68.2299 88.5153 66.1477 88.5153C64.0654 88.5153 62.5039 87.9535 61.4632 86.8299C60.4216 85.7063 59.9008 84.4504 59.9008 83.0623C59.9008 81.7623 60.3546 80.5293 61.2621 79.3634C62.1688 78.1983 63.1147 77.1228 64.0998 76.1368C67.2369 73.3913 69.1736 71.1472 69.91 69.4045C70.6456 67.6618 71.0133 64.6314 71.0133 60.3134Z" fill="#1C1B1F"/>
</g>
</symbol><symbol id="data_object" viewBox="0 0 24 24">
<mask id="data_object__mask0_85_7184" style="mask-type:alpha" maskUnits="userSpaceOnUse" x="0" y="0" width="24" height="24">
<rect width="24" height="24" fill="#D9D9D9"/>
</mask>
<g mask="url(#data_object__mask0_85_7184)">
<path d="M14 20V18H17C17.2833 18 17.5208 17.9042 17.7125 17.7125C17.9042 17.5208 18 17.2833 18 17V15C18 14.3667 18.1833 13.7917 18.55 13.275C18.9167 12.7583 19.4 12.3917 20 12.175V11.825C19.4 11.6083 18.9167 11.2417 18.55 10.725C18.1833 10.2083 18 9.63333 18 9V7C18 6.71667 17.9042 6.47917 17.7125 6.2875C17.5208 6.09583 17.2833 6 17 6H14V4H17C17.8333 4 18.5417 4.29167 19.125 4.875C19.7083 5.45833 20 6.16667 20 7V9C20 9.28333 20.0958 9.52083 20.2875 9.7125C20.4792 9.90417 20.7167 10 21 10H22V14H21C20.7167 14 20.4792 14.0958 20.2875 14.2875C20.0958 14.4792 20 14.7167 20 15V17C20 17.8333 19.7083 18.5417 19.125 19.125C18.5417 19.7083 17.8333 20 17 20H14ZM7 20C6.16667 20 5.45833 19.7083 4.875 19.125C4.29167 18.5417 4 17.8333 4 17V15C4 14.7167 3.90417 14.4792 3.7125 14.2875C3.52083 14.0958 3.28333 14 3 14H2V10H3C3.28333 10 3.52083 9.90417 3.7125 9.7125C3.90417 9.52083 4 9.28333 4 9V7C4 6.16667 4.29167 5.45833 4.875 4.875C5.45833 4.29167 6.16667 4 7 4H10V6H7C6.71667 6 6.47917 6.09583 6.2875 6.2875C6.09583 6.47917 6 6.71667 6 7V9C6 9.63333 5.81667 10.2083 5.45 10.725C5.08333 11.2417 4.6 11.6083 4 11.825V12.175C4.6 12.3917 5.08333 12.7583 5.45 13.275C5.81667 13.7917 6 14.3667 6 15V17C6 17.2833 6.09583 17.5208 6.2875 17.7125C6.47917 17.9042 6.71667 18 7 18H10V20H7Z" fill="currentColor"/>
</g>
</symbol><symbol id="diamond" viewBox="0 0 24 24">
<mask id="diamond__mask0_13_1202" style="mask-type:alpha" maskUnits="userSpaceOnUse" x="0" y="0" width="24" height="24">
<rect width="24" height="24" fill="#D9D9D9"/>
</mask>
<g mask="url(#diamond__mask0_13_1202)">
<path d="M12 21L2 9L5 3H19L22 9L12 21ZM9.625 8H14.375L12.875 5H11.125L9.625 8ZM11 16.675V10H5.45L11 16.675ZM13 16.675L18.55 10H13V16.675ZM16.6 8H19.25L17.75 5H15.1L16.6 8ZM4.75 8H7.4L8.9 5H6.25L4.75 8Z" fill="currentColor"/>
</g>
</symbol><symbol id="do_not_disturb_on" viewBox="0 0 20 20">
<mask id="do_not_disturb_on__mask0_16_439" style="mask-type:alpha" maskUnits="userSpaceOnUse" x="0" y="0" width="20" height="20">
<rect width="20" height="20" fill="#D9D9D9"/>
</mask>
<g mask="url(#do_not_disturb_on__mask0_16_439)">
<path d="M6 10.75H14V9.25H6V10.75ZM10.0058 18C8.90472 18 7.86806 17.7917 6.89583 17.375C5.92361 16.9583 5.07292 16.3854 4.34375 15.6562C3.61458 14.9271 3.04167 14.0767 2.625 13.105C2.20833 12.1333 2 11.0951 2 9.99042C2 8.88569 2.20833 7.85069 2.625 6.88542C3.04167 5.92014 3.61458 5.07292 4.34375 4.34375C5.07292 3.61458 5.92333 3.04167 6.895 2.625C7.86667 2.20833 8.90486 2 10.0096 2C11.1143 2 12.1493 2.20833 13.1146 2.625C14.0799 3.04167 14.9271 3.61458 15.6562 4.34375C16.3854 5.07292 16.9583 5.92167 17.375 6.89C17.7917 7.85847 18 8.89319 18 9.99417C18 11.0953 17.7917 12.1319 17.375 13.1042C16.9583 14.0764 16.3854 14.9271 15.6562 15.6562C14.9271 16.3854 14.0783 16.9583 13.11 17.375C12.1415 17.7917 11.1068 18 10.0058 18ZM10 16.5C11.8056 16.5 13.3403 15.8681 14.6042 14.6042C15.8681 13.3403 16.5 11.8056 16.5 10C16.5 8.19444 15.8681 6.65972 14.6042 5.39583C13.3403 4.13194 11.8056 3.5 10 3.5C8.19444 3.5 6.65972 4.13194 5.39583 5.39583C4.13194 6.65972 3.5 8.19444 3.5 10C3.5 11.8056 4.13194 13.3403 5.39583 14.6042C6.65972 15.8681 8.19444 16.5 10 16.5Z" fill="currentColor"/>
</g>
</symbol><symbol id="emoji_objects_2" viewBox="0 0 20 20">
<mask id="emoji_objects_2__mask0_169_9986" style="mask-type:alpha" maskUnits="userSpaceOnUse" x="0" y="0" width="20" height="20">
<rect width="20" height="20" fill="#D9D9D9"/>
</mask>
<g mask="url(#emoji_objects_2__mask0_169_9986)">
<path d="M10 18.5C9.63889 18.5 9.29861 18.4132 8.97917 18.2396C8.65972 18.066 8.42361 17.8194 8.27083 17.5H8C7.58333 17.5 7.22917 17.3542 6.9375 17.0625C6.64583 16.7708 6.5 16.4167 6.5 16V12.875C5.70833 12.3194 5.09375 11.6111 4.65625 10.75C4.21875 9.88889 4 8.97222 4 8C4 6.33333 4.58333 4.91667 5.75 3.75C6.91667 2.58333 8.33333 2 10 2C11.6667 2 13.0833 2.58333 14.25 3.75C15.4167 4.91667 16 6.33333 16 8C16 8.97222 15.7812 9.88889 15.3438 10.75C14.9062 11.6111 14.2917 12.3194 13.5 12.875V16C13.5 16.4167 13.3542 16.7708 13.0625 17.0625C12.7708 17.3542 12.4167 17.5 12 17.5H11.7083C11.5556 17.8194 11.3229 18.066 11.0104 18.2396C10.6979 18.4132 10.3611 18.5 10 18.5ZM8 16H12V15H8V16ZM8 14H12V13H8V14ZM10.5 11.5V9.20833L12.3542 7.35417L11.6458 6.64583L10 8.29167L8.35417 6.64583L7.64583 7.35417L9.5 9.20833V11.5H10.5Z" fill="#1C1B1F"/>
</g>
</symbol><symbol id="emoji_objects_3" viewBox="0 0 20 20">
<mask id="emoji_objects_3__mask0_169_9987" style="mask-type:alpha" maskUnits="userSpaceOnUse" x="0" y="0" width="20" height="20">
<rect width="20" height="20" fill="#D9D9D9"/>
</mask>
<g mask="url(#emoji_objects_3__mask0_169_9987)">
<path d="M10 18.5C9.63889 18.5 9.29861 18.4132 8.97917 18.2396C8.65972 18.066 8.42361 17.8194 8.27083 17.5H8C7.58333 17.5 7.22917 17.3542 6.9375 17.0625C6.64583 16.7708 6.5 16.4167 6.5 16V12.875C5.70833 12.3194 5.09375 11.6111 4.65625 10.75C4.21875 9.88889 4 8.97222 4 8C4 6.33333 4.58333 4.91667 5.75 3.75C6.91667 2.58333 8.33333 2 10 2C11.6667 2 13.0833 2.58333 14.25 3.75C15.4167 4.91667 16 6.33333 16 8C16 8.97222 15.7812 9.88889 15.3438 10.75C14.9062 11.6111 14.2917 12.3194 13.5 12.875V16C13.5 16.4167 13.3542 16.7708 13.0625 17.0625C12.7708 17.3542 12.4167 17.5 12 17.5H11.7083C11.5556 17.8194 11.3229 18.066 11.0104 18.2396C10.6979 18.4132 10.3611 18.5 10 18.5ZM8 16H12V15H8V16ZM8 14H12V13H8V14ZM10.5 11.5V9.20833L12.3542 7.35417L11.6458 6.64583L10 8.29167L8.35417 6.64583L7.64583 7.35417L9.5 9.20833V11.5H10.5Z" fill="#FFBA41"/>
</g>
</symbol><symbol id="emoji_objects" viewBox="0 0 24 24">
<mask id="emoji_objects__mask0_3_45" style="mask-type:alpha" maskUnits="userSpaceOnUse" x="0" y="0" width="24" height="24">
<rect width="24" height="24" fill="#D9D9D9"/>
</mask>
<g mask="url(#emoji_objects__mask0_3_45)">
<path d="M12 22C11.5667 22 11.175 21.8958 10.825 21.6875C10.475 21.4792 10.2 21.2 10 20.85C9.45 20.85 8.97917 20.6542 8.5875 20.2625C8.19583 19.8708 8 19.4 8 18.85V15.3C7.01667 14.65 6.22917 13.7917 5.6375 12.725C5.04583 11.6583 4.75 10.5 4.75 9.25C4.75 7.23333 5.45417 5.52083 6.8625 4.1125C8.27083 2.70417 9.98333 2 12 2C14.0167 2 15.7292 2.70417 17.1375 4.1125C18.5458 5.52083 19.25 7.23333 19.25 9.25C19.25 10.5333 18.9542 11.7 18.3625 12.75C17.7708 13.8 16.9833 14.65 16 15.3V18.85C16 19.4 15.8042 19.8708 15.4125 20.2625C15.0208 20.6542 14.55 20.85 14 20.85C13.8 21.2 13.525 21.4792 13.175 21.6875C12.825 21.8958 12.4333 22 12 22ZM10 18.85H14V17.95H10V18.85ZM10 16.95H14V16H10V16.95ZM9.8 14H11.25V11.3L9.05 9.1L10.1 8.05L12 9.95L13.9 8.05L14.95 9.1L12.75 11.3V14H14.2C15.1 13.5667 15.8333 12.9292 16.4 12.0875C16.9667 11.2458 17.25 10.3 17.25 9.25C17.25 7.78333 16.7417 6.54167 15.725 5.525C14.7083 4.50833 13.4667 4 12 4C10.5333 4 9.29167 4.50833 8.275 5.525C7.25833 6.54167 6.75 7.78333 6.75 9.25C6.75 10.3 7.03333 11.2458 7.6 12.0875C8.16667 12.9292 8.9 13.5667 9.8 14Z" fill="currentColor"/>
</g>
</symbol><symbol id="expand_content_20" viewBox="0 0 20 20">
<mask id="expand_content_20__mask0_31_777" style="mask-type:alpha" maskUnits="userSpaceOnUse" x="0" y="0" width="20" height="20">
<rect width="20" height="20" fill="#D9D9D9"/>
</mask>
<g mask="url(#expand_content_20__mask0_31_777)">
<path d="M5 15V10H6.5V13.5H10V15H5ZM13.5 10V6.5H10V5H15V10H13.5Z" fill="currentColor"/>
</g>
</symbol><symbol id="expand_content_34" viewBox="0 0 34 34">
<mask id="expand_content_34__mask0_4_185" style="mask-type:alpha" maskUnits="userSpaceOnUse" x="0" y="0" width="34" height="34">
<rect width="34" height="34" fill="#D9D9D9"/>
</mask>
<g mask="url(#expand_content_34__mask0_4_185)">
<path d="M7.08333 26.9167V18.4167H9.91667V24.0833H15.5833V26.9167H7.08333ZM24.0833 15.5833V9.91666H18.4167V7.08333H26.9167V15.5833H24.0833Z" fill="currentColor"/>
</g>
</symbol><symbol id="expand_content" viewBox="0 0 24 24">
<mask id="expand_content__mask0_3_240" style="mask-type:alpha" maskUnits="userSpaceOnUse" x="0" y="0" width="24" height="24">
<rect width="24" height="24" fill="#D9D9D9"/>
</mask>
<g mask="url(#expand_content__mask0_3_240)">
<path d="M5 19V13H7V17H11V19H5ZM17 11V7H13V5H19V11H17Z" fill="currentColor"/>
</g>
</symbol><symbol id="eyeglasses" viewBox="0 0 20 20">
<mask id="eyeglasses__mask0_3_157" style="mask-type:alpha" maskUnits="userSpaceOnUse" x="0" y="0" width="20" height="20">
<rect width="20" height="20" fill="#D9D9D9"/>
</mask>
<g mask="url(#eyeglasses__mask0_3_157)">
<path d="M5.95833 12.5C6.38889 12.5 6.77083 12.3715 7.10417 12.1146C7.4375 11.8576 7.66667 11.5278 7.79167 11.125L8.125 10C8.31944 9.375 8.26389 8.80208 7.95833 8.28125C7.65278 7.76042 7.21528 7.5 6.64583 7.5H3.52083L4.04167 10.8542C4.11111 11.3264 4.32639 11.7188 4.6875 12.0312C5.04861 12.3438 5.47222 12.5 5.95833 12.5ZM14.0625 12.5C14.5486 12.5 14.9722 12.3438 15.3333 12.0312C15.6944 11.7188 15.9097 11.3264 15.9792 10.8542L16.5 7.5H13.3542C12.7847 7.5 12.3472 7.76042 12.0417 8.28125C11.7361 8.80208 11.6806 9.375 11.875 10L12.2083 11.125C12.3333 11.5278 12.566 11.8576 12.9062 12.1146C13.2465 12.3715 13.6319 12.5 14.0625 12.5ZM5.95833 14C5.09722 14 4.34375 13.7257 3.69792 13.1771C3.05208 12.6285 2.66667 11.9306 2.54167 11.0833L2 7.5H1V6H6.64583C7.17361 6 7.67014 6.13542 8.13542 6.40625C8.60069 6.67708 8.97222 7.04167 9.25 7.5H10.75C11.0139 7.02778 11.375 6.65972 11.8333 6.39583C12.2917 6.13194 12.7986 6 13.3542 6H19V7.5H18L17.4375 11.0833C17.3125 11.9306 16.9306 12.6285 16.2917 13.1771C15.6528 13.7257 14.9028 14 14.0417 14C13.2778 14 12.5972 13.7743 12 13.3229C11.4028 12.8715 10.9931 12.2778 10.7708 11.5417L10.4375 10.4375C10.4236 10.3819 10.4132 10.3229 10.4062 10.2604C10.3993 10.1979 10.3819 10.1111 10.3542 10H9.66667C9.65278 10.0556 9.63889 10.1146 9.625 10.1771C9.61111 10.2396 9.59028 10.3264 9.5625 10.4375L9.25 11.5417C9.02778 12.2778 8.61458 12.8715 8.01042 13.3229C7.40625 13.7743 6.72222 14 5.95833 14Z" fill="currentColor"/>
</g>
</symbol><symbol id="face_4" viewBox="0 0 24 24">
<mask id="face_4__mask0_1_47" style="mask-type:alpha" maskUnits="userSpaceOnUse" x="0" y="0" width="24" height="24">
<rect width="24" height="24" fill="#D9D9D9"/>
</mask>
<g mask="url(#face_4__mask0_1_47)">
<path d="M10 15.25C9.65 15.25 9.35417 15.1292 9.1125 14.8875C8.87083 14.6458 8.75 14.35 8.75 14C8.75 13.65 8.87083 13.3542 9.1125 13.1125C9.35417 12.8708 9.65 12.75 10 12.75C10.35 12.75 10.6458 12.8708 10.8875 13.1125C11.1292 13.3542 11.25 13.65 11.25 14C11.25 14.35 11.1292 14.6458 10.8875 14.8875C10.6458 15.1292 10.35 15.25 10 15.25ZM16 15.25C15.65 15.25 15.3542 15.1292 15.1125 14.8875C14.8708 14.6458 14.75 14.35 14.75 14C14.75 13.65 14.8708 13.3542 15.1125 13.1125C15.3542 12.8708 15.65 12.75 16 12.75C16.35 12.75 16.6458 12.8708 16.8875 13.1125C17.1292 13.3542 17.25 13.65 17.25 14C17.25 14.35 17.1292 14.6458 16.8875 14.8875C16.6458 15.1292 16.35 15.25 16 15.25ZM13 21C15.2333 21 17.125 20.225 18.675 18.675C20.225 17.125 21 15.2333 21 13C21 12.6 20.975 12.2125 20.925 11.8375C20.875 11.4625 20.7833 11.1 20.65 10.75C20.3 10.8333 19.95 10.8958 19.6 10.9375C19.25 10.9792 18.8833 11 18.5 11C16.9833 11 15.55 10.675 14.2 10.025C12.85 9.375 11.7 8.46667 10.75 7.3C10.2167 8.6 9.45417 9.72917 8.4625 10.6875C7.47083 11.6458 6.31667 12.3667 5 12.85V13C5 15.2333 5.775 17.125 7.325 18.675C8.875 20.225 10.7667 21 13 21ZM11.65 5.125C12.35 6.29167 13.3 7.22917 14.5 7.9375C15.7 8.64583 17.0333 9 18.5 9C18.7333 9 18.9583 8.9875 19.175 8.9625C19.3917 8.9375 19.6167 8.90833 19.85 8.875C19.15 7.70833 18.2 6.77083 17 6.0625C15.8 5.35417 14.4667 5 13 5C12.7667 5 12.5417 5.0125 12.325 5.0375C12.1083 5.0625 11.8833 5.09167 11.65 5.125ZM5.425 10.475C6.275 9.99167 7.01667 9.36667 7.65 8.6C8.28333 7.83333 8.75833 6.975 9.075 6.025C8.225 6.50833 7.48333 7.13333 6.85 7.9C6.21667 8.66667 5.74167 9.525 5.425 10.475ZM4.175 8.325C4.64167 7.44167 5.22917 6.64583 5.9375 5.9375C6.64583 5.22917 7.44167 4.64167 8.325 4.175C8.04167 3.825 7.7 3.54167 7.3 3.325C6.9 3.10833 6.45833 3 5.975 3C5.14167 3 4.4375 3.2875 3.8625 3.8625C3.2875 4.4375 3 5.14167 3 5.975C3 6.45833 3.10833 6.9 3.325 7.3C3.54167 7.7 3.825 8.04167 4.175 8.325ZM13 23C11.6167 23 10.3167 22.7375 9.1 22.2125C7.88333 21.6875 6.825 20.975 5.925 20.075C5.025 19.175 4.3125 18.1167 3.7875 16.9C3.2625 15.6833 3 14.3833 3 13C3 12.5167 3.03333 12.0375 3.1 11.5625C3.16667 11.0875 3.26667 10.6333 3.4 10.2C2.68333 9.76667 2.10417 9.17917 1.6625 8.4375C1.22083 7.69583 1 6.875 1 5.975C1 4.59167 1.48333 3.41667 2.45 2.45C3.41667 1.48333 4.59167 1 5.975 1C6.85833 1 7.67083 1.2125 8.4125 1.6375C9.15417 2.0625 9.75 2.65 10.2 3.4C10.6333 3.26667 11.0875 3.16667 11.5625 3.1C12.0375 3.03333 12.5167 3 13 3C14.3833 3 15.6833 3.2625 16.9 3.7875C18.1167 4.3125 19.175 5.025 20.075 5.925C20.975 6.825 21.6875 7.88333 22.2125 9.1C22.7375 10.3167 23 11.6167 23 13C23 14.3833 22.7375 15.6833 22.2125 16.9C21.6875 18.1167 20.975 19.175 20.075 20.075C19.175 20.975 18.1167 21.6875 16.9 22.2125C15.6833 22.7375 14.3833 23 13 23Z" fill="currentColor"/>
</g>
</symbol><symbol id="face" viewBox="0 0 24 24">
<mask id="face__mask0_1_44" style="mask-type:alpha" maskUnits="userSpaceOnUse" x="0" y="0" width="24" height="24">
<rect width="24" height="24" fill="#D9D9D9"/>
</mask>
<g mask="url(#face__mask0_1_44)">
<path d="M9 14.25C8.65 14.25 8.35417 14.1292 8.1125 13.8875C7.87083 13.6458 7.75 13.35 7.75 13C7.75 12.65 7.87083 12.3542 8.1125 12.1125C8.35417 11.8708 8.65 11.75 9 11.75C9.35 11.75 9.64583 11.8708 9.8875 12.1125C10.1292 12.3542 10.25 12.65 10.25 13C10.25 13.35 10.1292 13.6458 9.8875 13.8875C9.64583 14.1292 9.35 14.25 9 14.25ZM15 14.25C14.65 14.25 14.3542 14.1292 14.1125 13.8875C13.8708 13.6458 13.75 13.35 13.75 13C13.75 12.65 13.8708 12.3542 14.1125 12.1125C14.3542 11.8708 14.65 11.75 15 11.75C15.35 11.75 15.6458 11.8708 15.8875 12.1125C16.1292 12.3542 16.25 12.65 16.25 13C16.25 13.35 16.1292 13.6458 15.8875 13.8875C15.6458 14.1292 15.35 14.25 15 14.25ZM12 20C14.2333 20 16.125 19.225 17.675 17.675C19.225 16.125 20 14.2333 20 12C20 11.6 19.975 11.2125 19.925 10.8375C19.875 10.4625 19.7833 10.1 19.65 9.75C19.3 9.83333 18.95 9.89583 18.6 9.9375C18.25 9.97917 17.8833 10 17.5 10C15.9833 10 14.55 9.675 13.2 9.025C11.85 8.375 10.7 7.46667 9.75 6.3C9.21667 7.6 8.45417 8.72917 7.4625 9.6875C6.47083 10.6458 5.31667 11.3667 4 11.85V12C4 14.2333 4.775 16.125 6.325 17.675C7.875 19.225 9.76667 20 12 20ZM12 22C10.6167 22 9.31667 21.7375 8.1 21.2125C6.88333 20.6875 5.825 19.975 4.925 19.075C4.025 18.175 3.3125 17.1167 2.7875 15.9C2.2625 14.6833 2 13.3833 2 12C2 10.6167 2.2625 9.31667 2.7875 8.1C3.3125 6.88333 4.025 5.825 4.925 4.925C5.825 4.025 6.88333 3.3125 8.1 2.7875C9.31667 2.2625 10.6167 2 12 2C13.3833 2 14.6833 2.2625 15.9 2.7875C17.1167 3.3125 18.175 4.025 19.075 4.925C19.975 5.825 20.6875 6.88333 21.2125 8.1C21.7375 9.31667 22 10.6167 22 12C22 13.3833 21.7375 14.6833 21.2125 15.9C20.6875 17.1167 19.975 18.175 19.075 19.075C18.175 19.975 17.1167 20.6875 15.9 21.2125C14.6833 21.7375 13.3833 22 12 22ZM10.65 4.125C11.35 5.29167 12.3 6.22917 13.5 6.9375C14.7 7.64583 16.0333 8 17.5 8C17.7333 8 17.9583 7.9875 18.175 7.9625C18.3917 7.9375 18.6167 7.90833 18.85 7.875C18.15 6.70833 17.2 5.77083 16 5.0625C14.8 4.35417 13.4667 4 12 4C11.7667 4 11.5417 4.0125 11.325 4.0375C11.1083 4.0625 10.8833 4.09167 10.65 4.125ZM4.425 9.475C5.275 8.99167 6.01667 8.36667 6.65 7.6C7.28333 6.83333 7.75833 5.975 8.075 5.025C7.225 5.50833 6.48333 6.13333 5.85 6.9C5.21667 7.66667 4.74167 8.525 4.425 9.475Z" fill="currentColor"/>
</g>
</symbol><symbol id="family_star_2" viewBox="0 0 20 20">
<mask id="family_star_2__mask0_169_9550" style="mask-type:alpha" maskUnits="userSpaceOnUse" x="0" y="0" width="20" height="20">
<rect width="20" height="20" fill="#D9D9D9"/>
</mask>
<g mask="url(#family_star_2__mask0_169_9550)">
<path d="M11.6667 12.4376C12.1528 12.0626 12.5139 11.5834 12.75 11.0001H7.25C7.48611 11.5834 7.84785 12.0626 8.33521 12.4376C8.82257 12.8126 9.37812 13.0001 10.0019 13.0001C10.6256 13.0001 11.1806 12.8126 11.6667 12.4376ZM8.70833 9.70842C8.90278 9.51397 9 9.27786 9 9.00008C9 8.7223 8.90278 8.48619 8.70833 8.29175C8.51389 8.0973 8.27778 8.00008 8 8.00008C7.72222 8.00008 7.48611 8.0973 7.29167 8.29175C7.09722 8.48619 7 8.7223 7 9.00008C7 9.27786 7.09722 9.51397 7.29167 9.70842C7.48611 9.90286 7.72222 10.0001 8 10.0001C8.27778 10.0001 8.51389 9.90286 8.70833 9.70842ZM12.7083 9.70842C12.9028 9.51397 13 9.27786 13 9.00008C13 8.7223 12.9028 8.48619 12.7083 8.29175C12.5139 8.0973 12.2778 8.00008 12 8.00008C11.7222 8.00008 11.4861 8.0973 11.2917 8.29175C11.0972 8.48619 11 8.7223 11 9.00008C11 9.27786 11.0972 9.51397 11.2917 9.70842C11.4861 9.90286 11.7222 10.0001 12 10.0001C12.2778 10.0001 12.5139 9.90286 12.7083 9.70842ZM6.54167 5.45841L8.83333 2.50008C8.98347 2.29939 9.16188 2.15196 9.36854 2.05779C9.57507 1.96376 9.79097 1.91675 10.0163 1.91675C10.2415 1.91675 10.4549 1.96536 10.6562 2.06258C10.8576 2.1598 11.0347 2.30564 11.1875 2.50008L13.4792 5.45841L16.9792 6.60425C17.2986 6.71536 17.5486 6.90078 17.7292 7.1605C17.9097 7.42008 18 7.70689 18 8.02092C18 8.1698 17.979 8.31876 17.9369 8.46779C17.8947 8.61668 17.8254 8.75939 17.7292 8.89592L15.4792 12.0417L15.5625 15.4167C15.5625 15.8473 15.4167 16.2119 15.125 16.5105C14.8333 16.8091 14.4849 16.9584 14.0796 16.9584C14.0543 16.9584 13.9236 16.9376 13.6875 16.8959L10 15.8751L6.31146 16.8967C6.24271 16.924 6.17708 16.9411 6.11458 16.948C6.05208 16.9549 5.98938 16.9584 5.92646 16.9584C5.52382 16.9584 5.17153 16.8091 4.86958 16.5105C4.56764 16.2119 4.42361 15.8473 4.4375 15.4167L4.52083 12.0417L2.27083 8.89592C2.17361 8.75703 2.10417 8.61814 2.0625 8.47925C2.02083 8.34036 2 8.19432 2 8.04112C2 7.72209 2.09153 7.4305 2.27458 7.16633C2.45764 6.90216 2.71333 6.7148 3.04167 6.60425L6.54167 5.45841Z" fill="#8557FF"/>
</g>
</symbol><symbol id="family_star" viewBox="0 0 20 20">
<mask id="family_star__mask0_169_9503" style="mask-type:alpha" maskUnits="userSpaceOnUse" x="0" y="0" width="20" height="20">
<rect width="20" height="20" fill="#D9D9D9"/>
</mask>
<g mask="url(#family_star__mask0_169_9503)">
<path d="M11.6667 12.4376C12.1528 12.0626 12.5139 11.5834 12.75 11.0001H7.25C7.48611 11.5834 7.84785 12.0626 8.33521 12.4376C8.82257 12.8126 9.37812 13.0001 10.0019 13.0001C10.6256 13.0001 11.1806 12.8126 11.6667 12.4376ZM8.70833 9.70842C8.90278 9.51397 9 9.27786 9 9.00008C9 8.7223 8.90278 8.48619 8.70833 8.29175C8.51389 8.0973 8.27778 8.00008 8 8.00008C7.72222 8.00008 7.48611 8.0973 7.29167 8.29175C7.09722 8.48619 7 8.7223 7 9.00008C7 9.27786 7.09722 9.51397 7.29167 9.70842C7.48611 9.90286 7.72222 10.0001 8 10.0001C8.27778 10.0001 8.51389 9.90286 8.70833 9.70842ZM12.7083 9.70842C12.9028 9.51397 13 9.27786 13 9.00008C13 8.7223 12.9028 8.48619 12.7083 8.29175C12.5139 8.0973 12.2778 8.00008 12 8.00008C11.7222 8.00008 11.4861 8.0973 11.2917 8.29175C11.0972 8.48619 11 8.7223 11 9.00008C11 9.27786 11.0972 9.51397 11.2917 9.70842C11.4861 9.90286 11.7222 10.0001 12 10.0001C12.2778 10.0001 12.5139 9.90286 12.7083 9.70842ZM6.54167 5.45841L8.83333 2.50008C8.98347 2.29939 9.16188 2.15196 9.36854 2.05779C9.57507 1.96376 9.79097 1.91675 10.0163 1.91675C10.2415 1.91675 10.4549 1.96536 10.6562 2.06258C10.8576 2.1598 11.0347 2.30564 11.1875 2.50008L13.4792 5.45841L16.9792 6.60425C17.2986 6.71536 17.5486 6.90078 17.7292 7.1605C17.9097 7.42008 18 7.70689 18 8.02092C18 8.1698 17.979 8.31876 17.9369 8.46779C17.8947 8.61668 17.8254 8.75939 17.7292 8.89592L15.4792 12.0417L15.5625 15.4167C15.5625 15.8473 15.4167 16.2119 15.125 16.5105C14.8333 16.8091 14.4849 16.9584 14.0796 16.9584C14.0543 16.9584 13.9236 16.9376 13.6875 16.8959L10 15.8751L6.31146 16.8967C6.24271 16.924 6.17708 16.9411 6.11458 16.948C6.05208 16.9549 5.98938 16.9584 5.92646 16.9584C5.52382 16.9584 5.17153 16.8091 4.86958 16.5105C4.56764 16.2119 4.42361 15.8473 4.4375 15.4167L4.52083 12.0417L2.27083 8.89592C2.17361 8.75703 2.10417 8.61814 2.0625 8.47925C2.02083 8.34036 2 8.19432 2 8.04112C2 7.72209 2.09153 7.4305 2.27458 7.16633C2.45764 6.90216 2.71333 6.7148 3.04167 6.60425L6.54167 5.45841Z" fill="#1C1B1F"/>
</g>
</symbol><symbol id="filter_alt" viewBox="0 0 20 20">
<mask id="filter_alt__mask0_26_1044" style="mask-type:alpha" maskUnits="userSpaceOnUse" x="0" y="0" width="20" height="20">
<rect width="20" height="20" fill="#D9D9D9"/>
</mask>
<g mask="url(#filter_alt__mask0_26_1044)">
<path d="M9.50375 16.1693C9.31917 16.1693 9.16083 16.104 9.02875 15.9733C8.89667 15.8426 8.83063 15.6848 8.83063 15.4999V10.8306L3.97458 4.91203C3.80306 4.68897 3.77653 4.45293 3.895 4.2039C4.01347 3.95501 4.21514 3.83057 4.5 3.83057H15.5C15.7849 3.83057 15.9865 3.95501 16.105 4.2039C16.2235 4.45293 16.1969 4.68897 16.0254 4.91203L11.1694 10.8306V15.5547C11.1694 15.7296 11.1108 15.8758 10.9935 15.9933C10.8765 16.1106 10.7306 16.1693 10.556 16.1693H9.50375ZM10 9.52536L13.2454 5.55973H6.73375L10 9.52536Z" fill="currentColor"/>
</g>
</symbol><symbol id="folder_check_2" viewBox="0 0 20 20">
<mask id="folder_check_2__mask0_3_281" style="mask-type:alpha" maskUnits="userSpaceOnUse" x="0" y="0" width="20" height="20">
<rect width="20" height="20" fill="#D9D9D9"/>
</mask>
<g mask="url(#folder_check_2__mask0_3_281)">
<path d="M3.5 14.5V5.5V9.70833V9.5V14.5ZM3.5 16C3.09722 16 2.74653 15.8507 2.44792 15.5521C2.14931 15.2535 2 14.9028 2 14.5V5.5C2 5.0875 2.14931 4.73438 2.44792 4.44063C2.74653 4.14688 3.09722 4 3.5 4H8L10 6H16.5C16.9125 6 17.2656 6.14688 17.5594 6.44063C17.8531 6.73438 18 7.0875 18 7.5V10.3958C17.7639 10.2431 17.5243 10.1076 17.2812 9.98958C17.0382 9.87153 16.7778 9.77778 16.5 9.70833V7.5H9.375L7.375 5.5H3.5V14.5H9.52083C9.49306 14.75 9.48611 15 9.5 15.25C9.51389 15.5 9.54167 15.75 9.58333 16H3.5ZM14.4375 16.75L17.125 13.9375L16.3958 13.25L14.4167 15.3125L13.5833 14.5L12.875 15.2083L14.4375 16.75ZM15.0048 11C16.1127 11 17.0556 11.3905 17.8333 12.1715C18.6111 12.9523 19 13.8967 19 15.0048C19 16.1127 18.6095 17.0556 17.8285 17.8333C17.0477 18.6111 16.1033 19 14.9952 19C13.8873 19 12.9444 18.6095 12.1667 17.8285C11.3889 17.0477 11 16.1033 11 14.9952C11 13.8873 11.3905 12.9444 12.1715 12.1667C12.9523 11.3889 13.8967 11 15.0048 11Z" fill="currentColor"/>
</g>
</symbol><symbol id="folder_check" viewBox="0 0 20 20">
<mask id="folder_check__mask0_4_234" style="mask-type:alpha" maskUnits="userSpaceOnUse" x="0" y="0" width="20" height="20">
<rect width="20" height="20" fill="#D9D9D9"/>
</mask>
<g mask="url(#folder_check__mask0_4_234)">
<path d="M9.125 13.6458L13.3542 9.41667L12.2917 8.35417L9.125 11.5208L7.70833 10.125L6.64583 11.1875L9.125 13.6458ZM3.5 16C3.09722 16 2.74653 15.8507 2.44792 15.5521C2.14931 15.2535 2 14.9028 2 14.5V5.5C2 5.08333 2.14931 4.72917 2.44792 4.4375C2.74653 4.14583 3.09722 4 3.5 4H8L10 6H16.5C16.9167 6 17.2708 6.14583 17.5625 6.4375C17.8542 6.72917 18 7.08333 18 7.5V14.5C18 14.9028 17.8542 15.2535 17.5625 15.5521C17.2708 15.8507 16.9167 16 16.5 16H3.5Z" fill="currentColor"/>
</g>
</symbol><symbol id="height" viewBox="0 0 24 24">
<mask id="height__mask0_194_16355" style="mask-type:alpha" maskUnits="userSpaceOnUse" x="0" y="0" width="24" height="24">
<rect width="24" height="24" fill="#D9D9D9"/>
</mask>
<g mask="url(#height__mask0_194_16355)">
<path d="M12 21L8 17L9.4 15.6L11 17.175V6.825L9.4 8.4L8 7L12 3L16 7L14.6 8.425L13 6.825V17.175L14.6 15.6L16 17L12 21Z" fill="#474554"/>
</g>
</symbol><symbol id="identity_platform" viewBox="0 0 24 24">
<mask id="identity_platform__mask0_3_25" style="mask-type:alpha" maskUnits="userSpaceOnUse" x="0" y="0" width="24" height="24">
<rect width="24" height="24" fill="#D9D9D9"/>
</mask>
<g mask="url(#identity_platform__mask0_3_25)">
<path d="M12 13C11.0333 13 10.2083 12.6583 9.525 11.975C8.84167 11.2917 8.5 10.4667 8.5 9.5C8.5 8.53333 8.84167 7.70833 9.525 7.025C10.2083 6.34167 11.0333 6 12 6C12.9667 6 13.7917 6.34167 14.475 7.025C15.1583 7.70833 15.5 8.53333 15.5 9.5C15.5 10.4667 15.1583 11.2917 14.475 11.975C13.7917 12.6583 12.9667 13 12 13ZM12 11C12.4167 11 12.7708 10.8542 13.0625 10.5625C13.3542 10.2708 13.5 9.91667 13.5 9.5C13.5 9.08333 13.3542 8.72917 13.0625 8.4375C12.7708 8.14583 12.4167 8 12 8C11.5833 8 11.2292 8.14583 10.9375 8.4375C10.6458 8.72917 10.5 9.08333 10.5 9.5C10.5 9.91667 10.6458 10.2708 10.9375 10.5625C11.2292 10.8542 11.5833 11 12 11ZM12 22.5L3 17V7L12 1.5L21 7V17L12 22.5ZM12 20.175L15.675 17.9C15.1083 17.6 14.5125 17.375 13.8875 17.225C13.2625 17.075 12.6333 17 12 17C11.3667 17 10.7375 17.075 10.1125 17.225C9.4875 17.375 8.89167 17.6 8.325 17.9L12 20.175ZM6.4 16.725C7.23333 16.1583 8.125 15.7292 9.075 15.4375C10.025 15.1458 11 15 12 15C13 15 13.975 15.1458 14.925 15.4375C15.875 15.7292 16.7667 16.1583 17.6 16.725L19 15.9V8.125L12 3.85L5 8.125V15.9L6.4 16.725Z" fill="currentColor"/>
</g>
</symbol><symbol id="import_contacts_2" viewBox="0 0 20 20">
<mask id="import_contacts_2__mask0_3_15" style="mask-type:alpha" maskUnits="userSpaceOnUse" x="0" y="0" width="20" height="20">
<rect width="20" height="20" fill="#D9D9D9"/>
</mask>
<g mask="url(#import_contacts_2__mask0_3_15)">
<path d="M5.41668 13.7689C6.06945 13.7689 6.70487 13.8418 7.32293 13.9877C7.94098 14.1335 8.55556 14.3523 9.16668 14.6439V6.4356C8.59723 6.10226 7.99306 5.85226 7.35418 5.6856C6.71529 5.51893 6.06945 5.4356 5.41668 5.4356C4.91668 5.4356 4.42015 5.48421 3.92709 5.58143C3.43404 5.67865 2.95834 5.82449 2.50001 6.01893V14.2689C2.98612 14.1023 3.46876 13.9773 3.94793 13.8939C4.42709 13.8106 4.91668 13.7689 5.41668 13.7689ZM10.8333 14.6439C11.4445 14.3523 12.059 14.1335 12.6771 13.9877C13.2951 13.8418 13.9306 13.7689 14.5833 13.7689C15.0833 13.7689 15.5729 13.8106 16.0521 13.8939C16.5313 13.9773 17.0139 14.1023 17.5 14.2689V6.01893C17.0417 5.82449 16.566 5.67865 16.0729 5.58143C15.5799 5.48421 15.0833 5.4356 14.5833 5.4356C13.9306 5.4356 13.2847 5.51893 12.6458 5.6856C12.007 5.85226 11.4028 6.10226 10.8333 6.4356V14.6439ZM10.0354 17.5381C9.36084 17.0181 8.63466 16.5966 7.85688 16.2735C7.07911 15.9505 6.2657 15.7889 5.41668 15.7889C4.86015 15.7889 4.31355 15.8673 3.77688 16.0239C3.24022 16.1807 2.72279 16.3902 2.22459 16.6523C1.82306 16.8599 1.42994 16.8503 1.04522 16.6235C0.660633 16.3967 0.468342 16.066 0.468342 15.6314V5.60143C0.468342 5.33879 0.528134 5.09407 0.647717 4.86726C0.7673 4.64046 0.946606 4.47032 1.18563 4.35685C1.84022 4.03143 2.51869 3.79122 3.22105 3.63622C3.92327 3.48136 4.64293 3.40393 5.38001 3.40393C6.20209 3.40393 7.00251 3.5081 7.78126 3.71643C8.56001 3.92476 9.29959 4.24907 10 4.68935C10.7083 4.25699 11.4499 3.93462 12.2246 3.72226C12.9995 3.51004 13.7979 3.40393 14.62 3.40393C15.3571 3.40393 16.0767 3.48136 16.779 3.63622C17.4813 3.79122 18.1598 4.03143 18.8144 4.35685C19.0534 4.47032 19.2327 4.64046 19.3523 4.86726C19.4719 5.09407 19.5317 5.33879 19.5317 5.60143V15.8079C19.5317 16.2137 19.3413 16.5098 18.9606 16.6962C18.5799 16.8825 18.1849 16.8678 17.7754 16.6523C17.2772 16.3902 16.7598 16.1807 16.2231 16.0239C15.6865 15.8673 15.1399 15.7889 14.5833 15.7889C13.75 15.7889 12.9504 15.9525 12.1844 16.2796C11.4184 16.6065 10.7021 17.026 10.0354 17.5381Z" fill="currentColor"/>
<rect x="3" y="2" width="2" height="20.7878" transform="rotate(-30 3 2)" fill="currentColor"/>
<rect x="4.73193" y="1" width="2" height="20.7878" transform="rotate(-30 4.73193 1)" fill="white"/>
</g>
</symbol><symbol id="import_contacts" viewBox="0 0 24 24">
<mask id="import_contacts__mask0_3_140" style="mask-type:alpha" maskUnits="userSpaceOnUse" x="0" y="0" width="24" height="24">
<rect width="24" height="24" fill="#D9D9D9"/>
</mask>
<g mask="url(#import_contacts__mask0_3_140)">
<path d="M6.5 16C7.28333 16 8.04583 16.0875 8.7875 16.2625C9.52917 16.4375 10.2667 16.7 11 17.05V7.2C10.3167 6.8 9.59167 6.5 8.825 6.3C8.05833 6.1 7.28333 6 6.5 6C5.9 6 5.30417 6.05833 4.7125 6.175C4.12083 6.29167 3.55 6.46667 3 6.7V16.6C3.58333 16.4 4.1625 16.25 4.7375 16.15C5.3125 16.05 5.9 16 6.5 16ZM13 17.05C13.7333 16.7 14.4708 16.4375 15.2125 16.2625C15.9542 16.0875 16.7167 16 17.5 16C18.1 16 18.6875 16.05 19.2625 16.15C19.8375 16.25 20.4167 16.4 21 16.6V6.7C20.45 6.46667 19.8792 6.29167 19.2875 6.175C18.6958 6.05833 18.1 6 17.5 6C16.7167 6 15.9417 6.1 15.175 6.3C14.4083 6.5 13.6833 6.8 13 7.2V17.05ZM12 20C11.2 19.3667 10.3333 18.875 9.4 18.525C8.46667 18.175 7.5 18 6.5 18C5.8 18 5.1125 18.0917 4.4375 18.275C3.7625 18.4583 3.11667 18.7167 2.5 19.05C2.15 19.2333 1.8125 19.225 1.4875 19.025C1.1625 18.825 1 18.5333 1 18.15V6.1C1 5.91667 1.04583 5.74167 1.1375 5.575C1.22917 5.40833 1.36667 5.28333 1.55 5.2C2.31667 4.8 3.11667 4.5 3.95 4.3C4.78333 4.1 5.63333 4 6.5 4C7.46667 4 8.4125 4.125 9.3375 4.375C10.2625 4.625 11.15 5 12 5.5C12.85 5 13.7375 4.625 14.6625 4.375C15.5875 4.125 16.5333 4 17.5 4C18.3667 4 19.2167 4.1 20.05 4.3C20.8833 4.5 21.6833 4.8 22.45 5.2C22.6333 5.28333 22.7708 5.40833 22.8625 5.575C22.9542 5.74167 23 5.91667 23 6.1V18.15C23 18.5333 22.8375 18.825 22.5125 19.025C22.1875 19.225 21.85 19.2333 21.5 19.05C20.8833 18.7167 20.2375 18.4583 19.5625 18.275C18.8875 18.0917 18.2 18 17.5 18C16.5 18 15.5333 18.175 14.6 18.525C13.6667 18.875 12.8 19.3667 12 20Z" fill="currentColor"/>
</g>
</symbol><symbol id="ink_eraser" viewBox="0 0 20 20">
<mask id="ink_eraser__mask0_3_107" style="mask-type:alpha" maskUnits="userSpaceOnUse" x="0" y="0" width="20" height="20">
<rect width="20" height="20" fill="#D9D9D9"/>
</mask>
<g mask="url(#ink_eraser__mask0_3_107)">
<path d="M14 14.5H18V16H12.5L14 14.5ZM4.89583 16L2.4375 13.5416C2.14583 13.25 1.99653 12.8993 1.98958 12.4895C1.98264 12.0798 2.13194 11.7222 2.4375 11.4166L11.4167 2.43746C11.7222 2.1319 12.0764 1.97913 12.4792 1.97913C12.8819 1.97913 13.238 2.13378 13.5473 2.44308L17.5625 6.45829C17.8542 6.74996 18.0035 7.10065 18.0104 7.51038C18.0174 7.9201 17.8681 8.27774 17.5625 8.58329L10.1458 16H4.89583ZM9.52083 14.5L16.5 7.52079L12.4792 3.49996L3.5 12.4791L5.52083 14.5H9.52083Z" fill="currentColor"/>
</g>
</symbol><symbol id="keep" viewBox="0 0 24 24">
<mask id="keep__mask0_3_29" style="mask-type:alpha" maskUnits="userSpaceOnUse" x="0" y="0" width="24" height="24">
<rect width="24" height="24" fill="#D9D9D9"/>
</mask>
<g mask="url(#keep__mask0_3_29)">
<path d="M16 12L18 14V16H13V22L12 23L11 22V16H6V14L8 12V5H7V3H17V5H16V12ZM8.85 14H15.15L14 12.85V5H10V12.85L8.85 14Z" fill="currentColor"/>
</g>
</symbol><symbol id="keyboard_tab" viewBox="0 0 20 20">
<mask id="keyboard_tab__mask0_3_323" style="mask-type:alpha" maskUnits="userSpaceOnUse" x="0" y="0" width="20" height="20">
<rect width="20" height="20" transform="matrix(-1 0 0 1 20 0)" fill="#D9D9D9"/>
</mask>
<g mask="url(#keyboard_tab__mask0_3_323)">
<path d="M3.33334 14.7917V5.20837H2.08334V14.7917H3.33334ZM9.86375 14.7036L10.7548 13.8334L7.54646 10.625H17.9167V9.37504H7.55438L10.734 6.16671L9.86375 5.2965L5.16021 10L9.86375 14.7036Z" fill="currentColor"/>
</g>
</symbol><symbol id="language_korean_latin_20" viewBox="0 0 20 20">
<mask id="language_korean_latin_20__mask0_67_2924" style="mask-type:alpha" maskUnits="userSpaceOnUse" x="0" y="0" width="20" height="20">
<rect width="20" height="20" fill="#D9D9D9"/>
</mask>
<g mask="url(#language_korean_latin_20__mask0_67_2924)">
<path d="M5.60417 10.2187C5.85417 10.0729 5.97917 9.84721 5.97917 9.54166C5.97917 9.2361 5.85417 9.01041 5.60417 8.86457C5.35417 8.71874 5.06076 8.64582 4.72396 8.64582C4.38729 8.64582 4.0991 8.71874 3.85938 8.86457C3.61979 9.01041 3.5 9.2361 3.5 9.54166C3.5 9.84721 3.61979 10.0729 3.85938 10.2187C4.0991 10.3646 4.38729 10.4375 4.72396 10.4375C5.06076 10.4375 5.35417 10.3646 5.60417 10.2187ZM1.875 7.45832V6.52082H4.16667V5.41666H5.25V6.52082H7.54167V7.45832H1.875ZM4.73458 11.375C4.10597 11.375 3.5625 11.2154 3.10417 10.8962C2.64583 10.5771 2.41667 10.1255 2.41667 9.54166C2.41667 8.95832 2.64222 8.50693 3.09333 8.18749C3.54431 7.86805 4.08625 7.70832 4.71917 7.70832C5.36542 7.70832 5.91403 7.86805 6.365 8.18749C6.81611 8.50693 7.04167 8.95832 7.04167 9.54166C7.04167 10.125 6.81764 10.5764 6.36958 10.8958C5.92153 11.2153 5.37653 11.375 4.73458 11.375ZM3.25 14.5833V11.75H4.33333V13.6667H9.625V14.5833H3.25ZM8.125 12.5V5.41666H9.20833V8.39582H10.5833V9.33332H9.22917V12.5H8.125ZM14.4167 13C14.82 13 15.2125 12.8924 15.5942 12.6771C15.9758 12.4618 16.3194 12.1597 16.625 11.7708V9.72916C16.2917 9.77082 15.9799 9.82374 15.6898 9.88791C15.3995 9.95193 15.1279 10.024 14.875 10.1042C14.2639 10.2986 13.8056 10.5417 13.5 10.8333C13.1944 11.125 13.0417 11.4617 13.0417 11.8433C13.0417 12.1978 13.1701 12.4792 13.4271 12.6875C13.684 12.8958 14.0139 13 14.4167 13ZM14 14.2917C13.25 14.2917 12.6493 14.0753 12.1979 13.6425C11.7465 13.2099 11.5208 12.6207 11.5208 11.875C11.5208 11.1711 11.7465 10.5958 12.1979 10.1492C12.6493 9.70249 13.3542 9.34721 14.3125 9.08332C14.6349 8.99582 14.9888 8.91562 15.3742 8.8427C15.7596 8.76978 16.1765 8.70416 16.625 8.64582C16.5833 8.03471 16.4201 7.5868 16.1354 7.30207C15.8507 7.01735 15.4167 6.87499 14.8333 6.87499C14.4722 6.87499 14.125 6.93749 13.7917 7.06249C13.4583 7.18749 13.0417 7.40971 12.5417 7.72916L11.8542 6.60416C12.3264 6.24305 12.8542 5.9618 13.4375 5.76041C14.0208 5.55902 14.5972 5.45832 15.1667 5.45832C16.125 5.45832 16.8576 5.75693 17.3646 6.35416C17.8715 6.95138 18.125 7.81277 18.125 8.93832V14.1042H16.8958L16.75 13.1042C16.3611 13.4792 15.9306 13.7708 15.4583 13.9792C14.9861 14.1875 14.5 14.2917 14 14.2917Z" fill="#1C1B1F"/>
</g>
</symbol><symbol id="language_korean_latin_30" viewBox="0 0 30 30">
<mask id="language_korean_latin_30__mask0_124_7143" style="mask-type:alpha" maskUnits="userSpaceOnUse" x="0" y="0" width="30" height="30">
<rect width="30" height="30" fill="#D9D9D9"/>
</mask>
<g mask="url(#language_korean_latin_30__mask0_124_7143)">
<path d="M8.14063 15.3594C8.52604 15.1198 8.71875 14.7604 8.71875 14.2812C8.71875 13.8021 8.52604 13.4375 8.14063 13.1875C7.75521 12.9375 7.29167 12.8125 6.75 12.8125C6.20833 12.8125 5.74479 12.9375 5.35938 13.1875C4.97396 13.4375 4.78125 13.8021 4.78125 14.2812C4.78125 14.7604 4.97396 15.1198 5.35938 15.3594C5.74479 15.599 6.20833 15.7188 6.75 15.7188C7.29167 15.7188 7.75521 15.599 8.14063 15.3594ZM2.34375 11V9.625H5.90625V7.875H7.53125V9.625H11.125V11H2.34375ZM6.75 17.0938C5.77083 17.0938 4.93229 16.849 4.23438 16.3594C3.53646 15.8698 3.1875 15.1771 3.1875 14.2812C3.1875 13.3646 3.53646 12.6667 4.23438 12.1875C4.93229 11.7083 5.77083 11.4688 6.75 11.4688C7.75 11.4688 8.59896 11.7083 9.29688 12.1875C9.99479 12.6667 10.3438 13.3646 10.3438 14.2812C10.3438 15.1979 9.99479 15.8958 9.29688 16.375C8.59896 16.8542 7.75 17.0938 6.75 17.0938ZM4.46875 22.125V17.75H6.125V20.75H14.375V22.125H4.46875ZM12.125 18.8438V7.875H13.7188V12.5625H15.875V13.9375H13.75V18.8438H12.125ZM21.9375 19.5625C22.5208 19.5625 23.0885 19.4271 23.6406 19.1563C24.1927 18.8854 24.6979 18.5 25.1562 18V14.6875C24.6771 14.75 24.2344 14.8229 23.8281 14.9062C23.4219 14.9896 23.0417 15.0833 22.6875 15.1875C21.75 15.4792 21.0469 15.8438 20.5781 16.2812C20.1094 16.7188 19.875 17.2292 19.875 17.8125C19.875 18.3542 20.0625 18.7812 20.4375 19.0938C20.8125 19.4062 21.3125 19.5625 21.9375 19.5625ZM21.2188 21.6875C20.0312 21.6875 19.0938 21.349 18.4062 20.6719C17.7188 19.9948 17.375 19.0729 17.375 17.9063C17.375 16.8229 17.7188 15.9375 18.4062 15.25C19.0938 14.5625 20.1979 14.0104 21.7188 13.5938C22.1979 13.4688 22.724 13.3542 23.2969 13.25C23.8698 13.1458 24.4896 13.0521 25.1562 12.9688C25.1146 11.9896 24.8854 11.276 24.4688 10.8281C24.0521 10.3802 23.4062 10.1562 22.5312 10.1562C21.9896 10.1562 21.4531 10.2552 20.9219 10.4531C20.3906 10.651 19.7083 11 18.875 11.5L17.875 9.75C18.5625 9.22917 19.3698 8.80729 20.2969 8.48438C21.224 8.16146 22.1667 8 23.125 8C24.6042 8 25.7292 8.45833 26.5 9.375C27.2708 10.2917 27.6562 11.625 27.6562 13.375V21.4062H25.5625L25.375 20C24.7917 20.5208 24.151 20.9323 23.4531 21.2344C22.7552 21.5365 22.0104 21.6875 21.2188 21.6875Z" fill="#1C1B1F"/>
</g>
</symbol><symbol id="language_korean_latin" viewBox="0 0 24 24">
<mask id="language_korean_latin__mask0_67_2903" style="mask-type:alpha" maskUnits="userSpaceOnUse" x="0" y="0" width="24" height="24">
<rect width="24" height="24" fill="#D9D9D9"/>
</mask>
<g mask="url(#language_korean_latin__mask0_67_2903)">
<path d="M6.5125 12.2875C6.82083 12.0958 6.975 11.8083 6.975 11.425C6.975 11.0417 6.82083 10.75 6.5125 10.55C6.20417 10.35 5.83333 10.25 5.4 10.25C4.96667 10.25 4.59583 10.35 4.2875 10.55C3.97917 10.75 3.825 11.0417 3.825 11.425C3.825 11.8083 3.97917 12.0958 4.2875 12.2875C4.59583 12.4792 4.96667 12.575 5.4 12.575C5.83333 12.575 6.20417 12.4792 6.5125 12.2875ZM1.875 8.79999V7.69999H4.725V6.29999H6.025V7.69999H8.9V8.79999H1.875ZM5.4 13.675C4.61667 13.675 3.94583 13.4792 3.3875 13.0875C2.82917 12.6958 2.55 12.1417 2.55 11.425C2.55 10.6917 2.82917 10.1333 3.3875 9.74999C3.94583 9.36665 4.61667 9.17499 5.4 9.17499C6.2 9.17499 6.87917 9.36665 7.4375 9.74999C7.99583 10.1333 8.275 10.6917 8.275 11.425C8.275 12.1583 7.99583 12.7167 7.4375 13.1C6.87917 13.4833 6.2 13.675 5.4 13.675ZM3.575 17.7V14.2H4.9V16.6H11.5V17.7H3.575ZM9.7 15.075V6.29999H10.975V10.05H12.7V11.15H11V15.075H9.7ZM17.55 15.65C18.0167 15.65 18.4708 15.5417 18.9125 15.325C19.3542 15.1083 19.7583 14.8 20.125 14.4V11.75C19.7417 11.8 19.3875 11.8583 19.0625 11.925C18.7375 11.9917 18.4333 12.0667 18.15 12.15C17.4 12.3833 16.8375 12.675 16.4625 13.025C16.0875 13.375 15.9 13.7833 15.9 14.25C15.9 14.6833 16.05 15.025 16.35 15.275C16.65 15.525 17.05 15.65 17.55 15.65ZM16.975 17.35C16.025 17.35 15.275 17.0792 14.725 16.5375C14.175 15.9958 13.9 15.2583 13.9 14.325C13.9 13.4583 14.175 12.75 14.725 12.2C15.275 11.65 16.1583 11.2083 17.375 10.875C17.7583 10.775 18.1792 10.6833 18.6375 10.6C19.0958 10.5167 19.5917 10.4417 20.125 10.375C20.0917 9.59165 19.9083 9.02082 19.575 8.66249C19.2417 8.30415 18.725 8.12499 18.025 8.12499C17.5917 8.12499 17.1625 8.20415 16.7375 8.36249C16.3125 8.52082 15.7667 8.79999 15.1 9.19999L14.3 7.79999C14.85 7.38332 15.4958 7.04582 16.2375 6.78749C16.9792 6.52915 17.7333 6.39999 18.5 6.39999C19.6833 6.39999 20.5833 6.76665 21.2 7.49999C21.8167 8.23332 22.125 9.29999 22.125 10.7V17.125H20.45L20.3 16C19.8333 16.4167 19.3208 16.7458 18.7625 16.9875C18.2042 17.2292 17.6083 17.35 16.975 17.35Z" fill="#1C1B1F"/>
</g>
</symbol><symbol id="library_books" viewBox="0 0 24 24">
<mask id="library_books__mask0_3_134" style="mask-type:alpha" maskUnits="userSpaceOnUse" x="0" y="0" width="24" height="24">
<rect width="24" height="24" fill="#D9D9D9"/>
</mask>
<g mask="url(#library_books__mask0_3_134)">
<path d="M10 14H14V12H10V14ZM10 11H18V9H10V11ZM10 8H18V6H10V8ZM8 18C7.45 18 6.97917 17.8042 6.5875 17.4125C6.19583 17.0208 6 16.55 6 16V4C6 3.45 6.19583 2.97917 6.5875 2.5875C6.97917 2.19583 7.45 2 8 2H20C20.55 2 21.0208 2.19583 21.4125 2.5875C21.8042 2.97917 22 3.45 22 4V16C22 16.55 21.8042 17.0208 21.4125 17.4125C21.0208 17.8042 20.55 18 20 18H8ZM8 16H20V4H8V16ZM4 22C3.45 22 2.97917 21.8042 2.5875 21.4125C2.19583 21.0208 2 20.55 2 20V6H4V20H18V22H4Z" fill="currentColor"/>
</g>
</symbol><symbol id="line_end_diamond" viewBox="0 0 20 20">
<mask id="line_end_diamond__mask0_41_2306" style="mask-type:alpha" maskUnits="userSpaceOnUse" x="0" y="0" width="20" height="20">
<rect width="20" height="20" fill="#D9D9D9"/>
</mask>
<g mask="url(#line_end_diamond__mask0_41_2306)">
<path d="M13 12.875L15.875 10L13 7.125L10.125 10L13 12.875ZM13 15L8.75 10.75H2V9.25H8.75L13 5L18 10L13 15Z" fill="#1C1B1F"/>
</g>
</symbol><symbol id="line_start_diamond" viewBox="0 0 20 20">
<mask id="line_start_diamond__mask0_41_2300" style="mask-type:alpha" maskUnits="userSpaceOnUse" x="0" y="0" width="20" height="20">
<rect width="20" height="20" fill="#D9D9D9"/>
</mask>
<g mask="url(#line_start_diamond__mask0_41_2300)">
<path d="M7 12.875L9.875 10L7 7.125L4.125 10L7 12.875ZM7 15L2 10L7 5L11.25 9.25H18V10.75H11.25L7 15Z" fill="#1C1B1F"/>
</g>
</symbol><symbol id="login" viewBox="0 0 24 24">
<mask id="login__mask0_2_1262" style="mask-type:alpha" maskUnits="userSpaceOnUse" x="0" y="0" width="24" height="24">
<rect width="24" height="24" fill="#D9D9D9"/>
</mask>
<g mask="url(#login__mask0_2_1262)">
<path d="M12 21V19H19V5H12V3H19C19.55 3 20.0208 3.19583 20.4125 3.5875C20.8042 3.97917 21 4.45 21 5V19C21 19.55 20.8042 20.0208 20.4125 20.4125C20.0208 20.8042 19.55 21 19 21H12ZM10 17L8.625 15.55L11.175 13H3V11H11.175L8.625 8.45L10 7L15 12L10 17Z" fill="currentColor"/>
</g>
</symbol><symbol id="logo" viewBox="0 0 43 40">
<g clip-path="url(#logo__clip0_16_680)">
<path d="M17.7277 6.5L21.1111 8.58974L24.4946 6.5H38.2778V9.27778H25.2832L21.1111 11.8547L16.939 9.27778H3.8889V6.5H17.7277Z" fill="white"/>
<path d="M12.3889 14.8335V17.0557H3.8889V14.8335H12.3889Z" fill="white"/>
<path d="M9.63141 16.6625L5.40919 24.0514L3.47972 22.9489L7.70194 15.5601L9.63141 16.6625Z" fill="white"/>
<path d="M6.70193 16.6625L10.9242 24.0514L12.8536 22.9489L8.6314 15.5601L6.70193 16.6625Z" fill="white"/>
<path d="M38.3333 14.8887V19.222H36.1111V17.1109H30.7778V14.8887H38.3333Z" fill="white"/>
<path d="M30.7778 24.1113V18.8891H33V21.8891H38.3333V24.1113H30.7778Z" fill="white"/>
<path d="M38.3333 18.8335V21.0557H30.7778V18.8335H38.3333Z" fill="white"/>
<path d="M24.8889 13.5V24H22.6667V13.5H24.8889Z" fill="#C4100F"/>
<path d="M17.7277 27.9443L21.1111 30.0341L24.4946 27.9443H38.2778V30.7221H25.2832L21.1111 33.299L16.939 30.7221H3.8889V27.9443H17.7277Z" fill="white"/>
<path d="M26.5556 21.8613V24.0836H16.5556V21.8613H26.5556Z" fill="white"/>
<path d="M20.4445 13.5V24.0556H18.2222V13.5H20.4445Z" fill="#C4100F"/>
<path d="M26.5556 14.9722V17.1944H16.5556V14.9722H26.5556Z" fill="white"/>
</g>
<defs>
<clipPath id="logo__clip0_16_680">
<rect width="42.2222" height="40" fill="white"/>
</clipPath>
</defs>
</symbol><symbol id="logout" viewBox="0 0 24 24">
<mask id="logout__mask0_2_1265" style="mask-type:alpha" maskUnits="userSpaceOnUse" x="0" y="0" width="24" height="24">
<rect width="24" height="24" fill="#D9D9D9"/>
</mask>
<g mask="url(#logout__mask0_2_1265)">
<path d="M5 21C4.45 21 3.97917 20.8042 3.5875 20.4125C3.19583 20.0208 3 19.55 3 19V5C3 4.45 3.19583 3.97917 3.5875 3.5875C3.97917 3.19583 4.45 3 5 3H12V5H5V19H12V21H5ZM16 17L14.625 15.55L17.175 13H9V11H17.175L14.625 8.45L16 7L21 12L16 17Z" fill="currentColor"/>
</g>
</symbol><symbol id="manage_search" viewBox="0 0 24 24">
<mask id="manage_search__mask0_85_7190" style="mask-type:alpha" maskUnits="userSpaceOnUse" x="0" y="0" width="24" height="24">
<rect width="24" height="24" fill="#D9D9D9"/>
</mask>
<g mask="url(#manage_search__mask0_85_7190)">
<path d="M2 19V17H12V19H2ZM2 14V12H7V14H2ZM2 9V7H7V9H2ZM20.6 19L16.75 15.15C16.35 15.4333 15.9125 15.6458 15.4375 15.7875C14.9625 15.9292 14.4833 16 14 16C12.6167 16 11.4375 15.5125 10.4625 14.5375C9.4875 13.5625 9 12.3833 9 11C9 9.61667 9.4875 8.4375 10.4625 7.4625C11.4375 6.4875 12.6167 6 14 6C15.3833 6 16.5625 6.4875 17.5375 7.4625C18.5125 8.4375 19 9.61667 19 11C19 11.4833 18.9292 11.9625 18.7875 12.4375C18.6458 12.9125 18.4333 13.35 18.15 13.75L22 17.6L20.6 19ZM14 14C14.8333 14 15.5417 13.7083 16.125 13.125C16.7083 12.5417 17 11.8333 17 11C17 10.1667 16.7083 9.45833 16.125 8.875C15.5417 8.29167 14.8333 8 14 8C13.1667 8 12.4583 8.29167 11.875 8.875C11.2917 9.45833 11 10.1667 11 11C11 11.8333 11.2917 12.5417 11.875 13.125C12.4583 13.7083 13.1667 14 14 14Z" fill="currentColor"/>
</g>
</symbol><symbol id="more_vert_34" viewBox="0 0 30 30">
<mask id="more_vert_34__mask0_124_7140" style="mask-type:alpha" maskUnits="userSpaceOnUse" x="0" y="0" width="30" height="30">
<rect width="30" height="30" fill="#D9D9D9"/>
</mask>
<g mask="url(#more_vert_34__mask0_124_7140)">
<path d="M15 25C14.3125 25 13.724 24.7552 13.2344 24.2656C12.7448 23.776 12.5 23.1875 12.5 22.5C12.5 21.8125 12.7448 21.224 13.2344 20.7344C13.724 20.2448 14.3125 20 15 20C15.6875 20 16.276 20.2448 16.7656 20.7344C17.2552 21.224 17.5 21.8125 17.5 22.5C17.5 23.1875 17.2552 23.776 16.7656 24.2656C16.276 24.7552 15.6875 25 15 25ZM15 17.5C14.3125 17.5 13.724 17.2552 13.2344 16.7656C12.7448 16.276 12.5 15.6875 12.5 15C12.5 14.3125 12.7448 13.724 13.2344 13.2344C13.724 12.7448 14.3125 12.5 15 12.5C15.6875 12.5 16.276 12.7448 16.7656 13.2344C17.2552 13.724 17.5 14.3125 17.5 15C17.5 15.6875 17.2552 16.276 16.7656 16.7656C16.276 17.2552 15.6875 17.5 15 17.5ZM15 10C14.3125 10 13.724 9.75521 13.2344 9.26562C12.7448 8.77604 12.5 8.1875 12.5 7.5C12.5 6.8125 12.7448 6.22396 13.2344 5.73438C13.724 5.24479 14.3125 5 15 5C15.6875 5 16.276 5.24479 16.7656 5.73438C17.2552 6.22396 17.5 6.8125 17.5 7.5C17.5 8.1875 17.2552 8.77604 16.7656 9.26562C16.276 9.75521 15.6875 10 15 10Z" fill="currentColor"/>
</g>
</symbol><symbol id="more_vert" viewBox="0 0 24 24">
<mask id="more_vert__mask0_4_188" style="mask-type:alpha" maskUnits="userSpaceOnUse" x="0" y="0" width="24" height="24">
<rect width="24" height="24" fill="#D9D9D9"/>
</mask>
<g mask="url(#more_vert__mask0_4_188)">
<path d="M12 20C11.45 20 10.9792 19.8042 10.5875 19.4125C10.1958 19.0208 10 18.55 10 18C10 17.45 10.1958 16.9792 10.5875 16.5875C10.9792 16.1958 11.45 16 12 16C12.55 16 13.0208 16.1958 13.4125 16.5875C13.8042 16.9792 14 17.45 14 18C14 18.55 13.8042 19.0208 13.4125 19.4125C13.0208 19.8042 12.55 20 12 20ZM12 14C11.45 14 10.9792 13.8042 10.5875 13.4125C10.1958 13.0208 10 12.55 10 12C10 11.45 10.1958 10.9792 10.5875 10.5875C10.9792 10.1958 11.45 10 12 10C12.55 10 13.0208 10.1958 13.4125 10.5875C13.8042 10.9792 14 11.45 14 12C14 12.55 13.8042 13.0208 13.4125 13.4125C13.0208 13.8042 12.55 14 12 14ZM12 8C11.45 8 10.9792 7.80417 10.5875 7.4125C10.1958 7.02083 10 6.55 10 6C10 5.45 10.1958 4.97917 10.5875 4.5875C10.9792 4.19583 11.45 4 12 4C12.55 4 13.0208 4.19583 13.4125 4.5875C13.8042 4.97917 14 5.45 14 6C14 6.55 13.8042 7.02083 13.4125 7.4125C13.0208 7.80417 12.55 8 12 8Z" fill="currentColor"/>
</g>
</symbol><symbol id="person_pin" viewBox="0 0 24 24">
<mask id="person_pin__mask0_85_7178" style="mask-type:alpha" maskUnits="userSpaceOnUse" x="0" y="0" width="24" height="24">
<rect width="24" height="24" fill="#D9D9D9"/>
</mask>
<g mask="url(#person_pin__mask0_85_7178)">
<path d="M12 23L9 20H5C4.45 20 3.97917 19.8042 3.5875 19.4125C3.19583 19.0208 3 18.55 3 18V4C3 3.45 3.19583 2.97917 3.5875 2.5875C3.97917 2.19583 4.45 2 5 2H19C19.55 2 20.0208 2.19583 20.4125 2.5875C20.8042 2.97917 21 3.45 21 4V18C21 18.55 20.8042 19.0208 20.4125 19.4125C20.0208 19.8042 19.55 20 19 20H15L12 23ZM5 16.85C5.9 15.9667 6.94583 15.2708 8.1375 14.7625C9.32917 14.2542 10.6167 14 12 14C13.3833 14 14.6708 14.2542 15.8625 14.7625C17.0542 15.2708 18.1 15.9667 19 16.85V4H5V16.85ZM12 12C12.9667 12 13.7917 11.6583 14.475 10.975C15.1583 10.2917 15.5 9.46667 15.5 8.5C15.5 7.53333 15.1583 6.70833 14.475 6.025C13.7917 5.34167 12.9667 5 12 5C11.0333 5 10.2083 5.34167 9.525 6.025C8.84167 6.70833 8.5 7.53333 8.5 8.5C8.5 9.46667 8.84167 10.2917 9.525 10.975C10.2083 11.6583 11.0333 12 12 12ZM7 18H17V17.75C16.3 17.1667 15.525 16.7292 14.675 16.4375C13.825 16.1458 12.9333 16 12 16C11.0667 16 10.175 16.1458 9.325 16.4375C8.475 16.7292 7.7 17.1667 7 17.75V18ZM12 10C11.5833 10 11.2292 9.85417 10.9375 9.5625C10.6458 9.27083 10.5 8.91667 10.5 8.5C10.5 8.08333 10.6458 7.72917 10.9375 7.4375C11.2292 7.14583 11.5833 7 12 7C12.4167 7 12.7708 7.14583 13.0625 7.4375C13.3542 7.72917 13.5 8.08333 13.5 8.5C13.5 8.91667 13.3542 9.27083 13.0625 9.5625C12.7708 9.85417 12.4167 10 12 10Z" fill="currentColor"/>
</g>
</symbol><symbol id="person_raised_hand" viewBox="0 0 20 20">
<mask id="person_raised_hand__mask0_26_1056" style="mask-type:alpha" maskUnits="userSpaceOnUse" x="0" y="0" width="20" height="20">
<rect width="20" height="20" fill="#D9D9D9"/>
</mask>
<g mask="url(#person_raised_hand__mask0_26_1056)">
<path d="M1.41667 18.2627V17.1793H18.5833V18.2627H1.41667ZM4.41667 15.5833V11.6281C4.01709 10.8184 3.69709 10.0278 3.45667 9.25642C3.21639 8.48503 3.09626 7.72489 3.09626 6.976C3.09626 6.18697 3.19882 5.39253 3.40396 4.59267C3.6091 3.79267 3.85001 2.92739 4.12667 1.99683C4.16403 1.83544 4.25146 1.69843 4.38896 1.58579C4.52632 1.47301 4.68403 1.41663 4.86209 1.41663C5.05501 1.41663 5.21813 1.4917 5.35146 1.64183C5.48466 1.79197 5.55924 1.97329 5.57521 2.18579L5.58334 4.59767C5.58334 5.24086 5.70216 5.85308 5.9398 6.43433C6.17757 7.01545 6.5032 7.52933 6.91667 7.976C7.33014 8.42253 7.81084 8.77531 8.35876 9.03434C8.90667 9.29336 9.48931 9.42288 10.1067 9.42288C10.8542 9.42288 11.5633 9.48142 12.2342 9.5985C12.905 9.71559 13.4872 9.89746 13.9806 10.1441C14.4901 10.4015 14.8845 10.7308 15.164 11.132C15.4435 11.5333 15.5833 12.024 15.5833 12.6041V15.5833H4.41667ZM5.50001 14.5H14.5V12.6041C14.5 12.133 14.3149 11.7505 13.9448 11.4566C13.5745 11.1629 13.1249 10.9316 12.596 10.7627C12.1688 10.642 11.7362 10.568 11.2981 10.5408C10.8601 10.5136 10.4621 10.5 10.1042 10.5C9.3425 10.5 8.62459 10.3453 7.95042 10.036C7.27626 9.7267 6.68382 9.30552 6.17313 8.77246C5.66244 8.23927 5.25723 7.62121 4.95751 6.91829C4.65778 6.21524 4.50528 5.46468 4.50001 4.66663C4.38889 5.01385 4.30556 5.36267 4.25001 5.71308C4.19445 6.0635 4.16667 6.42197 4.16667 6.7885C4.16667 7.5042 4.28924 8.23843 4.53438 8.99121C4.77966 9.74385 5.10153 10.5283 5.50001 11.3445V14.5ZM10 8.22434C9.27889 8.22434 8.66806 7.97406 8.16751 7.4735C7.66695 6.97295 7.41667 6.36211 7.41667 5.641C7.41667 4.91989 7.66695 4.30906 8.16751 3.8085C8.66806 3.30795 9.27889 3.05767 10 3.05767C10.7211 3.05767 11.332 3.30795 11.8325 3.8085C12.3331 4.30906 12.5833 4.91989 12.5833 5.641C12.5833 6.36211 12.3331 6.97295 11.8325 7.4735C11.332 7.97406 10.7211 8.22434 10 8.22434ZM10.0044 7.141C10.4181 7.141 10.7708 6.99371 11.0625 6.69913C11.3542 6.40454 11.5 6.05038 11.5 5.63663C11.5 5.22288 11.3527 4.87017 11.0581 4.5785C10.7635 4.28683 10.4094 4.141 9.99563 4.141C9.58188 4.141 9.22917 4.28829 8.93751 4.58288C8.64584 4.8776 8.50001 5.23177 8.50001 5.64538C8.50001 6.05913 8.6473 6.41184 8.94188 6.7035C9.23646 6.99517 9.59063 7.141 10.0044 7.141ZM7.45355 15.5833V14.5495C7.45355 13.8605 7.70035 13.2793 8.19396 12.806C8.68757 12.3328 9.27889 12.0962 9.96792 12.0962H12.7115V13.1793H9.96792C9.57098 13.1793 9.23674 13.313 8.96521 13.5804C8.69355 13.8477 8.55771 14.1708 8.55771 14.5495V15.5833H7.45355Z" fill="currentColor"/>
</g>
</symbol><symbol id="planet" viewBox="0 0 24 24">
<mask id="planet__mask0_3_33" style="mask-type:alpha" maskUnits="userSpaceOnUse" x="0" y="0" width="24" height="24">
<rect width="24" height="24" fill="#D9D9D9"/>
</mask>
<g mask="url(#planet__mask0_3_33)">
<path d="M20.55 22C19.85 22 18.9083 21.7083 17.725 21.125C16.5417 20.5417 15.275 19.75 13.925 18.75C13.6083 18.8333 13.2875 18.8958 12.9625 18.9375C12.6375 18.9792 12.3083 19 11.975 19C10.025 19 8.37499 18.325 7.02499 16.975C5.67499 15.625 4.99999 13.975 4.99999 12.025C4.99999 11.6917 5.02499 11.3583 5.07499 11.025C5.12499 10.6917 5.19166 10.3667 5.27499 10.05C4.29166 8.7 3.50416 7.4375 2.91249 6.2625C2.32083 5.0875 2.02499 4.15 2.02499 3.45C2.02499 3 2.14999 2.64583 2.39999 2.3875C2.64999 2.12917 2.99166 2 3.42499 2C3.85833 2 4.42083 2.15 5.11249 2.45C5.80416 2.75 6.75833 3.25833 7.97499 3.975C7.62499 4.15833 7.29999 4.35 6.99999 4.55C6.69999 4.75 6.40833 4.96667 6.12499 5.2C5.80833 5.01667 5.49999 4.85833 5.19999 4.725C4.89999 4.59167 4.58333 4.45 4.24999 4.3C4.54999 4.93333 4.87083 5.55 5.21249 6.15C5.55416 6.75 5.91666 7.34167 6.29999 7.925C6.93333 7.025 7.74166 6.31667 8.72499 5.8C9.70833 5.28333 10.7917 5.025 11.975 5.025C13.925 5.025 15.5792 5.70417 16.9375 7.0625C18.2958 8.42083 18.975 10.075 18.975 12.025C18.975 13.2083 18.7125 14.2917 18.1875 15.275C17.6625 16.2583 16.95 17.0667 16.05 17.7C16.6333 18.0833 17.2292 18.45 17.8375 18.8C18.4458 19.15 19.0667 19.4667 19.7 19.75C19.5667 19.4333 19.4292 19.125 19.2875 18.825C19.1458 18.525 18.9833 18.2167 18.8 17.9C19.05 17.6167 19.275 17.3167 19.475 17C19.675 16.6833 19.8583 16.3583 20.025 16.025C20.7917 17.325 21.3125 18.2958 21.5875 18.9375C21.8625 19.5792 22 20.1167 22 20.55C22 21.0333 21.8667 21.3958 21.6 21.6375C21.3333 21.8792 20.9833 22 20.55 22ZM11.7 16.975C10.85 16.2417 10.0333 15.4833 9.24999 14.7C8.46666 13.9167 7.71666 13.1 6.99999 12.25C7.03333 12.8833 7.17499 13.4792 7.42499 14.0375C7.67499 14.5958 8.01666 15.0917 8.44999 15.525C8.88333 15.9583 9.37499 16.3 9.92499 16.55C10.475 16.8 11.0667 16.9417 11.7 16.975ZM14.275 16.45C15.075 16.0333 15.725 15.4292 16.225 14.6375C16.725 13.8458 16.975 12.9667 16.975 12C16.975 10.6167 16.4875 9.44167 15.5125 8.475C14.5375 7.50833 13.3583 7.025 11.975 7.025C11.0083 7.025 10.1333 7.275 9.34999 7.775C8.56666 8.275 7.96666 8.925 7.54999 9.725C8.49999 10.9917 9.54166 12.1917 10.675 13.325C11.8083 14.4583 13.0083 15.5 14.275 16.45Z" fill="currentColor"/>
</g>
</symbol><symbol id="search_activity" viewBox="0 0 20 20">
<mask id="search_activity__mask0_3_229" style="mask-type:alpha" maskUnits="userSpaceOnUse" x="0" y="0" width="20" height="20">
<rect width="20" height="20" fill="#D9D9D9"/>
</mask>
<g mask="url(#search_activity__mask0_3_229)">
<path d="M12.5023 4.25C12.223 4.25 11.9861 4.15354 11.7917 3.96062C11.5972 3.76785 11.5 3.53174 11.5 3.25229C11.5 2.97299 11.5965 2.73611 11.7894 2.54167C11.9822 2.34722 12.2183 2.25 12.4977 2.25C12.777 2.25 13.0139 2.34646 13.2083 2.53938C13.4028 2.73215 13.5 2.96826 13.5 3.24771C13.5 3.52701 13.4035 3.76389 13.2106 3.95833C13.0178 4.15278 12.7817 4.25 12.5023 4.25ZM12.5023 17.75C12.223 17.75 11.9861 17.6535 11.7917 17.4606C11.5972 17.2678 11.5 17.0317 11.5 16.7523C11.5 16.473 11.5965 16.2361 11.7894 16.0417C11.9822 15.8472 12.2183 15.75 12.4977 15.75C12.777 15.75 13.0139 15.8465 13.2083 16.0394C13.4028 16.2322 13.5 16.4683 13.5 16.7477C13.5 17.027 13.4035 17.2639 13.2106 17.4583C13.0178 17.6528 12.7817 17.75 12.5023 17.75ZM16.0023 7.25C15.723 7.25 15.4861 7.15354 15.2917 6.96062C15.0972 6.76785 15 6.53174 15 6.25229C15 5.97299 15.0965 5.73611 15.2894 5.54167C15.4822 5.34722 15.7183 5.25 15.9977 5.25C16.277 5.25 16.5139 5.34646 16.7083 5.53938C16.9028 5.73215 17 5.96826 17 6.24771C17 6.52701 16.9035 6.76389 16.7106 6.95833C16.5178 7.15278 16.2817 7.25 16.0023 7.25ZM16.0023 14.75C15.723 14.75 15.4861 14.6535 15.2917 14.4606C15.0972 14.2678 15 14.0317 15 13.7523C15 13.473 15.0965 13.2361 15.2894 13.0417C15.4822 12.8472 15.7183 12.75 15.9977 12.75C16.277 12.75 16.5139 12.8465 16.7083 13.0394C16.9028 13.2322 17 13.4683 17 13.7477C17 14.027 16.9035 14.2639 16.7106 14.4583C16.5178 14.6528 16.2817 14.75 16.0023 14.75ZM17.0023 11C16.723 11 16.4861 10.9035 16.2917 10.7106C16.0972 10.5178 16 10.2817 16 10.0023C16 9.72299 16.0965 9.48611 16.2894 9.29167C16.4822 9.09722 16.7183 9 16.9977 9C17.277 9 17.5139 9.09646 17.7083 9.28938C17.9028 9.48215 18 9.71826 18 9.99771C18 10.277 17.9035 10.5139 17.7106 10.7083C17.5178 10.9028 17.2817 11 17.0023 11ZM10 18C8.8975 18 7.86146 17.7917 6.89188 17.375C5.92229 16.9583 5.07292 16.3854 4.34375 15.6562C3.61458 14.9271 3.04167 14.0767 2.625 13.105C2.20833 12.1333 2 11.0951 2 9.99042C2 8.88569 2.20833 7.85069 2.625 6.88542C3.04167 5.92014 3.61458 5.07292 4.34375 4.34375C5.07292 3.61458 5.92229 3.04167 6.89188 2.625C7.86146 2.20833 8.8975 2 10 2V3.5C8.19444 3.5 6.65972 4.13194 5.39583 5.39583C4.13194 6.65972 3.5 8.19444 3.5 10C3.5 11.8056 4.13194 13.3403 5.39583 14.6042C6.65972 15.8681 8.19444 16.5 10 16.5V18ZM12.7917 13.5417L9.25 10V5H10.75V9.375L13.8542 12.4792L12.7917 13.5417Z" fill="currentColor"/>
</g>
</symbol><symbol id="sell" viewBox="0 0 24 24">
<mask id="sell__mask0_9_206" style="mask-type:alpha" maskUnits="userSpaceOnUse" x="0" y="0" width="24" height="24">
<rect width="24" height="24" fill="#D9D9D9"/>
</mask>
<g mask="url(#sell__mask0_9_206)">
<path d="M21.4 14.25L14.25 21.4C14.05 21.6 13.825 21.75 13.575 21.85C13.325 21.95 13.075 22 12.825 22C12.575 22 12.325 21.95 12.075 21.85C11.825 21.75 11.6 21.6 11.4 21.4L2.575 12.575C2.39167 12.3917 2.25 12.1792 2.15 11.9375C2.05 11.6958 2 11.4417 2 11.175V4C2 3.45 2.19583 2.97917 2.5875 2.5875C2.97917 2.19583 3.45 2 4 2H11.175C11.4417 2 11.7 2.05417 11.95 2.1625C12.2 2.27083 12.4167 2.41667 12.6 2.6L21.4 11.425C21.6 11.625 21.7458 11.85 21.8375 12.1C21.9292 12.35 21.975 12.6 21.975 12.85C21.975 13.1 21.9292 13.3458 21.8375 13.5875C21.7458 13.8292 21.6 14.05 21.4 14.25ZM12.825 20L19.975 12.85L11.15 4H4V11.15L12.825 20ZM6.5 8C6.91667 8 7.27083 7.85417 7.5625 7.5625C7.85417 7.27083 8 6.91667 8 6.5C8 6.08333 7.85417 5.72917 7.5625 5.4375C7.27083 5.14583 6.91667 5 6.5 5C6.08333 5 5.72917 5.14583 5.4375 5.4375C5.14583 5.72917 5 6.08333 5 6.5C5 6.91667 5.14583 7.27083 5.4375 7.5625C5.72917 7.85417 6.08333 8 6.5 8Z" fill="currentColor"/>
</g>
</symbol><symbol id="sentiment_sad_2" viewBox="0 0 20 20">
<mask id="sentiment_sad_2__mask0_169_9554" style="mask-type:alpha" maskUnits="userSpaceOnUse" x="0" y="0" width="20" height="20">
<rect width="20" height="20" fill="#D9D9D9"/>
</mask>
<g mask="url(#sentiment_sad_2__mask0_169_9554)">
<path d="M5.5 13H7V12.5208C7 11.6875 7.29167 10.9792 7.875 10.3958C8.45833 9.8125 9.16667 9.52083 10 9.52083C10.8333 9.52083 11.5417 9.8125 12.125 10.3958C12.7083 10.9792 13 11.6875 13 12.5208V13H14.5V12.5208C14.5 11.2708 14.0625 10.2083 13.1875 9.33333C12.3125 8.45833 11.25 8.02083 10 8.02083C8.75 8.02083 7.6875 8.45833 6.8125 9.33333C5.9375 10.2083 5.5 11.2708 5.5 12.5208V13ZM6.10417 7.75C6.65972 7.68056 7.24306 7.47569 7.85417 7.13542C8.46528 6.79514 8.95139 6.41667 9.3125 6L8.1875 5C7.9375 5.27778 7.58681 5.54167 7.13542 5.79167C6.68403 6.04167 6.27083 6.19444 5.89583 6.25L6.10417 7.75ZM13.8958 7.75L14.1042 6.25C13.7292 6.19444 13.316 6.04167 12.8646 5.79167C12.4132 5.54167 12.0625 5.27778 11.8125 5L10.6875 6C11.0486 6.41667 11.5347 6.79514 12.1458 7.13542C12.7569 7.47569 13.3403 7.68056 13.8958 7.75ZM6.89583 17.375C5.92361 16.9583 5.07292 16.3854 4.34375 15.6562C3.61458 14.9271 3.04167 14.0764 2.625 13.1042C2.20833 12.1319 2 11.0938 2 9.98958C2 8.88542 2.20833 7.85069 2.625 6.88542C3.04167 5.92014 3.61458 5.07292 4.34375 4.34375C5.07292 3.61458 5.92361 3.04167 6.89583 2.625C7.86806 2.20833 8.90625 2 10.0104 2C11.1146 2 12.1493 2.20833 13.1146 2.625C14.0799 3.04167 14.9271 3.61458 15.6562 4.34375C16.3854 5.07292 16.9583 5.92014 17.375 6.88542C17.7917 7.85069 18 8.88542 18 9.98958C18 11.0938 17.7917 12.1319 17.375 13.1042C16.9583 14.0764 16.3854 14.9271 15.6562 15.6562C14.9271 16.3854 14.0799 16.9583 13.1146 17.375C12.1493 17.7917 11.1146 18 10.0104 18C8.90625 18 7.86806 17.7917 6.89583 17.375Z" fill="#990000"/>
</g>
</symbol><symbol id="sentiment_sad" viewBox="0 0 20 20">
<mask id="sentiment_sad__mask0_169_9539" style="mask-type:alpha" maskUnits="userSpaceOnUse" x="0" y="0" width="20" height="20">
<rect width="20" height="20" fill="#D9D9D9"/>
</mask>
<g mask="url(#sentiment_sad__mask0_169_9539)">
<path d="M5.5 13H7V12.5208C7 11.6875 7.29167 10.9792 7.875 10.3958C8.45833 9.8125 9.16667 9.52083 10 9.52083C10.8333 9.52083 11.5417 9.8125 12.125 10.3958C12.7083 10.9792 13 11.6875 13 12.5208V13H14.5V12.5208C14.5 11.2708 14.0625 10.2083 13.1875 9.33333C12.3125 8.45833 11.25 8.02083 10 8.02083C8.75 8.02083 7.6875 8.45833 6.8125 9.33333C5.9375 10.2083 5.5 11.2708 5.5 12.5208V13ZM6.10417 7.75C6.65972 7.68056 7.24306 7.47569 7.85417 7.13542C8.46528 6.79514 8.95139 6.41667 9.3125 6L8.1875 5C7.9375 5.27778 7.58681 5.54167 7.13542 5.79167C6.68403 6.04167 6.27083 6.19444 5.89583 6.25L6.10417 7.75ZM13.8958 7.75L14.1042 6.25C13.7292 6.19444 13.316 6.04167 12.8646 5.79167C12.4132 5.54167 12.0625 5.27778 11.8125 5L10.6875 6C11.0486 6.41667 11.5347 6.79514 12.1458 7.13542C12.7569 7.47569 13.3403 7.68056 13.8958 7.75ZM6.89583 17.375C5.92361 16.9583 5.07292 16.3854 4.34375 15.6562C3.61458 14.9271 3.04167 14.0764 2.625 13.1042C2.20833 12.1319 2 11.0938 2 9.98958C2 8.88542 2.20833 7.85069 2.625 6.88542C3.04167 5.92014 3.61458 5.07292 4.34375 4.34375C5.07292 3.61458 5.92361 3.04167 6.89583 2.625C7.86806 2.20833 8.90625 2 10.0104 2C11.1146 2 12.1493 2.20833 13.1146 2.625C14.0799 3.04167 14.9271 3.61458 15.6562 4.34375C16.3854 5.07292 16.9583 5.92014 17.375 6.88542C17.7917 7.85069 18 8.88542 18 9.98958C18 11.0938 17.7917 12.1319 17.375 13.1042C16.9583 14.0764 16.3854 14.9271 15.6562 15.6562C14.9271 16.3854 14.0799 16.9583 13.1146 17.375C12.1493 17.7917 11.1146 18 10.0104 18C8.90625 18 7.86806 17.7917 6.89583 17.375Z" fill="#1C1B1F"/>
</g>
</symbol><symbol id="signpost" viewBox="0 0 20 20">
<mask id="signpost__mask0_22_601" style="mask-type:alpha" maskUnits="userSpaceOnUse" x="0" y="0" width="20" height="20">
<rect width="20" height="20" fill="#D9D9D9"/>
</mask>
<g mask="url(#signpost__mask0_22_601)">
<path d="M9.25 18V14H5L3 11.75L5 9.5H9.25V8H4V3.5H9.25V2H10.75V3.5H15L17 5.75L15 8H10.75V9.5H16V14H10.75V18H9.25ZM5.5 6.5H14.3333L15 5.75L14.3333 5H5.5V6.5ZM5.66667 12.5H14.5V11H5.66667L5 11.75L5.66667 12.5Z" fill="currentColor"/>
</g>
</symbol><symbol id="sms" viewBox="0 0 24 24">
<mask id="sms__mask0_85_7168" style="mask-type:alpha" maskUnits="userSpaceOnUse" x="0" y="0" width="24" height="24">
<rect width="24" height="24" fill="#D9D9D9"/>
</mask>
<g mask="url(#sms__mask0_85_7168)">
<path d="M8 12.9051C8.28333 12.9051 8.52083 12.8067 8.7125 12.6099C8.90417 12.4131 9 12.1692 9 11.8782C9 11.5873 8.90417 11.3434 8.7125 11.1466C8.52083 10.9498 8.28333 10.8514 8 10.8514C7.71667 10.8514 7.47917 10.9498 7.2875 11.1466C7.09583 11.3434 7 11.5873 7 11.8782C7 12.1692 7.09583 12.4131 7.2875 12.6099C7.47917 12.8067 7.71667 12.9051 8 12.9051ZM12 12.9051C12.2833 12.9051 12.5208 12.8067 12.7125 12.6099C12.9042 12.4131 13 12.1692 13 11.8782C13 11.5873 12.9042 11.3434 12.7125 11.1466C12.5208 10.9498 12.2833 10.8514 12 10.8514C11.7167 10.8514 11.4792 10.9498 11.2875 11.1466C11.0958 11.3434 11 11.5873 11 11.8782C11 12.1692 11.0958 12.4131 11.2875 12.6099C11.4792 12.8067 11.7167 12.9051 12 12.9051ZM16 12.9051C16.2833 12.9051 16.5208 12.8067 16.7125 12.6099C16.9042 12.4131 17 12.1692 17 11.8782C17 11.5873 16.9042 11.3434 16.7125 11.1466C16.5208 10.9498 16.2833 10.8514 16 10.8514C15.7167 10.8514 15.4792 10.9498 15.2875 11.1466C15.0958 11.3434 15 11.5873 15 11.8782C15 12.1692 15.0958 12.4131 15.2875 12.6099C15.4792 12.8067 15.7167 12.9051 16 12.9051ZM2 24.2002V5.71724C2 5.15248 2.19583 4.66902 2.5875 4.26684C2.97917 3.86466 3.45 3.66357 4 3.66357H20C20.55 3.66357 21.0208 3.86466 21.4125 4.26684C21.8042 4.66902 22 5.15248 22 5.71724V18.0392C22 18.604 21.8042 19.0875 21.4125 19.4896C21.0208 19.8918 20.55 20.0929 20 20.0929H6L2 24.2002ZM5.15 18.0392H20V5.71724H4V19.1944L5.15 18.0392Z" fill="currentColor"/>
</g>
</symbol><symbol id="star_shine" viewBox="0 0 24 24">
<mask id="star_shine__mask0_10_127" style="mask-type:alpha" maskUnits="userSpaceOnUse" x="0" y="0" width="24" height="24">
<rect width="24" height="24" fill="#D9D9D9"/>
</mask>
<g mask="url(#star_shine__mask0_10_127)">
<path d="M21.3 18.7L18.3 15.7L19.7 14.3L22.7 17.3L21.3 18.7ZM17.7 6.7L16.3 5.3L19.3 2.3L20.7 3.7L17.7 6.7ZM6.3 6.7L3.3 3.7L4.7 2.3L7.7 5.3L6.3 6.7ZM2.7 18.7L1.3 17.3L4.3 14.3L5.7 15.7L2.7 18.7ZM8.85 16.825L12 14.925L15.15 16.85L14.325 13.25L17.1 10.85L13.45 10.525L12 7.125L10.55 10.5L6.9 10.825L9.675 13.25L8.85 16.825ZM5.825 21L7.45 13.975L2 9.25L9.2 8.625L12 2L14.8 8.625L22 9.25L16.55 13.975L18.175 21L12 17.275L5.825 21Z" fill="currentColor"/>
</g>
</symbol><symbol id="tag" viewBox="0 0 24 24">
<mask id="tag__mask0_85_7181" style="mask-type:alpha" maskUnits="userSpaceOnUse" x="0" y="0" width="24" height="24">
<rect width="24" height="24" fill="#D9D9D9"/>
</mask>
<g mask="url(#tag__mask0_85_7181)">
<path d="M6 20L7 16H3L3.5 14H7.5L8.5 10H4.5L5 8H9L10 4H12L11 8H15L16 4H18L17 8H21L20.5 10H16.5L15.5 14H19.5L19 16H15L14 20H12L13 16H9L8 20H6ZM9.5 14H13.5L14.5 10H10.5L9.5 14Z" fill="currentColor"/>
</g>
</symbol><symbol id="tooltip_2" viewBox="0 0 20 20">
<mask id="tooltip_2__mask0_169_9479" style="mask-type:alpha" maskUnits="userSpaceOnUse" x="0" y="0" width="20" height="20">
<rect width="20" height="20" fill="#D9D9D9"/>
</mask>
<g mask="url(#tooltip_2__mask0_169_9479)">
<path d="M10 16L8.5 13.75H5.125C4.81563 13.75 4.55078 13.6398 4.33047 13.4195C4.11016 13.1992 4 12.9344 4 12.625V5.125C4 4.81563 4.11016 4.55078 4.33047 4.33047C4.55078 4.11016 4.81563 4 5.125 4H14.875C15.1844 4 15.4492 4.11016 15.6695 4.33047C15.8898 4.55078 16 4.81563 16 5.125V12.625C16 12.9344 15.8898 13.1992 15.6695 13.4195C15.4492 13.6398 15.1844 13.75 14.875 13.75H11.5L10 16Z" fill="#1C1B1F"/>
</g>
</symbol><symbol id="tooltip" viewBox="0 0 20 20">
<mask id="tooltip__mask0_169_9466" style="mask-type:alpha" maskUnits="userSpaceOnUse" x="0" y="0" width="20" height="20">
<rect width="20" height="20" fill="#D9D9D9"/>
</mask>
<g mask="url(#tooltip__mask0_169_9466)">
<path d="M10 16L8.5 13.75H5.125C4.81563 13.75 4.55078 13.6398 4.33047 13.4195C4.11016 13.1992 4 12.9344 4 12.625V5.125C4 4.81563 4.11016 4.55078 4.33047 4.33047C4.55078 4.11016 4.81563 4 5.125 4H14.875C15.1844 4 15.4492 4.11016 15.6695 4.33047C15.8898 4.55078 16 4.81563 16 5.125V12.625C16 12.9344 15.8898 13.1992 15.6695 13.4195C15.4492 13.6398 15.1844 13.75 14.875 13.75H11.5L10 16ZM10 13.9688L10.9063 12.625H14.875V5.125H5.125V12.625H9.09375L10 13.9688Z" fill="#474554"/>
</g>
</symbol><symbol id="unfold_more" viewBox="0 0 20 20">
<mask id="unfold_more__mask0_80_4405" style="mask-type:alpha" maskUnits="userSpaceOnUse" x="0" y="0" width="20" height="20">
<rect width="20" height="20" fill="#D9D9D9"/>
</mask>
<g mask="url(#unfold_more__mask0_80_4405)">
<path d="M10 17L6.625 13.625L7.6875 12.5625L10 14.875L12.3125 12.5625L13.375 13.625L10 17ZM7.6875 7.4375L6.625 6.375L10 3L13.375 6.375L12.3125 7.4375L10 5.125L7.6875 7.4375Z" fill="#1C1B1F"/>
</g>
</symbol><symbol id="warning" viewBox="0 0 102 104">
<mask id="warning__mask0_209_16731" style="mask-type:alpha" maskUnits="userSpaceOnUse" x="0" y="0" width="120" height="120">
<rect width="120" height="120" fill="#D9D9D9"/>
</mask>
<g mask="url(#warning__mask0_209_16731)">
<path d="M2.94922 106.201L59.998 7.59729L117.047 106.201H2.94922ZM59.998 89.7873C61.4621 89.7873 62.7205 89.261 63.773 88.2085C64.8255 87.156 65.3517 85.8981 65.3517 84.4348C65.3517 82.9706 64.8255 81.724 63.773 80.6948C62.7205 79.6665 61.4621 79.1523 59.998 79.1523C58.5338 79.1523 57.2755 79.6665 56.223 80.6948C55.1705 81.724 54.6442 82.9706 54.6442 84.4348C54.6442 85.8981 55.1705 87.156 56.223 88.2085C57.2755 89.261 58.5338 89.7873 59.998 89.7873ZM54.998 74.9998H64.998V50.7773H54.998V74.9998Z" fill="#1C1B1F"/>
</g>
</symbol></svg>
