<svg width="102" height="104" viewBox="0 0 102 104" fill="none" xmlns="http://www.w3.org/2000/svg">
<mask id="mask0_209_16731" style="mask-type:alpha" maskUnits="userSpaceOnUse" x="0" y="0" width="120" height="120">
<rect width="120" height="120" fill="#D9D9D9"/>
</mask>
<g mask="url(#mask0_209_16731)">
<path d="M2.94922 106.201L59.998 7.59729L117.047 106.201H2.94922ZM59.998 89.7873C61.4621 89.7873 62.7205 89.261 63.773 88.2085C64.8255 87.156 65.3517 85.8981 65.3517 84.4348C65.3517 82.9706 64.8255 81.724 63.773 80.6948C62.7205 79.6665 61.4621 79.1523 59.998 79.1523C58.5338 79.1523 57.2755 79.6665 56.223 80.6948C55.1705 81.724 54.6442 82.9706 54.6442 84.4348C54.6442 85.8981 55.1705 87.156 56.223 88.2085C57.2755 89.261 58.5338 89.7873 59.998 89.7873ZM54.998 74.9998H64.998V50.7773H54.998V74.9998Z" fill="#1C1B1F"/>
</g>
</svg>
